<?xml version="1.0"?>
<svg width="909.944" height="112.249" xmlns="http://www.w3.org/2000/svg" xmlns:svg="http://www.w3.org/2000/svg">
 <g class="layer">
  <title>Layer 1</title>
  <path d="m62.02,5.13c-0.31,-0.56 -0.82,-0.82 -1.85,-1.21c-1.03,-0.39 -1.7,-0.72 -3.3,-0.75c-1.59,-0.03 -2.64,0.08 -4.69,0.61c-2.05,0.53 -3.16,0.92 -5.56,2.06c-2.4,1.13 -3.8,1.85 -6.43,3.6c-2.64,1.74 -3.97,2.91 -6.77,5.12c-2.8,2.2 -4.35,3.38 -7.22,5.9c-2.87,2.52 -4.43,3.86 -7.14,6.7c-2.71,2.84 -4.1,4.46 -6.41,7.5c-2.3,3.04 -3.43,4.63 -5.12,7.72c-1.69,3.09 -2.4,4.67 -3.33,7.74c-0.93,3.06 -1.26,4.67 -1.31,7.57c-0.04,2.9 0.2,4.33 1.09,6.91c0.9,2.59 1.63,3.81 3.4,6.03c1.78,2.22 2.9,3.29 5.47,5.09c2.58,1.79 4.14,2.52 7.4,3.88c3.26,1.37 5.16,1.89 8.91,2.96c3.74,1.07 5.66,1.65 9.82,2.39c4.17,0.75 6.86,0.89 11,1.32c4.14,0.43 6.38,0.78 9.68,0.83c3.3,0.05 5.45,-0.19 6.82,-0.59c1.37,-0.4 1.36,-0.95 0.03,-1.39c-1.33,-0.45 -3.44,-0.51 -6.68,-0.84c-3.25,-0.33 -5.49,-0.42 -9.56,-0.83c-4.07,-0.41 -6.74,-0.47 -10.8,-1.21c-4.05,-0.74 -5.89,-1.36 -9.48,-2.48c-3.58,-1.13 -5.41,-1.75 -8.43,-3.14c-3.02,-1.39 -4.36,-2.17 -6.64,-3.82c-2.29,-1.64 -3.23,-2.55 -4.79,-4.41c-1.55,-1.86 -2.21,-2.77 -2.98,-4.9c-0.76,-2.13 -0.87,-3.26 -0.84,-5.75c0.04,-2.49 0.24,-3.93 1.02,-6.71c0.77,-2.79 1.33,-4.3 2.86,-7.23c1.52,-2.93 2.58,-4.47 4.77,-7.4c2.19,-2.93 3.54,-4.52 6.17,-7.25c2.64,-2.73 4.17,-4.02 7.02,-6.41c2.85,-2.39 4.45,-3.53 7.26,-5.54c2.81,-2.01 4.2,-3.01 6.79,-4.52c2.59,-1.5 3.95,-2.03 6.17,-3c2.21,-0.97 3.18,-1.35 4.91,-1.85c1.73,-0.5 2.44,-0.52 3.72,-0.64c1.28,-0.12 1.73,0.14 2.68,0.04c0.94,-0.1 1.59,-0.1 2.06,-0.52c0.47,-0.42 0.6,-1.02 0.28,-1.58" fill="#5A5A54" id="svg_1" stroke="#ffffff"/>
  <path d="m116.98,41.56c-0.05,-0.78 -0.56,-1.59 -1.41,-2.62c-0.84,-1.02 -1.43,-1.65 -2.82,-2.51c-1.38,-0.86 -2.41,-1.33 -4.11,-1.78c-1.7,-0.45 -2.52,-0.48 -4.38,-0.47c-1.87,0 -2.89,0.08 -4.95,0.49c-2.05,0.41 -3.12,0.73 -5.33,1.56c-2.21,0.82 -3.35,1.31 -5.7,2.56c-2.36,1.26 -3.7,1.97 -6.07,3.7c-2.37,1.73 -3.67,2.8 -5.78,4.96c-2.1,2.17 -3.1,3.39 -4.77,5.86c-1.66,2.47 -2.45,3.86 -3.54,6.5c-1.1,2.63 -1.61,4.1 -1.93,6.66c-0.32,2.57 -0.16,3.9 0.31,6.15c0.48,2.25 0.9,3.28 2.06,5.1c1.17,1.82 1.9,2.72 3.77,4c1.88,1.27 3.2,1.84 5.6,2.36c2.4,0.51 3.75,0.51 6.41,0.22c2.67,-0.28 4.15,-0.62 6.93,-1.64c2.77,-1.03 4.27,-1.85 6.92,-3.47c2.66,-1.62 3.88,-2.64 6.36,-4.64c2.47,-2 3.86,-3.07 6.04,-5.34c2.17,-2.27 3.22,-3.56 4.84,-6.01c1.62,-2.45 2.26,-3.86 3.25,-6.25c0.99,-2.39 1.32,-3.63 1.7,-5.71c0.39,-2.08 0.55,-3.11 0.21,-4.68c-0.35,-1.56 -1.03,-2.57 -1.94,-3.15c-0.9,-0.58 -1.59,-0.29 -2.57,0.23c-0.99,0.53 -1.68,0.99 -2.36,2.41c-0.69,1.42 -0.89,2.68 -1.07,4.69c-0.19,2.01 -0.02,3.09 0.14,5.36c0.17,2.27 0.22,3.6 0.68,5.99c0.46,2.4 0.84,3.69 1.62,5.98c0.77,2.29 1.2,3.39 2.25,5.48c1.06,2.08 1.66,3.24 3.02,4.94c1.36,1.7 2.12,2.39 3.79,3.55c1.67,1.17 2.55,1.71 4.56,2.29c2.02,0.59 3.33,0.75 5.52,0.65c2.2,-0.09 3.38,-0.36 5.46,-1.13c2.07,-0.76 3.23,-1.5 4.91,-2.7c1.68,-1.19 2.54,-1.99 3.49,-3.28c0.94,-1.3 1.2,-2.38 1.23,-3.18c0.03,-0.8 -0.41,-0.99 -1.1,-0.8c-0.69,0.18 -1.19,0.94 -2.36,1.73c-1.16,0.79 -1.94,1.29 -3.45,2.2c-1.52,0.92 -2.45,1.68 -4.13,2.36c-1.68,0.67 -2.55,0.86 -4.28,1c-1.73,0.14 -2.78,0.08 -4.36,-0.3c-1.58,-0.37 -2.26,-0.68 -3.54,-1.59c-1.28,-0.92 -1.81,-1.51 -2.88,-2.99c-1.07,-1.48 -1.59,-2.53 -2.47,-4.42c-0.89,-1.88 -1.3,-2.91 -1.95,-5.01c-0.65,-2.1 -0.96,-3.29 -1.3,-5.48c-0.34,-2.19 -0.37,-3.43 -0.4,-5.49c-0.04,-2.06 0.13,-3.06 0.22,-4.81c0.1,-1.75 0.16,-2.73 0.24,-3.93c0.07,-1.2 0.17,-1.56 0.12,-2.06c-0.05,-0.51 -0.34,-0.82 -0.38,-0.46c-0.05,0.36 0.19,1.08 0.14,2.26c-0.05,1.18 0.03,1.91 -0.39,3.64c-0.43,1.72 -0.77,2.85 -1.72,4.97c-0.95,2.12 -1.57,3.38 -3.04,5.63c-1.46,2.25 -2.3,3.49 -4.29,5.61c-2,2.12 -3.34,3.16 -5.68,5c-2.34,1.85 -3.55,2.8 -6.03,4.23c-2.49,1.43 -3.92,2.02 -6.4,2.92c-2.48,0.89 -3.76,1.26 -6,1.55c-2.25,0.3 -3.3,0.27 -5.22,-0.08c-1.93,-0.34 -2.94,-0.74 -4.41,-1.63c-1.47,-0.89 -2.05,-1.45 -2.94,-2.8c-0.89,-1.36 -1.19,-2.17 -1.5,-3.96c-0.32,-1.79 -0.43,-2.86 -0.07,-5c0.35,-2.14 0.82,-3.39 1.83,-5.7c1.01,-2.31 1.7,-3.62 3.22,-5.85c1.51,-2.23 2.4,-3.34 4.36,-5.27c1.95,-1.93 3.21,-2.82 5.41,-4.38c2.21,-1.57 3.44,-2.27 5.61,-3.43c2.16,-1.17 3.23,-1.63 5.22,-2.4c1.99,-0.77 2.95,-1.06 4.72,-1.47c1.78,-0.41 2.67,-0.55 4.15,-0.57c1.49,-0.01 2.01,0.09 3.27,0.5c1.27,0.42 1.94,0.92 3.08,1.58c1.14,0.66 1.59,1.15 2.62,1.71c1.04,0.56 1.8,1.14 2.55,1.11c0.75,-0.02 1.23,-0.48 1.19,-1.25" fill="#5A5A54" id="svg_2" stroke="#ffffff"/>
  <path d="m149.4,45.2c-0.32,0.48 -0.19,0.83 -0.17,1.76c0.03,0.93 -0.06,1.55 0.29,2.9c0.35,1.36 0.9,2.22 1.48,3.86c0.58,1.63 0.87,2.52 1.41,4.31c0.55,1.8 0.81,2.76 1.31,4.65c0.51,1.89 0.76,2.95 1.22,4.8c0.45,1.85 0.72,2.84 1.07,4.45c0.35,1.61 0.26,2.49 0.68,3.62c0.43,1.13 0.93,1.81 1.45,2.04c0.53,0.23 0.9,-0.21 1.17,-0.89c0.26,-0.69 0.26,-1.24 0.16,-2.53c-0.1,-1.29 -0.25,-2.14 -0.67,-3.93c-0.41,-1.78 -0.93,-2.98 -1.41,-5c-0.47,-2.02 -0.7,-3.08 -0.97,-5.08c-0.26,-2 -0.32,-3.03 -0.34,-4.93c-0.02,-1.89 -0.04,-2.85 0.25,-4.54c0.29,-1.68 0.5,-2.44 1.19,-3.89c0.7,-1.45 1.25,-2.13 2.29,-3.36c1.04,-1.23 1.61,-1.87 2.9,-2.78c1.29,-0.9 2,-1.26 3.55,-1.74c1.54,-0.47 2.45,-0.58 4.17,-0.65c1.72,-0.06 2.6,-0.07 4.43,0.34c1.82,0.41 2.86,0.77 4.69,1.71c1.82,0.93 2.82,1.54 4.43,2.95c1.6,1.41 2.34,2.27 3.58,4.1c1.24,1.83 1.81,2.91 2.61,5.05c0.8,2.14 1,3.35 1.4,5.65c0.4,2.29 0.45,3.6 0.61,5.81c0.15,2.22 0.13,3.29 0.17,5.26c0.03,1.97 -0.09,3.15 0,4.59c0.09,1.45 0.15,2.02 0.43,2.64c0.28,0.62 0.59,0.61 0.98,0.45c0.4,-0.15 0.61,-0.33 0.99,-1.22c0.38,-0.88 0.63,-1.6 0.92,-3.2c0.29,-1.61 0.16,-2.77 0.51,-4.81c0.35,-2.05 0.58,-3.22 1.24,-5.43c0.66,-2.21 1.16,-3.42 2.07,-5.63c0.91,-2.21 1.38,-3.4 2.49,-5.41c1.11,-2.01 1.7,-2.98 3.05,-4.65c1.35,-1.66 2.2,-2.41 3.69,-3.66c1.5,-1.26 2.32,-1.89 3.8,-2.6c1.47,-0.72 2.12,-0.9 3.6,-0.99c1.47,-0.09 2.38,0.07 3.77,0.54c1.39,0.46 2.03,0.74 3.17,1.78c1.15,1.04 1.53,1.81 2.56,3.42c1.03,1.61 1.64,2.63 2.6,4.63c0.96,2 1.33,3.08 2.21,5.38c0.88,2.31 1.22,3.7 2.18,6.13c0.96,2.42 1.54,3.7 2.61,6.01c1.07,2.3 1.63,3.39 2.74,5.52c1.11,2.13 1.59,3.33 2.81,5.12c1.22,1.78 2.05,2.67 3.29,3.81c1.23,1.15 1.88,1.48 2.88,1.9c0.99,0.43 1.59,0.39 2.09,0.24c0.5,-0.14 0.57,-0.5 0.43,-0.94c-0.14,-0.43 -0.55,-0.52 -1.12,-1.22c-0.57,-0.71 -0.84,-1.15 -1.73,-2.32c-0.89,-1.17 -1.66,-1.87 -2.72,-3.54c-1.06,-1.66 -1.56,-2.73 -2.6,-4.77c-1.03,-2.03 -1.57,-3.14 -2.57,-5.39c-0.99,-2.25 -1.5,-3.46 -2.4,-5.86c-0.91,-2.39 -1.23,-3.75 -2.13,-6.12c-0.9,-2.36 -1.3,-3.57 -2.38,-5.72c-1.07,-2.15 -1.71,-3.22 -3,-5.02c-1.28,-1.8 -1.85,-2.69 -3.42,-3.98c-1.56,-1.28 -2.51,-1.83 -4.41,-2.44c-1.9,-0.6 -3.11,-0.72 -5.09,-0.58c-1.98,0.13 -2.92,0.44 -4.81,1.27c-1.9,0.83 -2.89,1.47 -4.67,2.88c-1.79,1.41 -2.7,2.3 -4.25,4.16c-1.55,1.85 -2.24,2.95 -3.5,5.12c-1.27,2.17 -1.79,3.4 -2.84,5.72c-1.04,2.32 -1.56,3.56 -2.4,5.9c-0.83,2.34 -1.25,3.6 -1.77,5.8c-0.52,2.21 -0.78,3.42 -0.85,5.24c-0.07,1.81 0.03,2.75 0.49,3.85c0.46,1.1 1.1,1.43 1.81,1.64c0.71,0.22 1.16,0.13 1.73,-0.56c0.57,-0.69 0.86,-1.34 1.12,-2.88c0.26,-1.54 0.18,-2.77 0.18,-4.83c0,-2.06 -0.03,-3.14 -0.18,-5.48c-0.15,-2.34 -0.13,-3.72 -0.57,-6.23c-0.44,-2.51 -0.7,-3.9 -1.64,-6.33c-0.93,-2.43 -1.58,-3.69 -3.02,-5.83c-1.44,-2.14 -2.29,-3.18 -4.17,-4.87c-1.87,-1.68 -3.04,-2.46 -5.22,-3.56c-2.18,-1.1 -3.47,-1.48 -5.68,-1.93c-2.21,-0.45 -3.28,-0.44 -5.38,-0.33c-2.1,0.1 -3.19,0.22 -5.13,0.84c-1.93,0.62 -2.91,1.12 -4.54,2.25c-1.63,1.14 -2.35,1.91 -3.62,3.44c-1.26,1.52 -1.86,2.4 -2.7,4.19c-0.84,1.79 -1.1,2.79 -1.49,4.78c-0.38,1.98 -0.37,3.04 -0.43,5.14c-0.07,2.1 -0.03,3.17 0.09,5.34c0.13,2.18 0.22,3.36 0.53,5.54c0.32,2.18 0.54,3.52 1.05,5.38c0.5,1.85 0.82,2.67 1.47,3.9c0.65,1.23 1,1.79 1.78,2.25c0.78,0.47 1.53,0.59 2.11,0.08c0.57,-0.51 0.69,-1.33 0.77,-2.63c0.08,-1.29 -0.09,-2.13 -0.37,-3.83c-0.27,-1.7 -0.56,-2.76 -1.01,-4.66c-0.44,-1.91 -0.75,-2.94 -1.22,-4.86c-0.47,-1.92 -0.67,-2.86 -1.12,-4.75c-0.44,-1.89 -0.54,-2.99 -1.1,-4.71c-0.56,-1.71 -1.1,-2.61 -1.7,-3.88c-0.61,-1.27 -0.76,-1.72 -1.33,-2.48c-0.57,-0.76 -0.93,-1.16 -1.51,-1.3c-0.58,-0.13 -1.09,0.15 -1.4,0.62" fill="#5A5A54" id="svg_3" stroke="#ffffff"/>
  <path d="m261.78,48.68c-0.4,0.4 -0.47,0.74 -0.6,1.69c-0.12,0.96 -0.16,1.66 -0.03,3.08c0.14,1.42 0.4,2.16 0.71,4.01c0.32,1.86 0.46,3.13 0.85,5.27c0.39,2.13 0.63,3.26 1.1,5.4c0.47,2.14 0.6,3.31 1.23,5.3c0.62,2 1.08,3.24 1.89,4.68c0.81,1.43 1.48,2.1 2.14,2.49c0.67,0.39 1.02,0.19 1.19,-0.53c0.17,-0.71 -0.06,-1.52 -0.33,-3.05c-0.28,-1.54 -0.61,-2.69 -1.04,-4.62c-0.43,-1.94 -0.76,-2.99 -1.13,-5.06c-0.37,-2.07 -0.44,-3.16 -0.72,-5.29c-0.28,-2.14 -0.34,-3.5 -0.68,-5.38c-0.34,-1.87 -0.65,-2.61 -1.03,-3.98c-0.37,-1.37 -0.41,-2 -0.83,-2.86c-0.42,-0.87 -0.74,-1.23 -1.29,-1.46c-0.54,-0.23 -1.02,-0.09 -1.43,0.31" fill="#5A5A54" id="svg_4" stroke="#ffffff"/>
  <path d="m486.92,298.66c0.42,0.08 0.8,-0.39 0.64,-0.78c-0.17,-0.4 -1.05,-1.1 -1.47,-1.18c-0.42,-0.08 -0.8,0.39 -0.63,0.78c0.16,0.39 1.04,1.1 1.46,1.18" fill="black" id="svg_5" stroke="black"/>
  <path d="m290.03,7.51c-0.5,0.48 -0.64,1.16 -0.94,2.43c-0.3,1.27 -0.42,2 -0.56,3.92c-0.15,1.93 -0.18,3.22 -0.17,5.72c0.02,2.5 0.09,3.87 0.25,6.77c0.16,2.9 0.29,4.45 0.55,7.73c0.26,3.29 0.35,5.19 0.74,8.7c0.4,3.51 0.68,5.36 1.22,8.86c0.55,3.5 0.86,5.28 1.51,8.65c0.65,3.36 0.93,5.03 1.74,8.18c0.81,3.15 1.23,4.81 2.3,7.56c1.08,2.76 1.76,4.29 3.08,6.2c1.31,1.92 2.34,2.46 3.51,3.38c1.17,0.92 1.74,1.12 2.35,1.21c0.61,0.1 0.81,-0.16 0.7,-0.74c-0.11,-0.58 -0.52,-1 -1.23,-2.14c-0.72,-1.13 -1.33,-1.69 -2.33,-3.55c-1,-1.85 -1.61,-3.16 -2.66,-5.72c-1.04,-2.56 -1.68,-4.07 -2.56,-7.07c-0.88,-3 -1.17,-4.63 -1.84,-7.92c-0.66,-3.29 -0.97,-5.06 -1.48,-8.51c-0.51,-3.44 -0.77,-5.26 -1.08,-8.72c-0.31,-3.45 -0.37,-5.32 -0.47,-8.56c-0.1,-3.24 -0.04,-4.78 -0.02,-7.64c0.02,-2.86 0.1,-4.2 0.13,-6.66c0.03,-2.46 0.09,-3.73 0.02,-5.65c-0.08,-1.91 -0.15,-2.64 -0.39,-3.92c-0.24,-1.28 -0.33,-1.96 -0.8,-2.47c-0.48,-0.5 -1.07,-0.52 -1.57,-0.04" fill="#5A5A54" id="svg_6" stroke="#ffffff"/>
  <path d="m351.9,56.45c0.26,-0.72 0.24,-1.67 -0.21,-2.94c-0.45,-1.28 -0.92,-2.11 -2.04,-3.44c-1.12,-1.33 -1.85,-2.18 -3.57,-3.21c-1.71,-1.03 -2.84,-1.38 -5.01,-1.94c-2.17,-0.55 -3.36,-0.7 -5.84,-0.83c-2.47,-0.13 -3.95,-0.2 -6.53,0.18c-2.57,0.37 -3.93,0.78 -6.34,1.67c-2.41,0.9 -3.6,1.48 -5.7,2.8c-2.1,1.31 -3.19,2.06 -4.79,3.8c-1.61,1.73 -2.27,2.79 -3.23,4.88c-0.96,2.09 -1.34,3.25 -1.57,5.56c-0.24,2.32 -0.21,3.63 0.39,6.02c0.61,2.4 1.17,3.71 2.62,5.96c1.45,2.26 2.39,3.49 4.63,5.31c2.23,1.83 3.63,2.66 6.54,3.81c2.92,1.15 4.72,1.44 8.03,1.94c3.31,0.5 5.11,0.64 8.53,0.56c3.41,-0.07 5.23,-0.31 8.55,-0.92c3.31,-0.61 5.15,-1.01 8.02,-2.13c2.86,-1.11 4.18,-1.8 6.29,-3.43c2.1,-1.64 2.98,-2.7 4.24,-4.75c1.26,-2.05 1.69,-3.25 2.05,-5.5c0.37,-2.26 0.3,-3.5 -0.22,-5.78c-0.51,-2.27 -1.07,-3.51 -2.34,-5.58c-1.26,-2.07 -2.22,-3.05 -3.99,-4.77c-1.77,-1.72 -2.89,-2.51 -4.87,-3.82c-1.98,-1.3 -3.14,-1.88 -5.04,-2.7c-1.9,-0.82 -2.98,-1.12 -4.45,-1.4c-1.47,-0.29 -2.27,-0.25 -2.92,-0.02c-0.66,0.22 -0.74,0.6 -0.37,1.15c0.38,0.55 1.03,0.85 2.24,1.6c1.21,0.75 2.12,1.21 3.8,2.14c1.67,0.93 2.8,1.33 4.58,2.51c1.78,1.18 2.75,1.91 4.31,3.38c1.56,1.47 2.37,2.3 3.49,3.98c1.11,1.67 1.59,2.64 2.08,4.4c0.49,1.76 0.61,2.67 0.38,4.41c-0.24,1.73 -0.53,2.66 -1.53,4.26c-1.01,1.61 -1.69,2.46 -3.49,3.78c-1.81,1.32 -2.95,1.83 -5.53,2.82c-2.58,0.99 -4.29,1.53 -7.36,2.13c-3.07,0.61 -4.81,0.85 -7.98,0.9c-3.18,0.05 -4.9,-0.14 -7.92,-0.66c-3.02,-0.52 -4.65,-0.89 -7.18,-1.95c-2.54,-1.05 -3.64,-1.77 -5.51,-3.32c-1.87,-1.55 -2.62,-2.59 -3.83,-4.44c-1.22,-1.85 -1.72,-2.91 -2.26,-4.82c-0.53,-1.9 -0.59,-2.89 -0.42,-4.72c0.16,-1.83 0.46,-2.76 1.23,-4.42c0.77,-1.67 1.28,-2.51 2.62,-3.91c1.35,-1.4 2.28,-2.01 4.12,-3.09c1.83,-1.08 2.93,-1.61 5.06,-2.34c2.13,-0.73 3.31,-1.03 5.58,-1.31c2.27,-0.28 3.61,-0.19 5.79,-0.09c2.17,0.11 3.29,0.18 5.09,0.61c1.79,0.42 2.59,0.71 3.87,1.51c1.29,0.8 1.65,1.49 2.57,2.49c0.92,0.99 1.26,1.62 2.02,2.49c0.76,0.86 1.11,1.59 1.78,1.82c0.66,0.24 1.27,0.08 1.54,-0.64" fill="#5A5A54" id="svg_7" stroke="#ffffff"/>
  <path d="m495.87,18.36c-0.13,-0.65 -0.54,-1.24 -1.44,-1.86c-0.9,-0.61 -1.61,-0.86 -3.05,-1.22c-1.44,-0.35 -2.36,-0.66 -4.15,-0.55c-1.8,0.11 -2.82,0.42 -4.84,1.11c-2.02,0.69 -3.1,1.15 -5.27,2.34c-2.18,1.19 -3.36,1.91 -5.61,3.6c-2.26,1.69 -3.38,2.72 -5.66,4.84c-2.27,2.13 -3.49,3.37 -5.71,5.76c-2.22,2.4 -3.39,3.61 -5.39,6.21c-2,2.6 -3.11,3.98 -4.61,6.78c-1.5,2.79 -2.15,4.32 -2.89,7.21c-0.73,2.89 -0.98,4.43 -0.8,7.24c0.18,2.8 0.51,4.18 1.72,6.79c1.21,2.62 2.18,4.04 4.34,6.3c2.15,2.25 3.52,3.31 6.43,4.97c2.91,1.66 4.63,2.3 8.1,3.32c3.48,1.02 5.37,1.41 9.26,1.8c3.88,0.39 6.04,0.39 10.15,0.14c4.12,-0.25 6.31,-0.6 10.43,-1.4c4.12,-0.81 6.34,-1.41 10.18,-2.64c3.85,-1.22 5.69,-1.87 9.03,-3.49c3.33,-1.62 4.94,-2.61 7.65,-4.62c2.71,-2.01 4.03,-3.1 5.91,-5.43c1.87,-2.34 2.53,-3.68 3.48,-6.24c0.94,-2.55 1.08,-3.9 1.25,-6.54c0.17,-2.64 0.04,-4.03 -0.4,-6.66c-0.44,-2.64 -0.87,-3.98 -1.79,-6.5c-0.93,-2.52 -1.59,-3.8 -2.83,-6.09c-1.23,-2.3 -1.9,-3.37 -3.35,-5.36c-1.45,-1.99 -2.22,-2.97 -3.9,-4.61c-1.67,-1.65 -2.62,-2.36 -4.49,-3.6c-1.87,-1.23 -2.92,-1.83 -4.85,-2.6c-1.93,-0.76 -3.1,-1.06 -4.8,-1.22c-1.71,-0.15 -2.57,0.1 -3.72,0.44c-1.15,0.34 -1.69,0.78 -2.05,1.26c-0.35,0.49 -0.17,0.87 0.29,1.15c0.46,0.29 1.03,0.12 2.01,0.26c0.99,0.14 1.54,0.11 2.92,0.43c1.37,0.32 2.31,0.49 3.95,1.17c1.63,0.67 2.59,1.13 4.24,2.19c1.64,1.06 2.49,1.64 3.98,3.1c1.48,1.45 2.14,2.33 3.42,4.17c1.28,1.83 1.87,2.87 2.99,5c1.11,2.13 1.71,3.36 2.58,5.65c0.86,2.29 1.28,3.49 1.74,5.82c0.45,2.33 0.62,3.55 0.55,5.83c-0.06,2.28 -0.11,3.4 -0.89,5.56c-0.78,2.16 -1.39,3.18 -3.02,5.26c-1.62,2.07 -2.67,3.18 -5.1,5.11c-2.42,1.93 -3.91,2.93 -7.04,4.53c-3.12,1.6 -4.9,2.25 -8.59,3.46c-3.69,1.21 -5.88,1.8 -9.86,2.58c-3.99,0.77 -6.12,1.09 -10.07,1.29c-3.95,0.21 -6.02,0.15 -9.69,-0.28c-3.66,-0.44 -5.45,-0.87 -8.64,-1.91c-3.19,-1.03 -4.73,-1.71 -7.3,-3.27c-2.56,-1.56 -3.66,-2.58 -5.52,-4.55c-1.86,-1.97 -2.73,-3.14 -3.79,-5.3c-1.06,-2.15 -1.38,-3.15 -1.51,-5.47c-0.12,-2.32 0.24,-3.6 0.91,-6.13c0.67,-2.52 1.1,-3.94 2.44,-6.5c1.34,-2.56 2.36,-3.87 4.26,-6.31c1.89,-2.44 3.04,-3.63 5.22,-5.88c2.18,-2.26 3.44,-3.44 5.68,-5.38c2.25,-1.95 3.41,-2.82 5.56,-4.35c2.14,-1.53 3.21,-2.22 5.17,-3.3c1.96,-1.09 2.96,-1.53 4.63,-2.13c1.67,-0.6 2.36,-0.82 3.71,-0.87c1.36,-0.05 1.91,0.42 3.06,0.62c1.16,0.2 1.78,0.32 2.7,0.39c0.93,0.08 1.39,0.26 1.93,-0.03c0.53,-0.28 0.89,-0.74 0.75,-1.39" fill="#5A5A54" id="svg_8" stroke="#ffffff"/>
  <path d="m547.84,54.47c-0.47,0.51 -0.64,1.28 -0.72,2.45c-0.08,1.16 0.11,1.85 0.31,3.38c0.2,1.54 0.3,2.52 0.68,4.3c0.39,1.78 0.72,2.83 1.25,4.61c0.53,1.77 0.86,2.71 1.42,4.27c0.55,1.55 0.78,2.44 1.36,3.49c0.57,1.06 0.99,1.52 1.51,1.78c0.52,0.27 0.86,0.05 1.09,-0.45c0.22,-0.51 0.29,-0.98 0.03,-2.09c-0.26,-1.11 -0.6,-1.93 -1.33,-3.47c-0.74,-1.54 -1.42,-2.49 -2.34,-4.23c-0.92,-1.73 -1.42,-2.67 -2.26,-4.46c-0.84,-1.79 -1.35,-2.74 -1.94,-4.48c-0.6,-1.75 -0.83,-2.6 -1.03,-4.25c-0.2,-1.65 -0.14,-2.45 0.03,-4c0.18,-1.55 0.3,-2.38 0.85,-3.73c0.55,-1.36 0.9,-2.02 1.9,-3.06c1.01,-1.03 1.66,-1.41 3.14,-2.12c1.48,-0.7 2.51,-0.95 4.25,-1.39c1.74,-0.45 2.84,-0.54 4.44,-0.82c1.6,-0.29 2.33,-0.33 3.56,-0.6c1.23,-0.28 2.06,-0.37 2.58,-0.79c0.52,-0.43 0.55,-0.89 0.02,-1.32c-0.53,-0.44 -1.33,-0.63 -2.65,-0.87c-1.31,-0.24 -2.13,-0.41 -3.93,-0.33c-1.8,0.09 -3.06,0.19 -5.07,0.74c-2.01,0.54 -3.19,0.99 -4.97,1.99c-1.79,1.01 -2.66,1.62 -3.98,3.06c-1.32,1.43 -1.87,2.37 -2.61,4.13c-0.74,1.77 -0.86,2.79 -1.09,4.69c-0.23,1.9 -0.25,2.85 -0.07,4.8c0.19,1.96 0.42,3.01 0.99,5c0.57,1.99 1.11,3 1.86,4.94c0.76,1.94 1.16,2.88 1.91,4.76c0.76,1.88 1.02,3.05 1.88,4.64c0.85,1.58 1.42,2.41 2.38,3.3c0.96,0.88 1.58,1.09 2.42,1.12c0.83,0.03 1.37,-0.23 1.75,-0.96c0.39,-0.73 0.36,-1.44 0.17,-2.68c-0.19,-1.25 -0.66,-2.02 -1.11,-3.56c-0.45,-1.54 -0.73,-2.42 -1.14,-4.14c-0.41,-1.71 -0.56,-2.71 -0.9,-4.43c-0.35,-1.73 -0.45,-2.75 -0.84,-4.21c-0.39,-1.47 -0.68,-2.09 -1.12,-3.11c-0.43,-1.03 -0.52,-1.65 -1.06,-2.03c-0.54,-0.38 -1.15,-0.39 -1.62,0.13" fill="#5A5A54" id="svg_9" stroke="#ffffff"/>
  <path d="m589.97,66.77c0.61,0.25 1.21,0.18 2.41,-0.12c1.2,-0.31 2,-0.63 3.59,-1.38c1.59,-0.75 2.56,-1.33 4.36,-2.37c1.8,-1.05 2.81,-1.68 4.63,-2.85c1.83,-1.18 2.81,-1.76 4.49,-3.03c1.68,-1.26 2.56,-1.94 3.92,-3.28c1.35,-1.34 2.07,-1.96 2.84,-3.43c0.77,-1.47 1.02,-2.43 1.03,-3.92c0.01,-1.49 -0.15,-2.27 -0.98,-3.54c-0.84,-1.28 -1.63,-2.01 -3.18,-2.84c-1.54,-0.83 -2.48,-0.98 -4.56,-1.3c-2.08,-0.32 -3.36,-0.49 -5.85,-0.3c-2.48,0.19 -3.99,0.46 -6.58,1.25c-2.58,0.79 -3.86,1.44 -6.35,2.71c-2.48,1.26 -3.8,1.9 -6.08,3.62c-2.27,1.73 -3.52,2.86 -5.3,4.99c-1.78,2.13 -2.62,3.32 -3.6,5.67c-0.99,2.35 -1.3,3.61 -1.33,6.08c-0.04,2.48 0.11,3.89 1.14,6.28c1.04,2.39 1.94,3.6 4.04,5.67c2.09,2.06 3.51,3.03 6.44,4.65c2.92,1.61 4.61,2.4 8.18,3.42c3.57,1.03 5.64,1.26 9.68,1.71c4.03,0.45 6.28,0.59 10.48,0.53c4.2,-0.07 6.37,-0.24 10.51,-0.85c4.14,-0.62 6.35,-1.12 10.21,-2.24c3.85,-1.11 5.73,-1.71 9.07,-3.32c3.34,-1.61 4.87,-2.69 7.62,-4.73c2.76,-2.03 4,-3.13 6.15,-5.46c2.16,-2.33 3.19,-3.6 4.62,-6.19c1.42,-2.59 1.84,-4.09 2.52,-6.77c0.68,-2.69 0.81,-3.98 0.87,-6.66c0.07,-2.67 -0.04,-4.12 -0.55,-6.71c-0.5,-2.6 -1.04,-3.98 -1.97,-6.25c-0.93,-2.27 -1.56,-3.29 -2.68,-5.11c-1.11,-1.82 -1.72,-2.65 -2.91,-3.99c-1.18,-1.34 -1.75,-2 -2.99,-2.72c-1.25,-0.72 -2.05,-1 -3.24,-0.88c-1.19,0.13 -1.9,0.52 -2.72,1.51c-0.81,1 -0.99,1.77 -1.35,3.45c-0.37,1.69 -0.43,2.72 -0.47,4.96c-0.05,2.24 0.09,3.54 0.24,6.24c0.14,2.71 0.21,4.25 0.48,7.27c0.28,3.01 0.32,4.61 0.88,7.8c0.55,3.19 0.97,4.97 1.89,8.15c0.91,3.19 1.38,4.84 2.69,7.77c1.31,2.92 2.11,4.27 3.84,6.85c1.73,2.59 2.72,3.91 4.82,6.06c2.09,2.14 3.43,3.27 5.67,4.67c2.23,1.4 3.61,1.84 5.5,2.35c1.89,0.5 3.09,0.39 3.94,0.17c0.85,-0.21 0.89,-0.65 0.32,-1.23c-0.57,-0.58 -1.62,-0.78 -3.15,-1.66c-1.54,-0.89 -2.58,-1.39 -4.51,-2.77c-1.93,-1.38 -3.2,-2.24 -5.15,-4.15c-1.94,-1.91 -2.94,-3.05 -4.58,-5.39c-1.63,-2.34 -2.37,-3.58 -3.6,-6.29c-1.22,-2.72 -1.67,-4.29 -2.51,-7.31c-0.83,-3.01 -1.24,-4.72 -1.67,-7.77c-0.44,-3.05 -0.4,-4.56 -0.51,-7.49c-0.1,-2.94 0.03,-4.52 0,-7.17c-0.03,-2.64 -0.11,-3.94 -0.13,-6.07c-0.02,-2.13 0.06,-3.14 0.01,-4.58c-0.05,-1.44 -0.27,-2.01 -0.26,-2.63c0.01,-0.61 -0.03,-0.57 0.32,-0.44c0.34,0.14 0.68,0.43 1.4,1.13c0.72,0.7 1.25,1.18 2.18,2.38c0.93,1.2 1.52,1.97 2.46,3.63c0.95,1.66 1.47,2.62 2.28,4.67c0.81,2.06 1.29,3.29 1.78,5.59c0.49,2.3 0.67,3.56 0.66,5.91c-0.01,2.35 -0.12,3.49 -0.7,5.85c-0.59,2.35 -1,3.61 -2.23,5.94c-1.23,2.33 -2.04,3.5 -3.93,5.69c-1.9,2.19 -3.02,3.28 -5.54,5.25c-2.51,1.97 -3.92,3.02 -7.04,4.59c-3.13,1.58 -4.9,2.19 -8.58,3.29c-3.68,1.09 -5.84,1.6 -9.84,2.2c-4,0.59 -6.1,0.75 -10.15,0.77c-4.05,0.02 -6.27,-0.16 -10.11,-0.67c-3.84,-0.51 -5.82,-0.8 -9.1,-1.87c-3.29,-1.07 -4.77,-1.91 -7.34,-3.48c-2.57,-1.57 -3.71,-2.6 -5.52,-4.35c-1.81,-1.75 -2.63,-2.55 -3.53,-4.38c-0.89,-1.83 -1,-2.86 -0.96,-4.76c0.04,-1.89 0.27,-2.85 1.16,-4.71c0.89,-1.86 1.69,-2.8 3.3,-4.59c1.61,-1.8 2.7,-2.85 4.75,-4.37c2.05,-1.53 3.24,-2.15 5.48,-3.26c2.25,-1.1 3.46,-1.61 5.76,-2.25c2.3,-0.65 3.59,-0.8 5.74,-0.97c2.16,-0.16 3.32,0.01 5.03,0.15c1.72,0.14 2.42,0.18 3.56,0.56c1.15,0.39 1.63,0.77 2.17,1.35c0.54,0.58 0.62,0.8 0.55,1.58c-0.08,0.78 -0.26,1.36 -0.94,2.32c-0.68,0.96 -1.24,1.41 -2.47,2.46c-1.24,1.05 -2.1,1.7 -3.71,2.79c-1.61,1.09 -2.54,1.65 -4.35,2.67c-1.81,1.02 -2.9,1.47 -4.7,2.44c-1.8,0.97 -2.83,1.47 -4.3,2.4c-1.48,0.93 -2.15,1.44 -3.06,2.25c-0.91,0.82 -1.32,1.18 -1.48,1.82c-0.16,0.63 0.06,1.1 0.68,1.34" fill="#5A5A54" id="svg_10" stroke="#ffffff"/>
  <path d="m684.45,15.71c-0.46,0.3 -0.75,0.57 -1,1.58c-0.25,1.01 -0.33,1.77 -0.25,3.47c0.08,1.7 0.28,2.71 0.64,5.04c0.36,2.33 0.64,3.86 1.17,6.63c0.53,2.76 0.93,4.16 1.48,7.19c0.56,3.03 0.77,4.71 1.28,7.96c0.5,3.26 0.81,4.96 1.26,8.34c0.45,3.37 0.56,5.17 1,8.54c0.44,3.36 0.71,5.08 1.22,8.28c0.51,3.19 0.75,4.8 1.32,7.7c0.57,2.9 0.85,4.42 1.54,6.8c0.7,2.38 1.28,3.52 1.95,5.1c0.67,1.58 0.88,1.97 1.41,2.79c0.54,0.81 0.85,1.11 1.27,1.3c0.42,0.18 0.68,0 0.81,-0.4c0.14,-0.4 -0.04,-0.66 -0.13,-1.59c-0.08,-0.94 0.06,-1.44 -0.29,-3.08c-0.36,-1.63 -0.87,-2.77 -1.48,-5.1c-0.61,-2.33 -0.95,-3.74 -1.58,-6.56c-0.63,-2.81 -1,-4.39 -1.57,-7.52c-0.57,-3.13 -0.84,-4.81 -1.3,-8.15c-0.45,-3.33 -0.54,-5.14 -0.96,-8.53c-0.43,-3.38 -0.73,-5.1 -1.14,-8.39c-0.42,-3.28 -0.59,-4.96 -0.95,-8.03c-0.36,-3.08 -0.52,-4.53 -0.87,-7.33c-0.34,-2.79 -0.5,-4.34 -0.86,-6.66c-0.35,-2.31 -0.54,-3.32 -0.91,-4.91c-0.36,-1.59 -0.55,-2.17 -0.9,-3.05c-0.34,-0.87 -0.39,-1.06 -0.82,-1.34c-0.44,-0.29 -0.87,-0.38 -1.34,-0.08" fill="#dbdb32" id="svg_11" stroke="#ffffff"/>
  <path d="m748.96,55.62c-0.19,-0.77 -0.89,-1.56 -1.94,-2.44c-1.05,-0.88 -1.76,-1.32 -3.31,-1.96c-1.54,-0.64 -2.64,-0.95 -4.44,-1.23c-1.79,-0.28 -2.62,-0.35 -4.54,-0.18c-1.93,0.17 -3.11,0.45 -5.07,1.04c-1.97,0.59 -2.88,1.02 -4.77,1.9c-1.88,0.88 -2.85,1.28 -4.64,2.48c-1.79,1.2 -2.75,1.94 -4.32,3.51c-1.56,1.57 -2.35,2.46 -3.51,4.33c-1.15,1.88 -1.68,2.88 -2.26,5.03c-0.58,2.14 -0.82,3.44 -0.65,5.7c0.18,2.25 0.59,3.46 1.53,5.57c0.94,2.12 1.59,3.22 3.17,5.01c1.57,1.79 2.53,2.63 4.71,3.95c2.18,1.31 3.63,1.85 6.18,2.63c2.56,0.79 3.93,1.11 6.59,1.3c2.66,0.18 4.06,0.04 6.72,-0.36c2.66,-0.41 4.09,-0.71 6.57,-1.69c2.48,-0.98 3.75,-1.79 5.83,-3.2c2.09,-1.41 2.96,-2.15 4.58,-3.86c1.63,-1.72 2.46,-2.73 3.56,-4.71c1.11,-1.99 1.44,-3.08 1.97,-5.23c0.52,-2.14 0.69,-3.39 0.67,-5.51c-0.02,-2.11 -0.39,-3.31 -0.78,-5.06c-0.38,-1.76 -0.42,-2.61 -1.15,-3.69c-0.72,-1.09 -1.59,-1.66 -2.46,-1.76c-0.86,-0.09 -1.39,0.3 -1.85,1.3c-0.47,0.99 -0.59,1.92 -0.47,3.68c0.13,1.75 0.46,2.9 1.09,5.09c0.64,2.18 1.06,3.49 2.09,5.82c1.03,2.32 1.8,3.59 3.06,5.8c1.27,2.21 1.84,3.23 3.27,5.26c1.43,2.04 2.28,3.07 3.87,4.91c1.59,1.83 2.51,2.85 4.07,4.26c1.56,1.42 2.43,2.03 3.74,2.82c1.32,0.8 1.94,0.91 2.84,1.16c0.89,0.24 1.22,0.21 1.63,0.06c0.4,-0.15 0.5,-0.42 0.39,-0.82c-0.1,-0.39 -0.34,-0.53 -0.9,-1.15c-0.57,-0.61 -0.92,-0.95 -1.93,-1.92c-1.02,-0.97 -1.75,-1.52 -3.13,-2.91c-1.39,-1.39 -2.29,-2.33 -3.79,-4.05c-1.5,-1.71 -2.38,-2.61 -3.7,-4.51c-1.32,-1.9 -1.81,-2.89 -2.89,-5c-1.08,-2.1 -1.73,-3.32 -2.53,-5.52c-0.79,-2.21 -0.89,-3.47 -1.44,-5.52c-0.55,-2.04 -0.74,-3.17 -1.29,-4.69c-0.54,-1.53 -0.87,-2.33 -1.45,-2.94c-0.57,-0.62 -1.16,-0.51 -1.41,-0.14c-0.25,0.37 0.04,0.95 0.17,1.98c0.12,1.03 0.25,1.64 0.46,3.16c0.22,1.52 0.57,2.64 0.62,4.45c0.06,1.82 0.02,2.84 -0.36,4.62c-0.38,1.79 -0.62,2.67 -1.53,4.32c-0.91,1.65 -1.61,2.5 -3.02,3.95c-1.42,1.44 -2.2,2.07 -4.05,3.27c-1.84,1.19 -2.99,1.86 -5.18,2.71c-2.18,0.85 -3.42,1.17 -5.74,1.53c-2.32,0.36 -3.54,0.48 -5.86,0.28c-2.31,-0.2 -3.49,-0.58 -5.71,-1.26c-2.23,-0.69 -3.55,-1.13 -5.41,-2.18c-1.86,-1.05 -2.61,-1.64 -3.89,-3.08c-1.28,-1.43 -1.75,-2.4 -2.5,-4.08c-0.76,-1.69 -1.13,-2.6 -1.29,-4.36c-0.16,-1.75 0.03,-2.73 0.5,-4.42c0.48,-1.68 0.9,-2.48 1.89,-4c0.99,-1.52 1.72,-2.26 3.08,-3.59c1.36,-1.33 2.14,-2.04 3.71,-3.08c1.57,-1.04 2.45,-1.37 4.14,-2.12c1.69,-0.76 2.59,-1.11 4.31,-1.64c1.71,-0.53 2.71,-0.87 4.27,-1.01c1.55,-0.15 2.07,-0.02 3.49,0.27c1.43,0.3 2.31,0.73 3.65,1.21c1.33,0.47 1.87,0.77 3.02,1.16c1.15,0.39 1.99,0.91 2.73,0.78c0.75,-0.13 1.18,-0.66 0.99,-1.43" fill="#dbdb32" id="svg_12" stroke="#ffffff"/>
  <path d="m786.04,57.69c-0.42,0.49 -0.37,1.07 -0.53,2.19c-0.16,1.12 -0.31,1.72 -0.27,3.41c0.03,1.7 0.16,2.97 0.45,5.05c0.28,2.09 0.58,3.19 0.97,5.39c0.4,2.2 0.62,3.4 1,5.6c0.38,2.21 0.47,3.41 0.91,5.43c0.44,2.02 0.79,3.19 1.3,4.66c0.51,1.47 0.68,1.98 1.26,2.69c0.58,0.71 0.91,0.85 1.64,0.85c0.72,-0.01 1.26,-0.09 1.99,-0.9c0.72,-0.81 1.1,-1.53 1.63,-3.16c0.54,-1.63 0.64,-2.85 1.04,-4.99c0.39,-2.13 0.47,-3.4 0.94,-5.68c0.46,-2.28 0.74,-3.51 1.39,-5.73c0.64,-2.21 1,-3.34 1.82,-5.36c0.83,-2.02 1.26,-3 2.32,-4.74c1.07,-1.74 1.7,-2.61 3,-3.95c1.3,-1.33 2.06,-1.88 3.51,-2.73c1.46,-0.84 2.28,-1.15 3.77,-1.51c1.49,-0.37 2.17,-0.43 3.69,-0.3c1.52,0.13 2.38,0.29 3.91,0.94c1.54,0.65 2.31,1.09 3.77,2.3c1.46,1.22 2.18,2.07 3.53,3.78c1.34,1.7 2.07,2.63 3.2,4.76c1.12,2.13 1.58,3.45 2.42,5.9c0.84,2.45 1.17,3.88 1.77,6.34c0.61,2.46 0.84,3.63 1.24,5.97c0.41,2.35 0.41,3.64 0.79,5.76c0.38,2.11 0.69,3.26 1.12,4.82c0.42,1.56 0.61,2.07 1.02,2.97c0.4,0.89 0.62,1.25 1.01,1.51c0.39,0.26 0.68,0.18 0.93,-0.2c0.26,-0.38 0.25,-0.71 0.34,-1.69c0.09,-0.98 0.27,-1.6 0.13,-3.21c-0.14,-1.61 -0.51,-2.71 -0.84,-4.83c-0.34,-2.11 -0.44,-3.35 -0.83,-5.74c-0.4,-2.4 -0.57,-3.63 -1.14,-6.23c-0.57,-2.6 -0.82,-4.12 -1.72,-6.77c-0.89,-2.65 -1.46,-4.11 -2.73,-6.47c-1.28,-2.37 -2.09,-3.41 -3.65,-5.34c-1.56,-1.93 -2.36,-2.91 -4.16,-4.33c-1.79,-1.42 -2.85,-2 -4.82,-2.75c-1.97,-0.75 -3.09,-0.89 -5.05,-1c-1.95,-0.12 -2.84,0 -4.73,0.44c-1.9,0.44 -2.92,0.76 -4.74,1.76c-1.81,1.01 -2.77,1.7 -4.34,3.28c-1.58,1.57 -2.3,2.62 -3.53,4.58c-1.24,1.96 -1.68,3.05 -2.63,5.22c-0.96,2.17 -1.36,3.33 -2.14,5.63c-0.79,2.31 -1.14,3.59 -1.79,5.91c-0.65,2.32 -0.96,3.57 -1.47,5.7c-0.51,2.12 -0.89,3.28 -1.08,4.93c-0.19,1.64 -0.08,2.4 0.11,3.27c0.2,0.88 0.54,1.03 0.86,1.1c0.32,0.06 0.57,-0.04 0.73,-0.76c0.16,-0.73 0.25,-1.37 0.07,-2.87c-0.18,-1.5 -0.59,-2.64 -0.96,-4.62c-0.37,-1.98 -0.55,-3.1 -0.89,-5.28c-0.33,-2.17 -0.49,-3.41 -0.77,-5.6c-0.28,-2.18 -0.38,-3.28 -0.63,-5.33c-0.25,-2.04 -0.33,-3.23 -0.61,-4.88c-0.28,-1.64 -0.4,-2.26 -0.79,-3.34c-0.39,-1.09 -0.63,-1.72 -1.18,-2.08c-0.54,-0.37 -1.14,-0.25 -1.56,0.23" fill="#5A5A54" id="svg_13" stroke="#ffffff"/>
  <path d="m891.31,64.86c0.28,-0.65 0.25,-1.47 -0.15,-2.6c-0.4,-1.12 -0.73,-1.86 -1.83,-3.03c-1.11,-1.17 -1.92,-1.95 -3.69,-2.8c-1.77,-0.86 -2.93,-1.17 -5.16,-1.48c-2.22,-0.3 -3.54,-0.23 -5.98,-0.04c-2.45,0.19 -3.69,0.37 -6.23,0.99c-2.55,0.61 -4.01,1.01 -6.51,2.11c-2.51,1.09 -3.84,1.86 -6.01,3.35c-2.17,1.49 -3.04,2.32 -4.85,4.09c-1.8,1.77 -2.82,2.72 -4.18,4.78c-1.35,2.07 -1.97,3.32 -2.59,5.56c-0.62,2.24 -0.62,3.45 -0.51,5.63c0.11,2.19 0.21,3.32 1.06,5.3c0.86,1.97 1.58,3.03 3.22,4.58c1.65,1.54 2.82,2.2 5.02,3.15c2.21,0.95 3.47,1.25 6.01,1.58c2.55,0.32 4.02,0.32 6.72,0.03c2.71,-0.29 4.19,-0.67 6.82,-1.49c2.64,-0.82 4.06,-1.28 6.38,-2.59c2.33,-1.31 3.33,-2.27 5.25,-3.96c1.93,-1.7 2.9,-2.65 4.38,-4.5c1.48,-1.84 1.99,-2.74 3.01,-4.71c1.02,-1.98 1.53,-3.14 2.09,-5.17c0.56,-2.04 0.63,-3.14 0.73,-5.01c0.1,-1.87 0.03,-2.77 -0.23,-4.34c-0.26,-1.56 -0.42,-2.55 -1.07,-3.49c-0.66,-0.93 -1.37,-1.29 -2.21,-1.18c-0.84,0.12 -1.52,0.62 -2,1.78c-0.47,1.15 -0.39,2.14 -0.36,3.99c0.03,1.85 0.27,2.92 0.52,5.25c0.25,2.33 0.33,3.8 0.73,6.39c0.4,2.59 0.68,3.93 1.27,6.56c0.59,2.64 0.87,4.02 1.68,6.63c0.81,2.6 1.25,3.97 2.36,6.38c1.12,2.41 1.87,3.71 3.22,5.68c1.34,1.98 2.29,2.96 3.52,4.21c1.23,1.25 1.76,1.46 2.63,2.04c0.88,0.59 1.25,0.84 1.74,0.88c0.49,0.04 0.73,-0.21 0.72,-0.69c-0.02,-0.49 -0.3,-0.85 -0.78,-1.73c-0.49,-0.88 -0.72,-1.32 -1.64,-2.69c-0.92,-1.37 -1.77,-2.29 -2.95,-4.15c-1.19,-1.86 -1.94,-2.95 -2.97,-5.17c-1.03,-2.21 -1.45,-3.45 -2.18,-5.89c-0.73,-2.44 -1,-3.78 -1.49,-6.3c-0.48,-2.52 -0.68,-3.77 -0.92,-6.28c-0.24,-2.51 -0.1,-3.97 -0.27,-6.29c-0.16,-2.32 -0.22,-3.55 -0.56,-5.3c-0.33,-1.75 -0.68,-2.56 -1.11,-3.46c-0.43,-0.89 -0.68,-1.07 -1.03,-1.03c-0.36,0.05 -0.65,0.38 -0.76,1.24c-0.1,0.87 0.12,1.73 0.23,3.09c0.1,1.35 0.37,2.11 0.3,3.69c-0.07,1.58 -0.19,2.46 -0.67,4.21c-0.48,1.74 -0.86,2.79 -1.73,4.51c-0.87,1.72 -1.28,2.47 -2.62,4.08c-1.33,1.6 -2.31,2.45 -4.04,3.94c-1.73,1.49 -2.55,2.39 -4.6,3.51c-2.06,1.13 -3.33,1.42 -5.69,2.1c-2.37,0.68 -3.74,1.03 -6.13,1.31c-2.4,0.27 -3.66,0.29 -5.83,0.05c-2.17,-0.23 -3.2,-0.51 -5.01,-1.23c-1.81,-0.71 -2.73,-1.22 -4.03,-2.34c-1.31,-1.12 -1.86,-1.79 -2.5,-3.26c-0.65,-1.46 -0.68,-2.34 -0.73,-4.05c-0.05,-1.71 -0.05,-2.7 0.48,-4.5c0.54,-1.8 1.03,-2.77 2.2,-4.51c1.17,-1.74 2.05,-2.64 3.66,-4.19c1.62,-1.55 2.42,-2.29 4.4,-3.57c1.97,-1.28 3.2,-1.88 5.47,-2.83c2.27,-0.95 3.58,-1.35 5.87,-1.9c2.29,-0.54 3.44,-0.68 5.59,-0.83c2.15,-0.14 3.33,-0.14 5.15,0.1c1.81,0.24 2.61,0.49 3.93,1.1c1.31,0.61 1.78,1.18 2.64,1.95c0.86,0.76 1.02,1.2 1.67,1.89c0.65,0.68 0.95,1.34 1.58,1.52c0.62,0.17 1.27,0 1.55,-0.65" fill="#dbdb32" id="svg_14" stroke="#ffffff"/>
 </g>
</svg>