<svg id="canvas"><path d="M 292.02,283.70 C 291.71 283.14, 291.20 282.88, 290.17 282.49 C 289.14 282.10, 288.47 281.77, 286.87 281.74 C 285.28 281.71, 284.23 281.82, 282.18 282.35 C 280.13 282.88, 279.02 283.27, 276.62 284.41 C 274.22 285.54, 272.82 286.26, 270.19 288.01 C 267.55 289.75, 266.22 290.92, 263.42 293.13 C 260.62 295.33, 259.07 296.51, 256.20 299.03 C 253.33 301.55, 251.77 302.89, 249.06 305.73 C 246.35 308.57, 244.96 310.19, 242.65 313.23 C 240.35 316.27, 239.22 317.86, 237.53 320.95 C 235.84 324.04, 235.13 325.62, 234.20 328.69 C 233.27 331.75, 232.94 333.36, 232.89 336.26 C 232.85 339.16, 233.09 340.59, 233.98 343.17 C 234.88 345.76, 235.61 346.98, 237.38 349.20 C 239.16 351.42, 240.28 352.49, 242.85 354.29 C 245.43 356.08, 246.99 356.81, 250.25 358.17 C 253.51 359.54, 255.41 360.06, 259.16 361.13 C 262.90 362.20, 264.82 362.78, 268.98 363.52 C 273.15 364.27, 275.84 364.41, 279.98 364.84 C 284.12 365.27, 286.36 365.62, 289.66 365.67 C 292.96 365.72, 295.11 365.48, 296.48 365.08 C 297.85 364.68, 297.84 364.13, 296.51 363.69 C 295.18 363.24, 293.07 363.18, 289.83 362.85 C 286.58 362.52, 284.34 362.43, 280.27 362.02 C 276.20 361.61, 273.53 361.55, 269.47 360.81 C 265.42 360.07, 263.58 359.45, 259.99 358.33 C 256.41 357.20, 254.58 356.58, 251.56 355.19 C 248.54 353.80, 247.20 353.02, 244.92 351.37 C 242.63 349.73, 241.69 348.82, 240.13 346.96 C 238.58 345.10, 237.92 344.19, 237.15 342.06 C 236.39 339.93, 236.28 338.80, 236.31 336.31 C 236.35 333.82, 236.55 332.38, 237.33 329.60 C 238.10 326.81, 238.66 325.30, 240.19 322.37 C 241.71 319.44, 242.77 317.90, 244.96 314.97 C 247.15 312.04, 248.50 310.45, 251.13 307.72 C 253.77 304.99, 255.30 303.70, 258.15 301.31 C 261.00 298.92, 262.60 297.78, 265.41 295.77 C 268.22 293.76, 269.61 292.76, 272.20 291.25 C 274.79 289.75, 276.15 289.22, 278.37 288.25 C 280.58 287.28, 281.55 286.90, 283.28 286.40 C 285.01 285.90, 285.72 285.88, 287.00 285.76 C 288.28 285.64, 288.73 285.90, 289.68 285.80 C 290.62 285.70, 291.27 285.70, 291.74 285.28 C 292.21 284.86, 292.34 284.26, 292.02 283.70" style="stroke: black; fill: black;"></path><path d="M 346.98,320.13 C 346.93 319.35, 346.42 318.54, 345.57 317.51 C 344.73 316.49, 344.14 315.86, 342.75 315.00 C 341.37 314.14, 340.34 313.67, 338.64 313.22 C 336.94 312.77, 336.12 312.74, 334.26 312.75 C 332.39 312.75, 331.37 312.83, 329.31 313.24 C 327.26 313.65, 326.19 313.97, 323.98 314.80 C 321.77 315.62, 320.63 316.11, 318.28 317.36 C 315.92 318.62, 314.58 319.33, 312.21 321.06 C 309.84 322.79, 308.54 323.86, 306.43 326.02 C 304.33 328.19, 303.33 329.41, 301.66 331.88 C 300.00 334.35, 299.21 335.74, 298.12 338.38 C 297.02 341.01, 296.51 342.48, 296.19 345.04 C 295.87 347.61, 296.03 348.94, 296.50 351.19 C 296.98 353.44, 297.40 354.47, 298.56 356.29 C 299.73 358.11, 300.46 359.01, 302.33 360.29 C 304.21 361.56, 305.53 362.13, 307.93 362.65 C 310.33 363.16, 311.68 363.16, 314.34 362.87 C 317.01 362.59, 318.49 362.25, 321.27 361.23 C 324.04 360.20, 325.54 359.38, 328.19 357.76 C 330.85 356.14, 332.07 355.12, 334.55 353.12 C 337.02 351.12, 338.41 350.05, 340.59 347.78 C 342.76 345.51, 343.81 344.22, 345.43 341.77 C 347.05 339.32, 347.69 337.91, 348.68 335.52 C 349.67 333.13, 350.00 331.89, 350.38 329.81 C 350.77 327.73, 350.93 326.70, 350.59 325.13 C 350.24 323.57, 349.56 322.56, 348.65 321.98 C 347.75 321.40, 347.06 321.69, 346.08 322.21 C 345.09 322.74, 344.40 323.20, 343.72 324.62 C 343.03 326.04, 342.83 327.30, 342.65 329.31 C 342.46 331.32, 342.63 332.40, 342.79 334.67 C 342.96 336.94, 343.01 338.27, 343.47 340.66 C 343.93 343.06, 344.31 344.35, 345.09 346.64 C 345.86 348.93, 346.29 350.03, 347.34 352.12 C 348.40 354.20, 349.00 355.36, 350.36 357.06 C 351.72 358.76, 352.48 359.45, 354.15 360.61 C 355.82 361.78, 356.70 362.32, 358.71 362.90 C 360.73 363.49, 362.04 363.65, 364.23 363.55 C 366.43 363.46, 367.61 363.19, 369.69 362.42 C 371.76 361.66, 372.92 360.92, 374.60 359.72 C 376.28 358.53, 377.14 357.73, 378.09 356.44 C 379.03 355.14, 379.29 354.06, 379.32 353.26 C 379.35 352.46, 378.91 352.27, 378.22 352.46 C 377.53 352.64, 377.03 353.40, 375.86 354.19 C 374.70 354.98, 373.92 355.48, 372.41 356.39 C 370.89 357.31, 369.96 358.07, 368.28 358.75 C 366.60 359.42, 365.73 359.61, 364.00 359.75 C 362.27 359.89, 361.22 359.83, 359.64 359.45 C 358.06 359.08, 357.38 358.77, 356.10 357.86 C 354.82 356.94, 354.29 356.35, 353.22 354.87 C 352.15 353.39, 351.63 352.34, 350.75 350.45 C 349.86 348.57, 349.45 347.54, 348.80 345.44 C 348.15 343.34, 347.84 342.15, 347.50 339.96 C 347.16 337.77, 347.13 336.53, 347.10 334.47 C 347.06 332.41, 347.23 331.41, 347.32 329.66 C 347.42 327.91, 347.48 326.93, 347.56 325.73 C 347.63 324.53, 347.73 324.17, 347.68 323.67 C 347.63 323.16, 347.34 322.85, 347.30 323.21 C 347.25 323.57, 347.49 324.29, 347.44 325.47 C 347.39 326.65, 347.47 327.38, 347.05 329.11 C 346.62 330.83, 346.28 331.96, 345.33 334.08 C 344.38 336.20, 343.76 337.46, 342.29 339.71 C 340.83 341.96, 339.99 343.20, 338.00 345.32 C 336.00 347.44, 334.66 348.48, 332.32 350.32 C 329.98 352.17, 328.77 353.12, 326.29 354.55 C 323.80 355.98, 322.37 356.57, 319.89 357.47 C 317.41 358.36, 316.13 358.73, 313.89 359.02 C 311.64 359.32, 310.59 359.29, 308.67 358.94 C 306.74 358.60, 305.73 358.20, 304.26 357.31 C 302.79 356.42, 302.21 355.86, 301.32 354.51 C 300.43 353.15, 300.13 352.34, 299.82 350.55 C 299.50 348.76, 299.39 347.69, 299.75 345.55 C 300.10 343.41, 300.57 342.16, 301.58 339.85 C 302.59 337.54, 303.28 336.23, 304.80 334.00 C 306.31 331.77, 307.20 330.66, 309.16 328.73 C 311.11 326.80, 312.37 325.91, 314.57 324.35 C 316.78 322.78, 318.01 322.08, 320.18 320.92 C 322.34 319.75, 323.41 319.29, 325.40 318.52 C 327.39 317.75, 328.35 317.46, 330.12 317.05 C 331.90 316.64, 332.79 316.50, 334.27 316.48 C 335.76 316.47, 336.28 316.57, 337.54 316.98 C 338.81 317.40, 339.48 317.90, 340.62 318.56 C 341.76 319.22, 342.21 319.71, 343.24 320.27 C 344.28 320.83, 345.04 321.41, 345.79 321.38 C 346.54 321.36, 347.02 320.90, 346.98 320.13" style="stroke: black; fill: black;"></path><path d="M 379.40,323.77 C 379.08 324.25, 379.21 324.60, 379.23 325.53 C 379.26 326.46, 379.17 327.08, 379.52 328.43 C 379.87 329.79, 380.42 330.65, 381.00 332.29 C 381.58 333.92, 381.87 334.81, 382.41 336.60 C 382.96 338.40, 383.22 339.36, 383.72 341.25 C 384.23 343.14, 384.48 344.20, 384.94 346.05 C 385.39 347.90, 385.66 348.89, 386.01 350.50 C 386.36 352.11, 386.27 352.99, 386.69 354.12 C 387.12 355.25, 387.62 355.93, 388.14 356.16 C 388.67 356.39, 389.04 355.95, 389.31 355.27 C 389.57 354.58, 389.57 354.03, 389.47 352.74 C 389.37 351.45, 389.22 350.60, 388.80 348.81 C 388.39 347.03, 387.87 345.83, 387.39 343.81 C 386.92 341.79, 386.69 340.73, 386.42 338.73 C 386.16 336.73, 386.10 335.70, 386.08 333.80 C 386.06 331.91, 386.04 330.95, 386.33 329.26 C 386.62 327.58, 386.83 326.82, 387.52 325.37 C 388.22 323.92, 388.77 323.24, 389.81 322.01 C 390.85 320.78, 391.42 320.14, 392.71 319.23 C 394.00 318.33, 394.71 317.97, 396.26 317.49 C 397.80 317.02, 398.71 316.91, 400.43 316.84 C 402.15 316.78, 403.03 316.77, 404.86 317.18 C 406.68 317.59, 407.72 317.95, 409.55 318.89 C 411.37 319.82, 412.37 320.43, 413.98 321.84 C 415.58 323.25, 416.32 324.11, 417.56 325.94 C 418.80 327.77, 419.37 328.85, 420.17 330.99 C 420.97 333.13, 421.17 334.34, 421.57 336.64 C 421.97 338.93, 422.02 340.24, 422.18 342.45 C 422.33 344.67, 422.31 345.74, 422.35 347.71 C 422.38 349.68, 422.26 350.86, 422.35 352.30 C 422.44 353.75, 422.50 354.32, 422.78 354.94 C 423.06 355.56, 423.37 355.55, 423.76 355.39 C 424.16 355.24, 424.37 355.06, 424.75 354.17 C 425.13 353.29, 425.38 352.57, 425.67 350.97 C 425.96 349.36, 425.83 348.20, 426.18 346.16 C 426.53 344.11, 426.76 342.94, 427.42 340.73 C 428.08 338.52, 428.58 337.31, 429.49 335.10 C 430.40 332.89, 430.87 331.70, 431.98 329.69 C 433.09 327.68, 433.68 326.71, 435.03 325.04 C 436.38 323.38, 437.23 322.63, 438.72 321.38 C 440.22 320.12, 441.04 319.49, 442.52 318.78 C 443.99 318.06, 444.64 317.88, 446.12 317.79 C 447.59 317.70, 448.50 317.86, 449.89 318.33 C 451.28 318.79, 451.92 319.07, 453.06 320.11 C 454.21 321.15, 454.59 321.92, 455.62 323.53 C 456.65 325.14, 457.26 326.16, 458.22 328.16 C 459.18 330.16, 459.55 331.24, 460.43 333.54 C 461.31 335.85, 461.65 337.24, 462.61 339.67 C 463.57 342.09, 464.15 343.37, 465.22 345.68 C 466.29 347.98, 466.85 349.07, 467.96 351.20 C 469.07 353.33, 469.55 354.53, 470.77 356.32 C 471.99 358.10, 472.82 358.99, 474.06 360.13 C 475.29 361.28, 475.94 361.61, 476.94 362.03 C 477.93 362.46, 478.53 362.42, 479.03 362.27 C 479.53 362.13, 479.60 361.77, 479.46 361.33 C 479.32 360.90, 478.91 360.81, 478.34 360.11 C 477.77 359.40, 477.50 358.96, 476.61 357.79 C 475.72 356.62, 474.95 355.92, 473.89 354.25 C 472.83 352.59, 472.33 351.52, 471.29 349.48 C 470.26 347.45, 469.72 346.34, 468.72 344.09 C 467.73 341.84, 467.22 340.63, 466.32 338.23 C 465.41 335.84, 465.09 334.48, 464.19 332.11 C 463.29 329.75, 462.89 328.54, 461.81 326.39 C 460.74 324.24, 460.10 323.17, 458.81 321.37 C 457.53 319.57, 456.96 318.68, 455.39 317.39 C 453.83 316.11, 452.88 315.56, 450.98 314.95 C 449.08 314.35, 447.87 314.23, 445.89 314.37 C 443.91 314.50, 442.97 314.81, 441.08 315.64 C 439.18 316.47, 438.19 317.11, 436.41 318.52 C 434.62 319.93, 433.71 320.82, 432.16 322.68 C 430.61 324.53, 429.92 325.63, 428.66 327.80 C 427.39 329.97, 426.87 331.20, 425.82 333.52 C 424.78 335.84, 424.26 337.08, 423.42 339.42 C 422.59 341.76, 422.17 343.02, 421.65 345.22 C 421.13 347.43, 420.87 348.64, 420.80 350.46 C 420.73 352.27, 420.83 353.21, 421.29 354.31 C 421.75 355.41, 422.39 355.74, 423.10 355.95 C 423.81 356.17, 424.26 356.08, 424.83 355.39 C 425.40 354.70, 425.69 354.05, 425.95 352.51 C 426.21 350.97, 426.13 349.74, 426.13 347.68 C 426.13 345.62, 426.10 344.54, 425.95 342.20 C 425.80 339.86, 425.82 338.48, 425.38 335.97 C 424.94 333.46, 424.68 332.07, 423.74 329.64 C 422.81 327.21, 422.16 325.95, 420.72 323.81 C 419.28 321.67, 418.43 320.63, 416.55 318.94 C 414.68 317.26, 413.51 316.48, 411.33 315.38 C 409.15 314.28, 407.86 313.90, 405.65 313.45 C 403.44 313.00, 402.37 313.01, 400.27 313.12 C 398.17 313.22, 397.08 313.34, 395.14 313.96 C 393.21 314.58, 392.23 315.08, 390.60 316.21 C 388.97 317.35, 388.25 318.12, 386.98 319.65 C 385.72 321.17, 385.12 322.05, 384.28 323.84 C 383.44 325.63, 383.18 326.63, 382.79 328.62 C 382.41 330.60, 382.42 331.66, 382.36 333.76 C 382.29 335.86, 382.33 336.93, 382.45 339.10 C 382.58 341.28, 382.67 342.46, 382.98 344.64 C 383.30 346.82, 383.52 348.16, 384.03 350.02 C 384.53 351.87, 384.85 352.69, 385.50 353.92 C 386.15 355.15, 386.50 355.71, 387.28 356.17 C 388.06 356.64, 388.81 356.76, 389.39 356.25 C 389.96 355.74, 390.08 354.92, 390.16 353.62 C 390.24 352.33, 390.07 351.49, 389.79 349.79 C 389.52 348.09, 389.23 347.03, 388.78 345.13 C 388.34 343.22, 388.03 342.19, 387.56 340.27 C 387.09 338.35, 386.89 337.41, 386.44 335.52 C 386.00 333.63, 385.90 332.53, 385.34 330.81 C 384.78 329.10, 384.24 328.20, 383.64 326.93 C 383.03 325.66, 382.88 325.21, 382.31 324.45 C 381.74 323.69, 381.38 323.29, 380.80 323.15 C 380.22 323.02, 379.71 323.30, 379.40 323.77" style="stroke: black; fill: black;"></path><path d="M 491.78,327.25 C 491.38 327.65, 491.31 327.99, 491.18 328.94 C 491.06 329.90, 491.02 330.60, 491.15 332.02 C 491.29 333.44, 491.55 334.18, 491.86 336.03 C 492.18 337.89, 492.32 339.16, 492.71 341.30 C 493.10 343.43, 493.34 344.56, 493.81 346.70 C 494.28 348.84, 494.41 350.01, 495.04 352.00 C 495.66 354.00, 496.12 355.24, 496.93 356.68 C 497.74 358.11, 498.41 358.78, 499.07 359.17 C 499.74 359.56, 500.09 359.36, 500.26 358.64 C 500.43 357.93, 500.20 357.12, 499.93 355.59 C 499.65 354.05, 499.32 352.90, 498.89 350.97 C 498.46 349.03, 498.13 347.98, 497.76 345.91 C 497.39 343.84, 497.32 342.75, 497.04 340.62 C 496.76 338.48, 496.70 337.12, 496.36 335.24 C 496.02 333.37, 495.71 332.63, 495.33 331.26 C 494.96 329.89, 494.92 329.26, 494.50 328.40 C 494.08 327.53, 493.76 327.17, 493.21 326.94 C 492.67 326.71, 492.19 326.85, 491.78 327.25" style="stroke: black; fill: black;"></path><path d="M 486.92,298.66 C 487.34 298.74, 487.72 298.27, 487.56 297.88 C 487.39 297.48, 486.51 296.78, 486.09 296.70 C 485.67 296.62, 485.29 297.09, 485.46 297.48 C 485.62 297.87, 486.50 298.58, 486.92 298.66" style="stroke: black; fill: black;"></path><path d="M 520.03,286.08 C 519.53 286.56, 519.39 287.24, 519.09 288.51 C 518.79 289.78, 518.67 290.51, 518.53 292.43 C 518.38 294.36, 518.35 295.65, 518.36 298.15 C 518.38 300.65, 518.45 302.02, 518.61 304.92 C 518.77 307.82, 518.90 309.37, 519.16 312.65 C 519.42 315.94, 519.51 317.84, 519.90 321.35 C 520.30 324.86, 520.58 326.71, 521.12 330.21 C 521.67 333.71, 521.98 335.49, 522.63 338.86 C 523.28 342.22, 523.56 343.89, 524.37 347.04 C 525.18 350.19, 525.60 351.85, 526.67 354.60 C 527.75 357.36, 528.43 358.89, 529.75 360.80 C 531.06 362.72, 532.09 363.26, 533.26 364.18 C 534.43 365.10, 535.00 365.30, 535.61 365.39 C 536.22 365.49, 536.42 365.23, 536.31 364.65 C 536.20 364.07, 535.79 363.65, 535.08 362.51 C 534.36 361.38, 533.75 360.82, 532.75 358.96 C 531.75 357.11, 531.14 355.80, 530.09 353.24 C 529.05 350.68, 528.41 349.17, 527.53 346.17 C 526.65 343.17, 526.36 341.54, 525.69 338.25 C 525.03 334.96, 524.72 333.19, 524.21 329.74 C 523.70 326.30, 523.44 324.48, 523.13 321.02 C 522.82 317.57, 522.76 315.70, 522.66 312.46 C 522.56 309.22, 522.62 307.68, 522.64 304.82 C 522.66 301.96, 522.74 300.62, 522.77 298.16 C 522.80 295.70, 522.86 294.43, 522.79 292.51 C 522.71 290.60, 522.64 289.87, 522.40 288.59 C 522.16 287.31, 522.07 286.63, 521.60 286.12 C 521.12 285.62, 520.53 285.60, 520.03 286.08" style="stroke: black; fill: black;"></path><path d="M 581.90,335.02 C 582.16 334.30, 582.14 333.35, 581.69 332.08 C 581.24 330.80, 580.77 329.97, 579.65 328.64 C 578.53 327.31, 577.80 326.46, 576.08 325.43 C 574.37 324.40, 573.24 324.05, 571.07 323.49 C 568.90 322.94, 567.71 322.79, 565.23 322.66 C 562.76 322.53, 561.28 322.46, 558.70 322.84 C 556.13 323.21, 554.77 323.62, 552.36 324.51 C 549.95 325.41, 548.76 325.99, 546.66 327.31 C 544.56 328.62, 543.47 329.37, 541.87 331.11 C 540.26 332.84, 539.60 333.90, 538.64 335.99 C 537.68 338.08, 537.30 339.24, 537.07 341.55 C 536.83 343.87, 536.86 345.18, 537.46 347.57 C 538.07 349.97, 538.63 351.28, 540.08 353.53 C 541.53 355.79, 542.47 357.02, 544.71 358.84 C 546.94 360.67, 548.34 361.50, 551.25 362.65 C 554.17 363.80, 555.97 364.09, 559.28 364.59 C 562.59 365.09, 564.39 365.23, 567.81 365.15 C 571.22 365.08, 573.04 364.84, 576.36 364.23 C 579.67 363.62, 581.51 363.22, 584.38 362.10 C 587.24 360.99, 588.56 360.30, 590.67 358.67 C 592.77 357.03, 593.65 355.97, 594.91 353.92 C 596.17 351.87, 596.60 350.67, 596.96 348.42 C 597.33 346.16, 597.26 344.92, 596.74 342.64 C 596.23 340.37, 595.67 339.13, 594.40 337.06 C 593.14 334.99, 592.18 334.01, 590.41 332.29 C 588.64 330.57, 587.52 329.78, 585.54 328.47 C 583.56 327.17, 582.40 326.59, 580.50 325.77 C 578.60 324.95, 577.52 324.65, 576.05 324.37 C 574.58 324.08, 573.78 324.12, 573.13 324.35 C 572.47 324.57, 572.39 324.95, 572.76 325.50 C 573.14 326.05, 573.79 326.35, 575.00 327.10 C 576.21 327.85, 577.12 328.31, 578.80 329.24 C 580.47 330.17, 581.60 330.57, 583.38 331.75 C 585.16 332.93, 586.13 333.66, 587.69 335.13 C 589.25 336.60, 590.06 337.43, 591.18 339.11 C 592.29 340.78, 592.77 341.75, 593.26 343.51 C 593.75 345.27, 593.87 346.18, 593.64 347.92 C 593.40 349.65, 593.11 350.58, 592.11 352.18 C 591.10 353.79, 590.42 354.64, 588.62 355.96 C 586.81 357.28, 585.67 357.79, 583.09 358.78 C 580.51 359.77, 578.80 360.31, 575.73 360.91 C 572.66 361.52, 570.92 361.76, 567.75 361.81 C 564.57 361.86, 562.85 361.67, 559.83 361.15 C 556.81 360.63, 555.18 360.26, 552.65 359.20 C 550.11 358.15, 549.01 357.43, 547.14 355.88 C 545.27 354.33, 544.52 353.29, 543.31 351.44 C 542.09 349.59, 541.59 348.53, 541.05 346.62 C 540.52 344.72, 540.46 343.73, 540.63 341.90 C 540.79 340.07, 541.09 339.14, 541.86 337.48 C 542.63 335.81, 543.14 334.97, 544.48 333.57 C 545.83 332.17, 546.76 331.56, 548.60 330.48 C 550.43 329.40, 551.53 328.87, 553.66 328.14 C 555.79 327.41, 556.97 327.11, 559.24 326.83 C 561.51 326.55, 562.85 326.64, 565.03 326.74 C 567.20 326.85, 568.32 326.92, 570.12 327.35 C 571.91 327.77, 572.71 328.06, 573.99 328.86 C 575.28 329.66, 575.64 330.35, 576.56 331.35 C 577.48 332.34, 577.82 332.97, 578.58 333.84 C 579.34 334.70, 579.69 335.43, 580.36 335.66 C 581.02 335.90, 581.63 335.74, 581.90 335.02" style="stroke: black; fill: black;"></path><path d="M 725.87,296.93 C 725.74 296.28, 725.33 295.69, 724.43 295.07 C 723.53 294.46, 722.82 294.21, 721.38 293.85 C 719.94 293.50, 719.02 293.19, 717.23 293.30 C 715.43 293.41, 714.41 293.72, 712.39 294.41 C 710.37 295.10, 709.29 295.56, 707.12 296.75 C 704.94 297.94, 703.76 298.66, 701.51 300.35 C 699.25 302.04, 698.13 303.07, 695.85 305.19 C 693.58 307.32, 692.36 308.56, 690.14 310.95 C 687.92 313.35, 686.75 314.56, 684.75 317.16 C 682.75 319.76, 681.64 321.14, 680.14 323.94 C 678.64 326.73, 677.99 328.26, 677.25 331.15 C 676.52 334.04, 676.27 335.58, 676.45 338.39 C 676.63 341.19, 676.96 342.57, 678.17 345.18 C 679.38 347.80, 680.35 349.22, 682.51 351.48 C 684.66 353.73, 686.03 354.79, 688.94 356.45 C 691.85 358.11, 693.57 358.75, 697.04 359.77 C 700.52 360.79, 702.41 361.18, 706.30 361.57 C 710.18 361.96, 712.34 361.96, 716.45 361.71 C 720.57 361.46, 722.76 361.11, 726.88 360.31 C 731.00 359.50, 733.22 358.90, 737.06 357.67 C 740.91 356.45, 742.75 355.80, 746.09 354.18 C 749.42 352.56, 751.03 351.57, 753.74 349.56 C 756.45 347.55, 757.77 346.46, 759.65 344.13 C 761.52 341.79, 762.18 340.45, 763.13 337.89 C 764.07 335.34, 764.21 333.99, 764.38 331.35 C 764.55 328.71, 764.42 327.32, 763.98 324.69 C 763.54 322.05, 763.11 320.71, 762.19 318.19 C 761.26 315.67, 760.60 314.39, 759.36 312.10 C 758.13 309.80, 757.46 308.73, 756.01 306.74 C 754.56 304.75, 753.79 303.77, 752.11 302.13 C 750.44 300.48, 749.49 299.77, 747.62 298.53 C 745.75 297.30, 744.70 296.70, 742.77 295.93 C 740.84 295.17, 739.67 294.87, 737.97 294.71 C 736.26 294.56, 735.40 294.81, 734.25 295.15 C 733.10 295.49, 732.56 295.93, 732.20 296.41 C 731.85 296.90, 732.03 297.28, 732.49 297.56 C 732.95 297.85, 733.52 297.68, 734.50 297.82 C 735.49 297.96, 736.04 297.93, 737.42 298.25 C 738.79 298.57, 739.73 298.74, 741.37 299.42 C 743.00 300.09, 743.96 300.55, 745.61 301.61 C 747.25 302.67, 748.10 303.25, 749.59 304.71 C 751.07 306.16, 751.73 307.04, 753.01 308.88 C 754.29 310.71, 754.88 311.75, 756.00 313.88 C 757.11 316.01, 757.71 317.24, 758.58 319.53 C 759.44 321.82, 759.86 323.02, 760.32 325.35 C 760.77 327.68, 760.94 328.90, 760.87 331.18 C 760.81 333.46, 760.76 334.58, 759.98 336.74 C 759.20 338.90, 758.59 339.92, 756.96 342.00 C 755.34 344.07, 754.29 345.18, 751.86 347.11 C 749.44 349.04, 747.95 350.04, 744.82 351.64 C 741.70 353.24, 739.92 353.89, 736.23 355.10 C 732.54 356.31, 730.35 356.90, 726.37 357.68 C 722.38 358.45, 720.25 358.77, 716.30 358.97 C 712.35 359.18, 710.28 359.12, 706.61 358.69 C 702.95 358.25, 701.16 357.82, 697.97 356.78 C 694.78 355.75, 693.24 355.07, 690.67 353.51 C 688.11 351.95, 687.01 350.93, 685.15 348.96 C 683.29 346.99, 682.42 345.82, 681.36 343.66 C 680.30 341.51, 679.98 340.51, 679.85 338.19 C 679.73 335.87, 680.09 334.59, 680.76 332.06 C 681.43 329.54, 681.86 328.12, 683.20 325.56 C 684.54 323.00, 685.56 321.69, 687.46 319.25 C 689.35 316.81, 690.50 315.62, 692.68 313.37 C 694.86 311.11, 696.12 309.93, 698.36 307.99 C 700.61 306.04, 701.77 305.17, 703.92 303.64 C 706.06 302.11, 707.13 301.42, 709.09 300.34 C 711.05 299.25, 712.05 298.81, 713.72 298.21 C 715.39 297.61, 716.08 297.39, 717.43 297.34 C 718.79 297.29, 719.34 297.76, 720.49 297.96 C 721.65 298.16, 722.27 298.28, 723.19 298.35 C 724.12 298.43, 724.58 298.61, 725.12 298.32 C 725.65 298.04, 726.01 297.58, 725.87 296.93" style="stroke: black; fill: black;"></path><path d="M 777.84,333.04 C 777.37 333.55, 777.20 334.32, 777.12 335.49 C 777.04 336.65, 777.23 337.34, 777.43 338.87 C 777.63 340.41, 777.73 341.39, 778.11 343.17 C 778.50 344.95, 778.83 346.00, 779.36 347.78 C 779.89 349.55, 780.22 350.49, 780.78 352.05 C 781.33 353.60, 781.56 354.49, 782.14 355.54 C 782.71 356.60, 783.13 357.06, 783.65 357.32 C 784.17 357.59, 784.51 357.37, 784.74 356.87 C 784.96 356.36, 785.03 355.89, 784.77 354.78 C 784.51 353.67, 784.17 352.85, 783.44 351.31 C 782.70 349.77, 782.02 348.82, 781.10 347.08 C 780.18 345.35, 779.68 344.41, 778.84 342.62 C 778.00 340.83, 777.49 339.88, 776.90 338.14 C 776.30 336.39, 776.07 335.54, 775.87 333.89 C 775.67 332.24, 775.73 331.44, 775.90 329.89 C 776.08 328.34, 776.20 327.51, 776.75 326.16 C 777.30 324.80, 777.65 324.14, 778.65 323.10 C 779.66 322.07, 780.31 321.69, 781.79 320.98 C 783.27 320.28, 784.30 320.03, 786.04 319.59 C 787.78 319.14, 788.88 319.05, 790.48 318.77 C 792.08 318.48, 792.81 318.44, 794.04 318.17 C 795.27 317.89, 796.10 317.80, 796.62 317.38 C 797.14 316.95, 797.17 316.49, 796.64 316.06 C 796.11 315.62, 795.31 315.43, 793.99 315.19 C 792.68 314.95, 791.86 314.78, 790.06 314.86 C 788.26 314.95, 787.00 315.05, 784.99 315.60 C 782.98 316.14, 781.80 316.59, 780.02 317.59 C 778.23 318.60, 777.36 319.21, 776.04 320.65 C 774.72 322.08, 774.17 323.02, 773.43 324.78 C 772.69 326.55, 772.57 327.57, 772.34 329.47 C 772.11 331.37, 772.09 332.32, 772.27 334.27 C 772.46 336.23, 772.69 337.28, 773.26 339.27 C 773.83 341.26, 774.37 342.27, 775.12 344.21 C 775.88 346.15, 776.28 347.09, 777.03 348.97 C 777.79 350.85, 778.05 352.02, 778.91 353.61 C 779.76 355.19, 780.33 356.02, 781.29 356.91 C 782.25 357.79, 782.87 358.00, 783.71 358.03 C 784.54 358.06, 785.08 357.80, 785.46 357.07 C 785.85 356.34, 785.82 355.63, 785.63 354.39 C 785.44 353.14, 784.97 352.37, 784.52 350.83 C 784.07 349.29, 783.79 348.41, 783.38 346.69 C 782.97 344.98, 782.82 343.98, 782.48 342.26 C 782.13 340.53, 782.03 339.51, 781.64 338.05 C 781.25 336.58, 780.96 335.96, 780.52 334.94 C 780.09 333.91, 780.00 333.29, 779.46 332.91 C 778.92 332.53, 778.31 332.52, 777.84 333.04" style="stroke: black; fill: black;"></path><path d="M 819.97,345.34 C 820.58 345.59, 821.18 345.52, 822.38 345.22 C 823.58 344.91, 824.38 344.59, 825.97 343.84 C 827.56 343.09, 828.53 342.51, 830.33 341.47 C 832.13 340.42, 833.14 339.79, 834.96 338.62 C 836.79 337.44, 837.77 336.86, 839.45 335.59 C 841.13 334.33, 842.01 333.65, 843.37 332.31 C 844.72 330.97, 845.44 330.35, 846.21 328.88 C 846.98 327.41, 847.23 326.45, 847.24 324.96 C 847.25 323.47, 847.09 322.69, 846.26 321.42 C 845.42 320.14, 844.63 319.41, 843.08 318.58 C 841.54 317.75, 840.60 317.60, 838.52 317.28 C 836.44 316.96, 835.16 316.79, 832.67 316.98 C 830.19 317.17, 828.68 317.44, 826.09 318.23 C 823.51 319.02, 822.23 319.67, 819.74 320.94 C 817.26 322.20, 815.94 322.84, 813.66 324.56 C 811.39 326.29, 810.14 327.42, 808.36 329.55 C 806.58 331.68, 805.74 332.87, 804.76 335.22 C 803.77 337.57, 803.46 338.83, 803.43 341.30 C 803.39 343.78, 803.54 345.19, 804.57 347.58 C 805.61 349.97, 806.51 351.18, 808.61 353.25 C 810.70 355.31, 812.12 356.28, 815.05 357.90 C 817.97 359.51, 819.66 360.30, 823.23 361.32 C 826.80 362.35, 828.87 362.58, 832.91 363.03 C 836.94 363.48, 839.19 363.62, 843.39 363.56 C 847.59 363.49, 849.76 363.32, 853.90 362.71 C 858.04 362.09, 860.25 361.59, 864.11 360.47 C 867.96 359.36, 869.84 358.76, 873.18 357.15 C 876.52 355.54, 878.05 354.46, 880.80 352.42 C 883.56 350.39, 884.80 349.29, 886.95 346.96 C 889.11 344.63, 890.14 343.36, 891.57 340.77 C 892.99 338.18, 893.41 336.68, 894.09 334.00 C 894.77 331.31, 894.90 330.02, 894.96 327.34 C 895.03 324.67, 894.92 323.22, 894.41 320.63 C 893.91 318.03, 893.37 316.65, 892.44 314.38 C 891.51 312.11, 890.88 311.09, 889.76 309.27 C 888.65 307.45, 888.04 306.62, 886.85 305.28 C 885.67 303.94, 885.10 303.28, 883.86 302.56 C 882.61 301.84, 881.81 301.56, 880.62 301.68 C 879.43 301.81, 878.72 302.20, 877.90 303.19 C 877.09 304.19, 876.91 304.96, 876.55 306.64 C 876.18 308.33, 876.12 309.36, 876.08 311.60 C 876.03 313.84, 876.17 315.14, 876.32 317.84 C 876.46 320.55, 876.53 322.09, 876.80 325.11 C 877.08 328.12, 877.12 329.72, 877.68 332.91 C 878.23 336.10, 878.65 337.88, 879.57 341.06 C 880.48 344.25, 880.95 345.90, 882.26 348.83 C 883.57 351.75, 884.37 353.10, 886.10 355.68 C 887.83 358.27, 888.82 359.59, 890.92 361.74 C 893.01 363.88, 894.35 365.01, 896.59 366.41 C 898.82 367.81, 900.20 368.25, 902.09 368.76 C 903.98 369.26, 905.18 369.15, 906.03 368.93 C 906.88 368.72, 906.92 368.28, 906.35 367.70 C 905.78 367.12, 904.73 366.92, 903.20 366.04 C 901.66 365.15, 900.62 364.65, 898.69 363.27 C 896.76 361.89, 895.49 361.03, 893.54 359.12 C 891.60 357.21, 890.60 356.07, 888.96 353.73 C 887.33 351.39, 886.59 350.15, 885.36 347.44 C 884.14 344.72, 883.69 343.15, 882.85 340.13 C 882.02 337.12, 881.61 335.41, 881.18 332.36 C 880.74 329.31, 880.78 327.80, 880.67 324.87 C 880.57 321.93, 880.70 320.35, 880.67 317.70 C 880.64 315.06, 880.56 313.76, 880.54 311.63 C 880.52 309.50, 880.60 308.49, 880.55 307.05 C 880.50 305.61, 880.28 305.04, 880.29 304.42 C 880.30 303.81, 880.26 303.85, 880.61 303.98 C 880.95 304.12, 881.29 304.41, 882.01 305.11 C 882.73 305.81, 883.26 306.29, 884.19 307.49 C 885.12 308.69, 885.71 309.46, 886.65 311.12 C 887.60 312.78, 888.12 313.74, 888.93 315.79 C 889.74 317.85, 890.22 319.08, 890.71 321.38 C 891.20 323.68, 891.38 324.94, 891.37 327.29 C 891.36 329.64, 891.25 330.78, 890.67 333.14 C 890.08 335.49, 889.67 336.75, 888.44 339.08 C 887.21 341.41, 886.40 342.58, 884.51 344.77 C 882.61 346.96, 881.49 348.05, 878.97 350.02 C 876.46 351.99, 875.05 353.04, 871.93 354.61 C 868.80 356.19, 867.03 356.80, 863.35 357.90 C 859.67 358.99, 857.51 359.50, 853.51 360.10 C 849.51 360.69, 847.41 360.85, 843.36 360.87 C 839.31 360.89, 837.09 360.71, 833.25 360.20 C 829.41 359.69, 827.43 359.40, 824.15 358.33 C 820.86 357.26, 819.38 356.42, 816.81 354.85 C 814.24 353.28, 813.10 352.25, 811.29 350.50 C 809.48 348.75, 808.66 347.95, 807.76 346.12 C 806.87 344.29, 806.76 343.26, 806.80 341.36 C 806.84 339.47, 807.07 338.51, 807.96 336.65 C 808.85 334.79, 809.65 333.85, 811.26 332.06 C 812.87 330.26, 813.96 329.21, 816.01 327.69 C 818.06 326.16, 819.25 325.54, 821.49 324.43 C 823.74 323.33, 824.95 322.82, 827.25 322.18 C 829.55 321.53, 830.84 321.38, 832.99 321.21 C 835.15 321.05, 836.31 321.22, 838.02 321.36 C 839.74 321.50, 840.44 321.54, 841.58 321.92 C 842.73 322.31, 843.21 322.69, 843.75 323.27 C 844.29 323.85, 844.37 324.07, 844.30 324.85 C 844.22 325.63, 844.04 326.21, 843.36 327.17 C 842.68 328.13, 842.12 328.58, 840.89 329.63 C 839.65 330.68, 838.79 331.33, 837.18 332.42 C 835.57 333.51, 834.64 334.07, 832.83 335.09 C 831.02 336.11, 829.93 336.56, 828.13 337.53 C 826.33 338.50, 825.30 339.00, 823.83 339.93 C 822.35 340.86, 821.68 341.37, 820.77 342.18 C 819.86 343.00, 819.45 343.36, 819.29 344.00 C 819.13 344.63, 819.35 345.10, 819.97 345.34" style="stroke: black; fill: black;"></path><path d="M 914.45,294.28 C 913.99 294.58, 913.70 294.85, 913.45 295.86 C 913.20 296.87, 913.12 297.63, 913.20 299.33 C 913.28 301.03, 913.48 302.04, 913.84 304.37 C 914.20 306.70, 914.48 308.23, 915.01 311.00 C 915.54 313.76, 915.94 315.16, 916.49 318.19 C 917.05 321.22, 917.26 322.90, 917.77 326.15 C 918.27 329.41, 918.58 331.11, 919.03 334.49 C 919.48 337.86, 919.59 339.66, 920.03 343.03 C 920.47 346.39, 920.74 348.11, 921.25 351.31 C 921.76 354.50, 922.00 356.11, 922.57 359.01 C 923.14 361.91, 923.42 363.43, 924.11 365.81 C 924.81 368.19, 925.39 369.33, 926.06 370.91 C 926.73 372.49, 926.94 372.88, 927.47 373.70 C 928.01 374.51, 928.32 374.81, 928.74 375.00 C 929.16 375.18, 929.42 375.00, 929.55 374.60 C 929.69 374.20, 929.51 373.94, 929.42 373.01 C 929.34 372.07, 929.48 371.57, 929.13 369.93 C 928.77 368.30, 928.26 367.16, 927.65 364.83 C 927.04 362.50, 926.70 361.09, 926.07 358.27 C 925.44 355.46, 925.07 353.88, 924.50 350.75 C 923.93 347.62, 923.66 345.94, 923.20 342.60 C 922.75 339.27, 922.66 337.46, 922.24 334.07 C 921.81 330.69, 921.51 328.97, 921.10 325.68 C 920.68 322.40, 920.51 320.72, 920.15 317.65 C 919.79 314.57, 919.63 313.12, 919.28 310.32 C 918.94 307.53, 918.78 305.98, 918.42 303.66 C 918.07 301.35, 917.88 300.34, 917.51 298.75 C 917.15 297.16, 916.96 296.58, 916.61 295.70 C 916.27 294.83, 916.22 294.64, 915.79 294.36 C 915.35 294.07, 914.92 293.98, 914.45 294.28" style="stroke: black; fill: black;"></path><path d="M 978.96,334.19 C 978.77 333.42, 978.07 332.63, 977.02 331.75 C 975.97 330.87, 975.26 330.43, 973.71 329.79 C 972.17 329.15, 971.07 328.84, 969.27 328.56 C 967.48 328.28, 966.65 328.21, 964.73 328.38 C 962.80 328.55, 961.62 328.83, 959.66 329.42 C 957.69 330.01, 956.78 330.44, 954.89 331.32 C 953.01 332.20, 952.04 332.60, 950.25 333.80 C 948.46 335.00, 947.50 335.74, 945.93 337.31 C 944.37 338.88, 943.58 339.77, 942.42 341.64 C 941.27 343.52, 940.74 344.52, 940.16 346.67 C 939.58 348.81, 939.34 350.11, 939.51 352.37 C 939.69 354.62, 940.10 355.83, 941.04 357.94 C 941.98 360.06, 942.63 361.16, 944.21 362.95 C 945.78 364.74, 946.74 365.58, 948.92 366.90 C 951.10 368.21, 952.55 368.75, 955.10 369.53 C 957.66 370.32, 959.03 370.64, 961.69 370.83 C 964.35 371.01, 965.75 370.87, 968.41 370.47 C 971.07 370.06, 972.50 369.76, 974.98 368.78 C 977.46 367.80, 978.73 366.99, 980.81 365.58 C 982.90 364.17, 983.77 363.43, 985.39 361.72 C 987.02 360.00, 987.85 358.99, 988.95 357.01 C 990.06 355.02, 990.39 353.93, 990.92 351.78 C 991.44 349.64, 991.61 348.39, 991.59 346.27 C 991.57 344.16, 991.20 342.96, 990.81 341.21 C 990.43 339.45, 990.39 338.60, 989.66 337.52 C 988.94 336.43, 988.07 335.86, 987.20 335.76 C 986.34 335.67, 985.81 336.06, 985.35 337.06 C 984.88 338.05, 984.76 338.98, 984.88 340.74 C 985.01 342.49, 985.34 343.64, 985.97 345.83 C 986.61 348.01, 987.03 349.32, 988.06 351.65 C 989.09 353.97, 989.86 355.24, 991.12 357.45 C 992.39 359.66, 992.96 360.68, 994.39 362.71 C 995.82 364.75, 996.67 365.78, 998.26 367.62 C 999.85 369.45, 1000.77 370.47, 1002.33 371.88 C 1003.89 373.30, 1004.76 373.91, 1006.07 374.70 C 1007.39 375.50, 1008.01 375.61, 1008.91 375.86 C 1009.80 376.10, 1010.13 376.07, 1010.54 375.92 C 1010.94 375.77, 1011.04 375.50, 1010.93 375.10 C 1010.83 374.71, 1010.59 374.57, 1010.03 373.95 C 1009.46 373.34, 1009.11 373.00, 1008.10 372.03 C 1007.08 371.06, 1006.35 370.51, 1004.97 369.12 C 1003.58 367.73, 1002.68 366.79, 1001.18 365.07 C 999.68 363.36, 998.80 362.46, 997.48 360.56 C 996.16 358.66, 995.67 357.67, 994.59 355.56 C 993.51 353.46, 992.86 352.24, 992.06 350.04 C 991.27 347.83, 991.17 346.57, 990.62 344.52 C 990.07 342.48, 989.88 341.35, 989.33 339.83 C 988.79 338.30, 988.46 337.50, 987.88 336.89 C 987.31 336.27, 986.72 336.38, 986.47 336.75 C 986.22 337.12, 986.51 337.70, 986.64 338.73 C 986.76 339.76, 986.89 340.37, 987.10 341.89 C 987.32 343.41, 987.67 344.53, 987.72 346.34 C 987.78 348.16, 987.74 349.18, 987.36 350.96 C 986.98 352.75, 986.74 353.63, 985.83 355.28 C 984.92 356.93, 984.22 357.78, 982.81 359.23 C 981.39 360.67, 980.61 361.30, 978.76 362.50 C 976.92 363.69, 975.77 364.36, 973.58 365.21 C 971.40 366.06, 970.16 366.38, 967.84 366.74 C 965.52 367.10, 964.30 367.22, 961.98 367.02 C 959.67 366.82, 958.49 366.44, 956.27 365.76 C 954.04 365.07, 952.72 364.63, 950.86 363.58 C 949.00 362.53, 948.25 361.94, 946.97 360.50 C 945.69 359.07, 945.22 358.10, 944.47 356.42 C 943.71 354.73, 943.34 353.82, 943.18 352.06 C 943.02 350.31, 943.21 349.33, 943.68 347.64 C 944.16 345.96, 944.58 345.16, 945.57 343.64 C 946.56 342.12, 947.29 341.38, 948.65 340.05 C 950.01 338.72, 950.79 338.01, 952.36 336.97 C 953.93 335.93, 954.81 335.60, 956.50 334.85 C 958.19 334.09, 959.09 333.74, 960.81 333.21 C 962.52 332.68, 963.52 332.34, 965.08 332.20 C 966.63 332.05, 967.15 332.18, 968.57 332.47 C 970.00 332.77, 970.88 333.20, 972.22 333.68 C 973.55 334.15, 974.09 334.45, 975.24 334.84 C 976.39 335.23, 977.23 335.75, 977.97 335.62 C 978.72 335.49, 979.15 334.96, 978.96 334.19" style="stroke: black; fill: black;"></path><path d="M 1016.04,336.26 C 1015.62 336.75, 1015.67 337.33, 1015.51 338.45 C 1015.35 339.57, 1015.20 340.17, 1015.24 341.86 C 1015.27 343.56, 1015.40 344.83, 1015.69 346.91 C 1015.97 349.00, 1016.27 350.10, 1016.66 352.30 C 1017.06 354.50, 1017.28 355.70, 1017.66 357.90 C 1018.04 360.11, 1018.13 361.31, 1018.57 363.33 C 1019.01 365.35, 1019.36 366.52, 1019.87 367.99 C 1020.38 369.46, 1020.55 369.97, 1021.13 370.68 C 1021.71 371.39, 1022.04 371.53, 1022.77 371.53 C 1023.49 371.52, 1024.03 371.44, 1024.76 370.63 C 1025.48 369.82, 1025.86 369.10, 1026.39 367.47 C 1026.93 365.84, 1027.03 364.62, 1027.43 362.48 C 1027.82 360.35, 1027.90 359.08, 1028.37 356.80 C 1028.83 354.52, 1029.11 353.29, 1029.76 351.07 C 1030.40 348.86, 1030.76 347.73, 1031.58 345.71 C 1032.41 343.69, 1032.84 342.71, 1033.90 340.97 C 1034.97 339.23, 1035.60 338.36, 1036.90 337.02 C 1038.20 335.69, 1038.96 335.14, 1040.41 334.29 C 1041.87 333.45, 1042.69 333.14, 1044.18 332.78 C 1045.67 332.41, 1046.35 332.35, 1047.87 332.48 C 1049.39 332.61, 1050.25 332.77, 1051.78 333.42 C 1053.32 334.07, 1054.09 334.51, 1055.55 335.72 C 1057.01 336.94, 1057.73 337.79, 1059.08 339.50 C 1060.42 341.20, 1061.15 342.13, 1062.28 344.26 C 1063.40 346.39, 1063.86 347.71, 1064.70 350.16 C 1065.54 352.61, 1065.87 354.04, 1066.47 356.50 C 1067.08 358.96, 1067.31 360.13, 1067.71 362.47 C 1068.12 364.82, 1068.12 366.11, 1068.50 368.23 C 1068.88 370.34, 1069.19 371.49, 1069.62 373.05 C 1070.04 374.61, 1070.23 375.12, 1070.64 376.02 C 1071.04 376.91, 1071.26 377.27, 1071.65 377.53 C 1072.04 377.79, 1072.33 377.71, 1072.58 377.33 C 1072.84 376.95, 1072.83 376.62, 1072.92 375.64 C 1073.01 374.66, 1073.19 374.04, 1073.05 372.43 C 1072.91 370.82, 1072.54 369.72, 1072.21 367.60 C 1071.87 365.49, 1071.77 364.25, 1071.38 361.86 C 1070.98 359.46, 1070.81 358.23, 1070.24 355.63 C 1069.67 353.03, 1069.42 351.51, 1068.52 348.86 C 1067.63 346.21, 1067.06 344.75, 1065.79 342.39 C 1064.51 340.02, 1063.70 338.98, 1062.14 337.05 C 1060.58 335.12, 1059.78 334.14, 1057.98 332.72 C 1056.19 331.30, 1055.13 330.72, 1053.16 329.97 C 1051.19 329.22, 1050.07 329.08, 1048.11 328.97 C 1046.16 328.85, 1045.27 328.97, 1043.38 329.41 C 1041.48 329.85, 1040.46 330.17, 1038.64 331.17 C 1036.83 332.18, 1035.87 332.87, 1034.30 334.45 C 1032.72 336.02, 1032.00 337.07, 1030.77 339.03 C 1029.53 340.99, 1029.09 342.08, 1028.14 344.25 C 1027.18 346.42, 1026.78 347.58, 1026.00 349.88 C 1025.21 352.19, 1024.86 353.47, 1024.21 355.79 C 1023.56 358.11, 1023.25 359.36, 1022.74 361.49 C 1022.23 363.61, 1021.85 364.77, 1021.66 366.42 C 1021.47 368.06, 1021.58 368.82, 1021.77 369.69 C 1021.97 370.57, 1022.31 370.72, 1022.63 370.79 C 1022.95 370.85, 1023.20 370.75, 1023.36 370.03 C 1023.52 369.30, 1023.61 368.66, 1023.43 367.16 C 1023.25 365.66, 1022.84 364.52, 1022.47 362.54 C 1022.10 360.56, 1021.92 359.44, 1021.58 357.26 C 1021.25 355.09, 1021.09 353.85, 1020.81 351.66 C 1020.53 349.48, 1020.43 348.38, 1020.18 346.33 C 1019.93 344.29, 1019.85 343.10, 1019.57 341.45 C 1019.29 339.81, 1019.17 339.19, 1018.78 338.11 C 1018.39 337.02, 1018.15 336.39, 1017.60 336.03 C 1017.06 335.66, 1016.46 335.78, 1016.04 336.26" style="stroke: black; fill: black;"></path><path d="M 1121.31,343.43 C 1121.59 342.78, 1121.56 341.96, 1121.16 340.83 C 1120.76 339.71, 1120.43 338.97, 1119.33 337.80 C 1118.22 336.63, 1117.41 335.85, 1115.64 335.00 C 1113.87 334.14, 1112.71 333.83, 1110.48 333.52 C 1108.26 333.22, 1106.94 333.29, 1104.50 333.48 C 1102.05 333.67, 1100.81 333.85, 1098.27 334.47 C 1095.72 335.08, 1094.26 335.48, 1091.76 336.58 C 1089.25 337.67, 1087.92 338.44, 1085.75 339.93 C 1083.58 341.42, 1082.71 342.25, 1080.90 344.02 C 1079.10 345.79, 1078.08 346.74, 1076.72 348.80 C 1075.37 350.87, 1074.75 352.12, 1074.13 354.36 C 1073.51 356.60, 1073.51 357.81, 1073.62 359.99 C 1073.73 362.18, 1073.83 363.31, 1074.68 365.29 C 1075.54 367.26, 1076.26 368.32, 1077.90 369.87 C 1079.55 371.41, 1080.72 372.07, 1082.92 373.02 C 1085.13 373.97, 1086.39 374.27, 1088.93 374.60 C 1091.48 374.92, 1092.95 374.92, 1095.65 374.63 C 1098.36 374.34, 1099.84 373.96, 1102.47 373.14 C 1105.11 372.32, 1106.53 371.86, 1108.85 370.55 C 1111.18 369.24, 1112.18 368.28, 1114.10 366.59 C 1116.03 364.89, 1117.00 363.94, 1118.48 362.09 C 1119.96 360.25, 1120.47 359.35, 1121.49 357.38 C 1122.51 355.40, 1123.02 354.24, 1123.58 352.21 C 1124.14 350.17, 1124.21 349.07, 1124.31 347.20 C 1124.41 345.33, 1124.34 344.43, 1124.08 342.86 C 1123.82 341.30, 1123.66 340.31, 1123.01 339.37 C 1122.35 338.44, 1121.64 338.08, 1120.80 338.19 C 1119.96 338.31, 1119.28 338.81, 1118.80 339.97 C 1118.33 341.12, 1118.41 342.11, 1118.44 343.96 C 1118.47 345.81, 1118.71 346.88, 1118.96 349.21 C 1119.21 351.54, 1119.29 353.01, 1119.69 355.60 C 1120.09 358.19, 1120.37 359.53, 1120.96 362.16 C 1121.55 364.80, 1121.83 366.18, 1122.64 368.79 C 1123.45 371.39, 1123.89 372.76, 1125.00 375.17 C 1126.12 377.58, 1126.87 378.88, 1128.22 380.85 C 1129.56 382.83, 1130.51 383.81, 1131.74 385.06 C 1132.97 386.31, 1133.50 386.52, 1134.37 387.10 C 1135.25 387.69, 1135.62 387.94, 1136.11 387.98 C 1136.60 388.02, 1136.84 387.77, 1136.83 387.29 C 1136.81 386.80, 1136.53 386.44, 1136.05 385.56 C 1135.56 384.68, 1135.33 384.24, 1134.41 382.87 C 1133.49 381.50, 1132.64 380.58, 1131.46 378.72 C 1130.27 376.86, 1129.52 375.77, 1128.49 373.55 C 1127.46 371.34, 1127.04 370.10, 1126.31 367.66 C 1125.58 365.22, 1125.31 363.88, 1124.82 361.36 C 1124.34 358.84, 1124.14 357.59, 1123.90 355.08 C 1123.66 352.57, 1123.80 351.11, 1123.63 348.79 C 1123.47 346.47, 1123.41 345.24, 1123.07 343.49 C 1122.74 341.74, 1122.39 340.93, 1121.96 340.03 C 1121.53 339.14, 1121.28 338.96, 1120.93 339.00 C 1120.57 339.05, 1120.28 339.38, 1120.17 340.24 C 1120.07 341.11, 1120.29 341.97, 1120.40 343.33 C 1120.50 344.68, 1120.77 345.44, 1120.70 347.02 C 1120.63 348.60, 1120.51 349.48, 1120.03 351.23 C 1119.55 352.97, 1119.17 354.02, 1118.30 355.74 C 1117.43 357.46, 1117.02 358.21, 1115.68 359.82 C 1114.35 361.42, 1113.37 362.27, 1111.64 363.76 C 1109.91 365.25, 1109.09 366.15, 1107.04 367.27 C 1104.98 368.40, 1103.71 368.69, 1101.35 369.37 C 1098.98 370.05, 1097.61 370.40, 1095.22 370.68 C 1092.82 370.95, 1091.56 370.97, 1089.39 370.73 C 1087.22 370.50, 1086.19 370.22, 1084.38 369.50 C 1082.57 368.79, 1081.65 368.28, 1080.35 367.16 C 1079.04 366.04, 1078.49 365.37, 1077.85 363.90 C 1077.20 362.44, 1077.17 361.56, 1077.12 359.85 C 1077.07 358.14, 1077.07 357.15, 1077.60 355.35 C 1078.14 353.55, 1078.63 352.58, 1079.80 350.84 C 1080.97 349.10, 1081.85 348.20, 1083.46 346.65 C 1085.08 345.10, 1085.88 344.36, 1087.86 343.08 C 1089.83 341.80, 1091.06 341.20, 1093.33 340.25 C 1095.60 339.30, 1096.91 338.90, 1099.20 338.35 C 1101.49 337.81, 1102.64 337.67, 1104.79 337.52 C 1106.94 337.38, 1108.12 337.38, 1109.94 337.62 C 1111.75 337.86, 1112.55 338.11, 1113.87 338.72 C 1115.18 339.33, 1115.65 339.90, 1116.51 340.67 C 1117.37 341.43, 1117.53 341.87, 1118.18 342.56 C 1118.83 343.24, 1119.13 343.90, 1119.76 344.08 C 1120.38 344.25, 1121.03 344.08, 1121.31 343.43" style="stroke: black; fill: black;"></path></svg>