<?xml version="1.0" encoding="utf-8"?>
<!-- Generator: Adobe Illustrator 18.1.1, SVG Export Plug-In . SVG Version: 6.00 Build 0)  -->
<svg version="1.1" id="Layer_1" xmlns="http://www.w3.org/2000/svg" xmlns:xlink="http://www.w3.org/1999/xlink" x="0px" y="0px"
	 viewBox="0 0 1200 500" enable-background="new 0 0 1200 500" xml:space="preserve">
<g id="XMLID_1_">
	<g>
		<rect x="57" y="24.9" fill="#b89326" width="1101" height="459"/>
	</g>
	<g>
		<rect x="57" y="24.9" fill="none" stroke="#b89326" stroke-width="11" stroke-miterlimit="10" width="1101" height="459"/>
	</g>
</g>
<g>
	<g>
		<path fill="#AD8A24" d="M59.5,30.1c18.1,9.6,36.1,19.3,54.2,28.9c43.4,23.2,86.8,46.3,130.2,69.5c52.5,28,105,56.1,157.5,84.1
			c45.4,24.2,90.7,48.5,136.1,72.7c22,11.7,43.8,24,66.1,35.3c0.3,0.2,0.6,0.3,0.9,0.5c6.8,3.6,12.9-6.7,6.1-10.4
			c-18.1-9.6-36.1-19.3-54.2-28.9c-43.4-23.2-86.8-46.3-130.2-69.5c-52.5-28-105-56.1-157.5-84.1c-45.4-24.2-90.7-48.5-136.1-72.7
			c-22-11.7-43.8-24-66.1-35.3c-0.3-0.2-0.6-0.3-0.9-0.5C58.8,16.1,52.7,26.4,59.5,30.1L59.5,30.1z"/>
	</g>
</g>
<line fill="none" stroke="#AD8A24" stroke-width="11" stroke-miterlimit="10" x1="607.5" y1="315.9" x2="1158" y2="24.9"/>
<rect x="-17.5" y="-52.1" fill="none" width="352.5" height="71"/>
</svg>
