<?xml version="1.0" encoding="utf-8"?>
<!-- Generator: Adobe Illustrator 18.1.1, SVG Export Plug-In . SVG Version: 6.00 Build 0)  -->
<svg version="1.1" id="Layer_1" xmlns="http://www.w3.org/2000/svg" xmlns:xlink="http://www.w3.org/1999/xlink" x="0px" y="0px"
	 viewBox="0 0 500 500" enable-background="new 0 0 500 500" xml:space="preserve">
<rect x="213.4" y="13.9" transform="matrix(-0.5828 -0.8126 0.8126 -0.5828 434.4532 281.5036)" fill="none" width="152.2" height="30.7"/>
<image overflow="visible" width="352" height="173" xlink:href="1A88D961.jpg"  transform="matrix(1.4205 0 0 2.8902 0 0)">
</image>
<path fill="#B89326" d="M232,369.1c19.1-10.6,38.3-22.6,57.2-36.1c132-94.7,197.4-229.6,197.4-229.6s-148.7,18.7-280.7,113.4
	c-18.9,13.5-36.4,27.9-52.5,42.6L232,369.1z"/>
<circle fill="#142B43" cx="384.1" cy="176.9" r="26.9"/>
<path fill="#B89326" d="M245.8,261.7c-5.6-5.9-28.9-29.2-66.9-32.2c-44.1-3.5-73.7,23.1-78.6,27.6c17.4,24.5,34.7,49.1,52.1,73.6
	C183.6,307.7,214.7,284.7,245.8,261.7z"/>
<path fill="#B89326" d="M256.8,280c4,7,19.7,36,11.8,73.2c-9.2,43.2-43.1,64.1-48.8,67.5c-18.6-23.6-37.2-47.3-55.7-70.9
	C195,326.5,225.9,303.3,256.8,280z"/>
<path fill="#B89326" d="M326.5,171.1"/>
<path fill="#B89326" d="M107.5,272.7c27.5-18.1,20.3,3.8,28.1,15.7c7.8,11.9,19.4,18.1-8.1,36.2S36.1,354,36.1,354
	S80,290.8,107.5,272.7z"/>
<path fill="#B89326" d="M183.3,352c27.5-18.1,20.3,3.8,28.1,15.7c7.8,11.9,19.4,18.1-8.1,36.2s-91.5,29.5-91.5,29.5
	S155.8,370.2,183.3,352z"/>
<path fill="#B89326" d="M280.3,170.2c-24.2-25.6-48.4-51.2-72.6-76.7"/>
<line fill="none" stroke="#142B43" stroke-width="15" stroke-miterlimit="10" x1="138" y1="-59.6" x2="507" y2="427"/>
<line fill="none" stroke="#142B43" stroke-width="15" stroke-miterlimit="10" x1="-33.1" y1="93.6" x2="295.7" y2="527"/>
<path fill="#B89326" d="M187.5,285.6c58.6-38.7,34.4-5.4,42.2,6.4s25.3,14.2-33.3,52.9s-179,87.2-179,87.2S128.9,324.2,187.5,285.6z
	"/>
<line fill="none" stroke="#142B43" stroke-width="15" stroke-miterlimit="10" x1="-35.3" y1="89.2" x2="293.5" y2="522.6"/>
</svg>
