<?xml version="1.0" standalone="no"?>
<!DOCTYPE svg PUBLIC "-//W3C//DTD SVG 20010904//EN"
 "http://www.w3.org/TR/2001/REC-SVG-20010904/DTD/svg10.dtd">
<svg version="1.0" xmlns="http://www.w3.org/2000/svg"
 width="1280.000000pt" height="800.000000pt" viewBox="0 0 1280.000000 800.000000"
 preserveAspectRatio="xMidYMid meet">
<metadata>
Created by potrace 1.16, written by Peter Selinger 2001-2019
</metadata>
<g transform="translate(0.000000,800.000000) scale(0.100000,-0.100000)"
fill="none" stroke="none">
<path d="M12260 4933 c-14 -9 -47 -33 -75 -53 -27 -21 -69 -47 -92 -59 -23
-11 -75 -48 -115 -81 -40 -33 -104 -86 -142 -117 -107 -89 -184 -137 -238
-148 -95 -20 -138 -41 -251 -123 l-32 -24 -305 7 c-168 4 -320 11 -338 17 -25
7 -41 6 -65 -4 -22 -9 -76 -13 -168 -13 l-136 0 -99 50 c-65 33 -121 71 -164
110 -92 85 -214 175 -237 175 -11 0 -23 3 -27 7 -22 22 -162 22 -251 -1 -38
-10 -106 -19 -150 -21 -68 -2 -90 -8 -146 -36 -75 -39 -120 -59 -131 -59 -4 0
-38 -14 -74 -31 l-66 -31 -136 6 c-181 8 -165 8 -487 -20 l-61 -6 -92 62 c-51
34 -98 70 -105 79 -7 9 -32 32 -57 51 -25 19 -51 43 -59 53 -7 10 -31 32 -54
48 -51 37 -100 38 -151 4 -88 -59 -139 -69 -199 -38 -33 16 -87 71 -87 87 0
18 -79 86 -99 86 -22 0 -108 -34 -228 -91 -79 -37 -86 -39 -185 -39 -88 0
-111 -4 -156 -25 -28 -13 -73 -29 -100 -34 -26 -5 -74 -17 -107 -25 -49 -12
-78 -13 -160 -5 -55 5 -119 17 -141 25 -23 9 -66 16 -95 16 -30 -1 -118 -1
-197 -1 -86 -1 -151 3 -163 10 -31 16 -258 30 -283 17 -12 -6 -35 -23 -51 -39
-52 -49 -142 -79 -237 -79 l-83 0 -45 51 c-32 36 -66 61 -115 84 -132 61 -125
60 -206 31 -40 -14 -83 -26 -95 -26 -43 0 -176 -41 -194 -60 -3 -3 -21 -17
-40 -31 -19 -15 -45 -35 -57 -45 -51 -44 -64 -54 -92 -69 -34 -17 -132 -20
-147 -5 -13 13 -169 25 -215 16 -19 -3 -45 -16 -59 -29 -31 -29 -77 -45 -110
-39 -14 2 -74 5 -135 7 -60 1 -126 7 -146 12 -40 12 -97 1 -185 -35 -120 -49
-144 -52 -422 -58 -473 -9 -509 -12 -662 -64 -117 -39 -176 -36 -224 12 -36
37 -76 50 -116 38 -36 -10 -100 -48 -100 -59 0 -14 -51 -31 -93 -31 -23 0 -67
10 -97 23 -51 20 -71 22 -250 22 -180 0 -200 -2 -255 -23 -33 -13 -91 -32
-130 -42 -38 -10 -85 -24 -104 -31 -23 -8 -65 -10 -140 -5 -58 4 -124 6 -146
6 -53 -1 -117 -33 -172 -86 -83 -81 -99 -88 -203 -96 -104 -8 -203 -22 -219
-33 -8 -4 -11 -623 -11 -2041 l0 -2034 6400 0 6400 0 0 2475 c0 2450 0 2475
-20 2475 -10 0 -36 -11 -56 -25 -51 -35 -79 -33 -309 16 -65 13 -128 10 -155
-8z"/>
</g>
</svg>
