<?xml version="1.0" encoding="utf-8"?>
<!-- Generator: Adobe Illustrator 18.1.1, SVG Export Plug-In . SVG Version: 6.00 Build 0)  -->
<svg version="1.1" id="Layer_1" xmlns="http://www.w3.org/2000/svg" xmlns:xlink="http://www.w3.org/1999/xlink" x="0px" y="0px"
	 viewBox="0 0 3840 260" enable-background="new 0 0 3840 260" xml:space="preserve">
<g>
	<path fill="none" d="M269.5,169.7c0,0.1,0,0.1,0,0.2c0,0.7-0.3,1.4-0.7,1.9h11.6c-0.4-0.5-0.7-1.1-0.7-1.9c0-0.1,0-0.1,0-0.2H269.5
		z"/>
	<path fill="none" d="M102.4,172.1H114c-0.4-0.5-0.7-1.1-0.7-1.9c0-0.1,0-0.1,0-0.2h-10.2c0,0.1,0,0.1,0,0.2
		C103.1,170.9,102.8,171.6,102.4,172.1z"/>
	<path fill="none" d="M254.6,169.7c0,0.1,0,0.1,0,0.2c0,0.7-0.3,1.4-0.7,1.9h11.2c-0.4-0.5-0.7-1.1-0.7-1.9c0-0.1,0-0.1,0-0.2H254.6
		z"/>
	<path fill="none" d="M240.6,169.7c0,0.1,0,0.1,0,0.2c0,0.7-0.3,1.4-0.7,1.9h10.4c-0.4-0.5-0.7-1.1-0.7-1.9c0-0.1,0-0.1,0-0.2H240.6
		z"/>
	<path fill="none" d="M206.7,171.8h11.9c-0.4-0.5-0.7-1.1-0.7-1.9c0-0.1,0-0.1,0-0.2h-11.4c0.1,0.3,0.2,0.7,0.2,1.1
		C206.8,171.2,206.8,171.5,206.7,171.8z"/>
	<path fill="none" d="M164.8,170c0,0.1,0,0.1,0,0.2c0,0.7-0.3,1.4-0.7,1.9H176c-0.1-0.3-0.2-0.6-0.2-1s0.1-0.8,0.2-1.1L164.8,170
		L164.8,170z"/>
	<path fill="none" d="M304.7,169.7c0,0.1,0,0.1,0,0.2c0,0.7-0.3,1.4-0.7,1.9h9.5v-2.1L304.7,169.7L304.7,169.7z"/>
	<path fill="none" d="M133.2,170c0,0.1,0,0.1,0,0.2c0,0.7-0.3,1.4-0.7,1.9h10.4c-0.4-0.5-0.7-1.1-0.7-1.9c0-0.1,0-0.1,0-0.2H133.2z"
		/>
	<path fill="none" d="M118.3,170c0,0.1,0,0.1,0,0.2c0,0.7-0.3,1.4-0.7,1.9h11.2c-0.4-0.5-0.7-1.1-0.7-1.9c0-0.1,0-0.1,0-0.2H118.3z"
		/>
	<path fill="none" d="M147.2,170c0,0.1,0,0.1,0,0.2c0,0.7-0.3,1.4-0.7,1.9h14c-0.4-0.5-0.7-1.1-0.7-1.9c0-0.1,0-0.1,0-0.2H147.2z"/>
	<rect x="13.4" y="205.2" fill="none" width="356.6" height="4.7"/>
	<path fill="none" d="M78.1,170.2c0-0.1,0-0.1,0-0.2h-8.8v2.1h9.5C78.3,171.6,78.1,170.9,78.1,170.2z"/>
	<path fill="none" d="M222.3,171.8h13.9c-0.4-0.5-0.7-1.1-0.7-1.9c0-0.1,0-0.1,0-0.2h-12.7c0,0.1,0,0.1,0,0.2
		C223,170.7,222.7,171.3,222.3,171.8z"/>
	<path fill="none" d="M85.3,172.1h13.4c-0.4-0.5-0.7-1.1-0.7-1.9c0-0.1,0-0.1,0-0.2H85.9c0,0.1,0,0.1,0,0.2
		C85.9,170.9,85.7,171.6,85.3,172.1z"/>
	<path fill="none" d="M284.7,169.7c0,0.1,0,0.1,0,0.2c0,0.7-0.3,1.4-0.7,1.9h13.5c-0.4-0.5-0.7-1.1-0.7-1.9c0-0.1,0-0.1,0-0.2H284.7
		z"/>
	<path fill="#010101" d="M65.9,167H69c0.2,0,0.4-0.4,0.2-0.6l-1.5-2.1l-0.3-4.8c0.1,0,0.3,0,0.4-0.1c0.3-0.2,0.4-0.6,0.3-1.1L68,158
		c-0.2-0.4-0.5-0.5-0.8-0.3s-0.6,0.7-0.4,1.1l0.1,0.3c0.1,0.2,0.3,0.4,0.5,0.4l-0.4,5.2l-1.2,1.7C65.6,166.6,65.7,167,65.9,167z"/>
	<path fill="#010101" d="M61.7,167h3.1c0.2,0,0.4-0.4,0.2-0.6l-1.4-1.9l-0.3-5c0.1,0,0.3,0,0.4-0.1c0.3-0.2,0.4-0.6,0.3-1.1
		l-0.1-0.3c-0.2-0.4-0.5-0.5-0.8-0.3s-0.6,0.7-0.4,1.1l0.1,0.3c0.1,0.2,0.3,0.4,0.5,0.4l-0.3,5l-1.4,1.9
		C61.3,166.6,61.5,167,61.7,167z"/>
	<path fill="#010101" d="M114.3,167h3.1c0.2,0,0.4-0.4,0.2-0.6l-1.5-2.1l-0.4-5.2l-0.4,5.6l-1.2,1.7
		C113.9,166.6,114.1,167,114.3,167z"/>
	<path fill="#010101" d="M98.9,167h3.1c0.2,0,0.4-0.4,0.2-0.6l-1.4-1.9l-0.3-5c0.1,0,0.3,0,0.4-0.1c0.3-0.2,0.4-0.6,0.3-1.1
		l-0.1-0.3c-0.2-0.4-0.5-0.5-0.8-0.3s-0.6,0.7-0.4,1.1l0.1,0.3c0.1,0.2,0.3,0.4,0.5,0.4l-0.3,5l-1.4,1.9
		C98.6,166.6,98.7,167,98.9,167z"/>
	<path fill="#010101" d="M82.9,166.9H86c0.2,0,0.4-0.4,0.2-0.6l-1.5-2.1l-0.3-4.9c0.1,0,0.3,0,0.4-0.1c0.3-0.2,0.4-0.6,0.3-1.1
		l-0.1-0.3c-0.2-0.4-0.5-0.5-0.8-0.3s-0.6,0.7-0.4,1.1l0.1,0.3c0.1,0.2,0.3,0.4,0.5,0.4l-0.4,5.3l-1.2,1.7
		C82.6,166.5,82.7,166.9,82.9,166.9z"/>
	<path fill="#010101" d="M78.7,166.9h3.1c0.2,0,0.4-0.4,0.2-0.6l-1.4-1.9l-0.3-5.1c0.1,0,0.3,0,0.4-0.1c0.3-0.2,0.4-0.6,0.3-1.1
		l-0.1-0.3c-0.2-0.4-0.5-0.5-0.8-0.3s-0.6,0.7-0.4,1.1l0.1,0.3c0.1,0.2,0.3,0.4,0.5,0.4l-0.3,5.1l-1.4,1.9
		C78.3,166.5,78.5,166.9,78.7,166.9z"/>
	<path fill="#010101" d="M143.2,167h3.1c0.2,0,0.4-0.4,0.2-0.6l-1.5-2.1l-0.4-5.2l-0.4,5.6l-1.2,1.7C142.8,166.6,143,167,143.2,167z
		"/>
	<path fill="#010101" d="M180.8,167h3.1c0.2,0,0.4-0.4,0.2-0.6l-1.5-2.2l-0.3-4.6c0.2,0.1,0.3,0,0.5-0.1c0.3-0.2,0.4-0.7,0.3-1.1
		l-0.1-0.3c-0.2-0.4-0.5-0.5-0.8-0.3s-0.6,0.7-0.4,1.1l0.1,0.3c0.1,0.2,0.2,0.3,0.4,0.4l-0.3,5l-1.2,1.8
		C180.5,166.6,180.6,167,180.8,167z"/>
	<path fill="#010101" d="M176.6,167h3.1c0.2,0,0.4-0.4,0.2-0.6l-1.4-1.9l-0.3-4.8c0.2,0,0.3,0,0.5-0.1c0.3-0.2,0.4-0.7,0.3-1.1
		l-0.1-0.3c-0.2-0.4-0.5-0.5-0.8-0.3s-0.6,0.7-0.4,1.1l0.1,0.3c0.1,0.2,0.2,0.3,0.4,0.4l-0.3,4.8l-1.4,1.9
		C176.2,166.6,176.3,167,176.6,167z"/>
	<path fill="#010101" d="M313.8,166.7h3.1c0.2,0,0.4-0.4,0.2-0.6l-1.2-1.7l-0.4-5.6l-0.4,5.2l-1.5,2.1
		C313.5,166.3,313.6,166.7,313.8,166.7z"/>
	<path fill="#010101" d="M318.1,166.7h3.1c0.2,0,0.4-0.4,0.2-0.6l-1.4-1.9l-0.4-5.4l-0.4,5.4l-1.4,1.9
		C317.7,166.3,317.8,166.7,318.1,166.7z"/>
	<path fill="#010101" d="M265.5,166.7h3.1c0.2,0,0.4-0.4,0.2-0.6l-1.2-1.7l-0.4-5.6l-0.4,5.2l-1.5,2.1
		C265.1,166.3,265.2,166.7,265.5,166.7z"/>
	<path fill="#010101" d="M280.8,166.7h3.1c0.2,0,0.4-0.4,0.2-0.6l-1.4-1.9l-0.4-5.4l-0.4,5.4l-1.4,1.9
		C280.5,166.3,280.6,166.7,280.8,166.7z"/>
	<path fill="#010101" d="M296.8,166.6h3.1c0.2,0,0.4-0.4,0.2-0.6l-1.2-1.7l-0.4-5.6l-0.4,5.2l-1.5,2.1
		C296.5,166.2,296.6,166.6,296.8,166.6z"/>
	<path fill="#010101" d="M301.1,166.6h3.1c0.2,0,0.4-0.4,0.2-0.6l-1.4-1.9l-0.4-5.4l-0.4,5.4l-1.4,1.9
		C300.7,166.2,300.8,166.6,301.1,166.6z"/>
	<path fill="#010101" d="M236.6,166.7h3.1c0.2,0,0.4-0.4,0.2-0.6l-1.2-1.7l-0.4-5.6l-0.4,5.2l-1.5,2.1
		C236.2,166.3,236.3,166.7,236.6,166.7z"/>
	<path fill="#010101" d="M204.7,158.7l-0.4,5.4l-1.4,1.9c-0.2,0.2,0,0.6,0.2,0.6h3.1c0.2,0,0.4-0.4,0.2-0.6l-1.4-1.9L204.7,158.7z"
		/>
	<path fill="#010101" d="M200.6,158.7l-0.4,5.2l-1.5,2.1c-0.2,0.2,0,0.6,0.2,0.6h3.1c0.2,0,0.4-0.4,0.2-0.6l-1.2-1.7L200.6,158.7z"
		/>
	<path fill="#010101" d="M36.9,185.8H40c0.2,0,0.4-0.4,0.2-0.6l-1.4-1.9l-0.4-5.3c0.1,0,0.3,0,0.4-0.1c0.3-0.2,0.4-0.6,0.3-1.1
		l-0.1-0.3c-0.2-0.4-0.5-0.5-0.8-0.3s-0.6,0.7-0.4,1.1l0.1,0.3c0.1,0.2,0.3,0.4,0.5,0.4l-0.4,5.3l-1.4,1.9
		C36.5,185.4,36.7,185.8,36.9,185.8z"/>
	<path fill="#010101" d="M372.1,209.9l0.2-4.7h3l-2.6-8.1l0.5-9.4h-3.1v1l-0.5-1.7h-0.9l0.3-0.2h0.8c0.2,0,0.4-0.4,0.2-0.6l-0.1-0.1
		l0.1-0.1h-0.2l-1.2-1.8l-0.4-5.4l-0.4,5.4l-1.2,1.8h-20.1l-1.1-1.5l-0.4-5.4l-0.4,5.4l-1.1,1.5h-16v-7.5h-130v-1.4h130v-2.4h0.3
		l1.5-1.9h-1.8h-5.9l-0.3-1l0.2-3.6l0,0l1.1-1.5h-68.9c0.2-0.1,0.3-0.4,0.1-0.6l-1.2-1.7l-0.4-5.6l-0.4,5.2l-1.3,2.1
		c-0.1,0.2-0.1,0.5,0.1,0.6h-28.5c0.2-0.1,0.3-0.4,0.1-0.6l-1.2-1.7l-0.4-5.6l-0.4,5.2l-1.5,2.1c-0.1,0.2-0.1,0.5,0.1,0.6h-21.7v0.1
		h-12.8v0.2h-20.4c0.2-0.1,0.3-0.4,0.1-0.6l-1.5-2.1l-0.3-4.8c0.1,0,0.3,0,0.4-0.1c0.3-0.2,0.4-0.6,0.3-1.1l-0.1-0.3
		c-0.2-0.4-0.5-0.5-0.8-0.3s-0.6,0.7-0.4,1.1l0.1,0.3c0.1,0.2,0.3,0.4,0.5,0.4l-0.4,5.2l-1.2,1.7c-0.1,0.2-0.1,0.5,0.1,0.6h-28.5
		c0.2-0.1,0.3-0.4,0.1-0.6l-1.5-2.1l-0.4-5.2l-0.4,5.6l-1.2,1.7c-0.1,0.2-0.1,0.5,0.1,0.6H60.1l1.1,1.5l0,0l0.2,3.6l-0.2,0.7H56
		h-1.8l1.5,1.9H56v2.4h128.3v1.4H56v7.5H17c0.1-0.1,0.2-0.4,0-0.5l-1.4-1.9l-0.4-5.4l-0.4,5.4l-1.3,1.8c-0.1,0.2-0.1,0.4,0,0.5l0,0
		l1.6,1h-1.8l-0.2,0.8h-2.9v10l-2.1,7.5h2.1v4.7H7.5l1.9,50.2h364.3l2.3-50.2H372.1z M85.9,170h12.2c0,0.1,0,0.1,0,0.2
		c0,0.7,0.3,1.4,0.7,1.9H85.3c0.4-0.5,0.7-1.1,0.7-1.9C85.9,170.1,85.9,170,85.9,170z M297.5,171.8h-13.4c0.4-0.5,0.7-1.1,0.7-1.9
		c0-0.1,0-0.1,0-0.2H297c0,0.1,0,0.1,0,0.2C296.9,170.7,297.1,171.3,297.5,171.8z M222.9,169.7h12.7c0,0.1,0,0.1,0,0.2
		c0,0.7,0.3,1.4,0.7,1.9h-13.9c0.4-0.5,0.7-1.1,0.7-1.9C223,169.9,223,169.8,222.9,169.7z M280.4,171.8h-11.6
		c0.4-0.5,0.7-1.1,0.7-1.9c0-0.1,0-0.1,0-0.2h10.3c0,0.1,0,0.1,0,0.2C279.8,170.7,280,171.3,280.4,171.8z M265.2,171.8H254
		c0.4-0.5,0.7-1.1,0.7-1.9c0-0.1,0-0.1,0-0.2h9.9c0,0.1,0,0.1,0,0.2C264.5,170.7,264.8,171.3,265.2,171.8z M250.3,171.8h-10.4
		c0.4-0.5,0.7-1.1,0.7-1.9c0-0.1,0-0.1,0-0.2h9.1c0,0.1,0,0.1,0,0.2C249.6,170.7,249.9,171.3,250.3,171.8z M218,169.7
		c0,0.1,0,0.1,0,0.2c0,0.7,0.3,1.4,0.7,1.9h-11.9c0.1-0.3,0.2-0.6,0.2-1s-0.1-0.8-0.2-1.1L218,169.7L218,169.7z M103.1,170h10.3
		c0,0.1,0,0.1,0,0.2c0,0.7,0.3,1.4,0.7,1.9h-11.7c0.4-0.5,0.7-1.1,0.7-1.9C103.1,170.1,103.1,170,103.1,170z M160.5,172.1h-13.9
		c0.4-0.5,0.7-1.1,0.7-1.9c0-0.1,0-0.1,0-0.2H160c0,0.1,0,0.1,0,0.2C159.9,170.9,160.1,171.6,160.5,172.1z M142.9,172.1h-10.4
		c0.4-0.5,0.7-1.1,0.7-1.9c0-0.1,0-0.1,0-0.2h9.1c0,0.1,0,0.1,0,0.2C142.2,170.9,142.5,171.6,142.9,172.1z M128.9,172.1h-11.2
		c0.4-0.5,0.7-1.1,0.7-1.9c0-0.1,0-0.1,0-0.2h9.9c0,0.1,0,0.1,0,0.2C128.2,170.9,128.4,171.6,128.9,172.1z M176.1,172.1h-11.9
		c0.4-0.5,0.7-1.1,0.7-1.9c0-0.1,0-0.1,0-0.2h11.4c-0.1,0.3-0.2,0.7-0.2,1.1C176,171.4,176,171.8,176.1,172.1z M304.1,171.8
		c0.4-0.5,0.7-1.1,0.7-1.9c0-0.1,0-0.1,0-0.2h8.8v2.1L304.1,171.8L304.1,171.8z M69.3,170h8.8c0,0.1,0,0.1,0,0.2
		c0,0.7,0.3,1.4,0.7,1.9h-9.5C69.3,172.1,69.3,170,69.3,170z M363.2,193.7l-1.7,0.1l-0.1-2.7l1.7-0.1L363.2,193.7z M359.9,193.7
		l-1.7,0.1l-0.1-2.7l1.7-0.1L359.9,193.7z M356.9,193.8l-1.7,0.1l-0.1-2.7l1.7-0.1L356.9,193.8z M353.8,193.7h-1.2l-0.1-2.7h1.3
		L353.8,193.7L353.8,193.7z M354.3,193.2v0.5l0,0V193.2z M351.3,193.7l-1.7,0.1l-0.1-2.7l1.7-0.1L351.3,193.7z M343.8,191v2.7
		l-1.7,0.1l-0.1-2.7l2.5-0.1l0,0H343.8z M346.9,191.1L346.9,191.1L346.9,191.1l0.5-0.1l0,0h1.1l0.1,2.7l-1.7,0.1l0,0h-0.1v-2
		L346.9,191.1z M340.6,191.1v2.7h-1.7v-2.7H340.6z M337.4,191.1v2.7h-1.7v-2.7H337.4z M334.5,193.8H333v-2.7h1.5V193.8z M331,193.8
		h-1.4v-2.7h1.4V193.8z M55.1,192.5l-1.7,0.1l-0.1-2.7l1.7-0.1L55.1,192.5z M51.8,192.5l-1.7,0.1l-0.1-2.7l1.7-0.1L51.8,192.5z
		 M43.5,189.9l1.4-0.1l0.1,2.7l-1.5,0.1V189.9z M42.3,192.5l-1.7,0.1l-0.1-2.7l1.7-0.1L42.3,192.5z M36.6,192.5l-1.7,0.1l-0.1-2.7
		l1.7-0.1L36.6,192.5z M32.2,192.6l-0.1-2.7l1.7-0.1l0.1,2.7L32.2,192.6z M30.7,189.9v2.7H29v-2.7H30.7z M27.2,189.9v2.7h-1.7v-2.7
		H27.2z M23.7,192.6h-1.5v-2.7h1.5V192.6z M20.1,192.6h-1.4v-2.7h1.4V192.6z M48.3,189.9v2.7l-1.4,0.1l-0.1-2.7L48.3,189.9z
		 M13.4,205.2H370v4.7H13.4V205.2z"/>
	<rect x="18.8" y="189.9" fill="#FFFFFF" width="1.4" height="2.7"/>
	<rect x="22.2" y="189.9" fill="#FFFFFF" width="1.5" height="2.7"/>
	<rect x="25.5" y="189.9" fill="#FFFFFF" width="1.7" height="2.7"/>
	<rect x="29" y="189.9" fill="#FFFFFF" width="1.7" height="2.7"/>
	<polygon fill="#FFFFFF" points="32.1,189.9 32.2,192.6 33.9,192.5 33.8,189.8 	"/>
	<polygon fill="#FFFFFF" points="34.9,192.6 36.6,192.5 36.6,189.8 34.9,189.9 	"/>
	<polygon fill="#FFFFFF" points="40.6,192.6 42.3,192.5 42.2,189.8 40.5,189.9 	"/>
	<polygon fill="#FFFFFF" points="44.9,189.8 43.5,189.9 43.5,192.6 45,192.5 	"/>
	<polygon fill="#FFFFFF" points="48.3,192.6 48.3,189.9 46.7,189.9 46.8,192.6 	"/>
	<polygon fill="#FFFFFF" points="50.1,192.6 51.8,192.5 51.7,189.8 50.1,189.9 	"/>
	<polygon fill="#FFFFFF" points="53.4,192.6 55.1,192.5 55,189.8 53.3,189.9 	"/>
	<rect x="329.6" y="191.1" fill="#FFFFFF" width="1.4" height="2.7"/>
	<rect x="333.1" y="191.1" fill="#FFFFFF" width="1.5" height="2.7"/>
	<rect x="335.7" y="191.1" fill="#FFFFFF" width="1.7" height="2.7"/>
	<rect x="338.9" y="191.1" fill="#FFFFFF" width="1.7" height="2.7"/>
	<polygon fill="#FFFFFF" points="342.1,191.1 342.1,193.8 343.8,193.7 343.8,191 344.5,191 344.5,191 	"/>
	<polygon fill="#FFFFFF" points="346.9,193.7 346.9,193.8 348.6,193.7 348.5,191 347.4,191.1 347.4,191 346.9,191.1 346.9,191.1 
		346.9,191.1 346.9,191.7 	"/>
	<polygon fill="#FFFFFF" points="349.6,193.8 351.3,193.7 351.2,191 349.6,191.1 	"/>
	<polygon fill="#FFFFFF" points="354.3,193.2 354.3,193.7 354.3,193.7 	"/>
	<polygon fill="#FFFFFF" points="352.6,193.8 353.8,193.7 353.8,191.1 352.6,191.1 	"/>
	<polygon fill="#FFFFFF" points="355.2,193.8 356.9,193.8 356.9,191.1 355.2,191.1 	"/>
	<polygon fill="#FFFFFF" points="358.3,193.8 359.9,193.7 359.9,191 358.2,191.1 	"/>
	<polygon fill="#FFFFFF" points="361.5,193.8 363.2,193.7 363.1,191 361.4,191.1 	"/>
	<path fill="none" d="M202.6,151.8c-0.7,0-1.1,0-1.1,0"/>
	<path fill="#010101" d="M191.6,152.5c1.1-0.4,3.5-2.4,4.3-2.4c1.1,0,0.3,2.5,1.4,2.5l4.3-1.2c0.8,0,1.6,0,2.4,0
		c0,0,0.3,0.2,0.7,0.4c-0.9,0-1.6,0-2.1,0c0.5,0,1.3,0,2.1,0c1.1,0.7,3,1.9,3.1,1.9l3.3-1.9c0.8,0,1.5,0,1.9,0
		c0.1,0,0.2-0.2,0.2-0.4v-9.7c-0.7-1.3-1.2-2-1.9-3.3l-4.8,1.9c-1.1,0-1.2-2.3-2.3-2.3h-2.8l-3.2,1.2c0,0-1.3-1.9-1.7-2.4
		c-0.1-0.1-0.1-0.1-0.2-0.1c-0.7,0.3-4.1,2-4.9,2.4c-0.1,0.1-0.2,0.2-0.2,0.4v12.6C191.3,152.4,191.4,152.6,191.6,152.5z"/>
	<path fill="#010101" d="M14.7,177.6c0.2,0.4,0.6,0.5,0.9,0.3c0.3-0.2,0.4-0.6,0.3-1.1l-0.1-0.3c-0.2-0.4-0.5-0.5-0.8-0.3
		s-0.6,0.7-0.4,1.1L14.7,177.6z"/>
	<path fill="#010101" d="M115.2,158.3c0.2,0.4,0.6,0.5,0.9,0.3s0.4-0.6,0.3-1.1l-0.1-0.3c-0.2-0.4-0.5-0.5-0.8-0.3s-0.6,0.7-0.4,1.1
		L115.2,158.3z"/>
	<path fill="#010101" d="M130,158.3c0.2,0.4,0.6,0.5,0.9,0.3c0.3-0.2,0.4-0.6,0.3-1.1l-0.1-0.3c-0.2-0.4-0.5-0.5-0.8-0.3
		s-0.6,0.7-0.4,1.1L130,158.3z"/>
	<path fill="#010101" d="M144.1,158.1c0.2,0.4,0.6,0.5,0.9,0.3c0.3-0.2,0.4-0.6,0.3-1.1l-0.1-0.3c-0.2-0.4-0.5-0.5-0.8-0.3
		s-0.6,0.7-0.4,1.1L144.1,158.1z"/>
</g>
<path fill="#010101" stroke="#010101" stroke-miterlimit="10" d="M198.5,122.4"/>
<rect x="13.6" y="186" fill="#010101" stroke="#010101" stroke-miterlimit="10" width="47.4" height="2"/>
<rect x="8.1" y="205.2" fill="#010101" stroke="#010101" stroke-miterlimit="10" width="367.3" height="17"/>
<rect x="56" y="176.8" fill="#010101" stroke="#010101" stroke-miterlimit="10" width="271.5" height="27"/>
<path fill="#010101" stroke="#010101" stroke-miterlimit="10" d="M200.3,159.6c-0.1-0.2,0-0.6,0.3-0.7c0.1,0,0.3,0.2,0.3,0.4
	s-0.1,0.6-0.3,0.6C200.6,159.9,200.4,159.8,200.3,159.6z"/>
<path fill="#010101" stroke="#010101" stroke-miterlimit="10" d="M204.4,159.6c-0.1-0.2,0-0.6,0.3-0.7c0.1,0,0.3,0.2,0.3,0.4
	s-0.1,0.6-0.3,0.6C204.6,159.9,204.5,159.8,204.4,159.6z"/>
<path fill="#010101" stroke="#010101" stroke-miterlimit="10" d="M220.5,159.6c-0.1-0.2,0-0.6,0.3-0.7c0.1,0,0.3,0.2,0.3,0.4
	s-0.1,0.6-0.3,0.6C220.7,159.9,220.5,159.8,220.5,159.6z"/>
<path fill="#010101" stroke="#010101" stroke-miterlimit="10" d="M237.8,159.4c-0.1-0.2,0-0.6,0.3-0.7c0.1,0,0.3,0.2,0.3,0.4
	c0.1,0.2-0.1,0.6-0.3,0.6C238,159.8,237.9,159.6,237.8,159.4z"/>
<path fill="#010101" stroke="#010101" stroke-miterlimit="10" d="M252,159c-0.1-0.2,0-0.6,0.3-0.7c0.1,0,0.3,0.2,0.3,0.4
	s-0.1,0.6-0.3,0.6C252.3,159.3,252.1,159.2,252,159z"/>
<path fill="#010101" stroke="#010101" stroke-miterlimit="10" d="M319.3,159c-0.1-0.2,0-0.6,0.3-0.7c0.1,0,0.3,0.2,0.3,0.4
	c0.1,0.2-0.1,0.6-0.3,0.6C319.5,159.4,319.4,159.2,319.3,159z"/>
<path fill="#010101" stroke="#010101" stroke-miterlimit="10" d="M315.2,158.9c-0.1-0.2,0-0.6,0.3-0.7c0.1,0,0.3,0.2,0.3,0.4
	c0.1,0.2-0.1,0.6-0.3,0.6C315.4,159.3,315.2,159.1,315.2,158.9z"/>
<path fill="#010101" stroke="#010101" stroke-miterlimit="10" d="M302.3,158.8c-0.1-0.2,0-0.6,0.3-0.7c0.1,0,0.3,0.2,0.3,0.4
	c0.1,0.2-0.1,0.6-0.3,0.6C302.5,159.2,302.4,159,302.3,158.8z"/>
<path fill="#010101" stroke="#010101" stroke-miterlimit="10" d="M298,158.9c-0.1-0.2,0-0.6,0.3-0.7c0.1,0,0.3,0.2,0.3,0.4
	c0.1,0.2-0.1,0.6-0.3,0.6C298.3,159.3,298.1,159.1,298,158.9z"/>
<path fill="#010101" stroke="#010101" stroke-miterlimit="10" d="M282.1,158.9c-0.1-0.2,0-0.6,0.3-0.7c0.1,0,0.3,0.2,0.3,0.4
	c0.1,0.2-0.1,0.6-0.3,0.6C282.3,159.3,282.1,159.1,282.1,158.9z"/>
<path fill="#010101" stroke="#010101" stroke-miterlimit="10" d="M266.8,158.9c-0.1-0.2,0-0.6,0.3-0.7c0.1,0,0.3,0.2,0.3,0.4
	c0.1,0.2-0.1,0.6-0.3,0.6C267,159.3,266.9,159.1,266.8,158.9z"/>
<path fill="#010101" stroke="#010101" stroke-miterlimit="10" d="M367.9,179c-0.1-0.2,0-0.6,0.3-0.7c0.1,0,0.3,0.2,0.3,0.4
	c0.1,0.2-0.1,0.6-0.3,0.6C368.1,179.3,368,179.2,367.9,179z"/>
<path fill="#010101" stroke="#010101" stroke-miterlimit="10" d="M344.9,178.5c-0.1-0.2,0-0.6,0.3-0.7c0.1,0,0.3,0.2,0.3,0.4
	c0.1,0.2-0.1,0.6-0.3,0.6C345.1,178.8,345,178.7,344.9,178.5z"/>
<rect x="56" y="174" fill="#010101" stroke="#010101" stroke-miterlimit="10" width="6" height="8"/>
<rect x="325.4" y="174.6" fill="#010101" stroke="#010101" stroke-miterlimit="10" width="2.1" height="14.8"/>
<rect x="191.6" y="150.8" fill="#010101" stroke="#010101" stroke-miterlimit="10" width="0.4" height="22.7"/>
<rect x="72.3" y="169.6" fill="#010101" stroke="#010101" stroke-miterlimit="10" width="0.4" height="22.7"/>
<rect x="75.3" y="169.6" fill="#010101" stroke="#010101" stroke-miterlimit="10" width="0.4" height="22.7"/>
<rect x="69.1" y="169.6" fill="#010101" stroke="#010101" stroke-miterlimit="10" width="0.4" height="22.7"/>
<rect x="78.5" y="169.6" fill="#010101" stroke="#010101" stroke-miterlimit="10" width="0.4" height="22.7"/>
<rect x="90.3" y="168" fill="#010101" stroke="#010101" stroke-miterlimit="10" width="0.4" height="22.7"/>
<rect x="93.2" y="168" fill="#010101" stroke="#010101" stroke-miterlimit="10" width="0.4" height="22.7"/>
<rect x="87" y="168" fill="#010101" stroke="#010101" stroke-miterlimit="10" width="0.4" height="22.7"/>
<rect x="96.5" y="168" fill="#010101" stroke="#010101" stroke-miterlimit="10" width="0.4" height="22.7"/>
<rect x="106.5" y="169.6" fill="#010101" stroke="#010101" stroke-miterlimit="10" width="0.4" height="22.7"/>
<rect x="109.4" y="169.6" fill="#010101" stroke="#010101" stroke-miterlimit="10" width="0.4" height="22.7"/>
<rect x="103.2" y="169.6" fill="#010101" stroke="#010101" stroke-miterlimit="10" width="0.4" height="22.7"/>
<rect x="112.7" y="169.6" fill="#010101" stroke="#010101" stroke-miterlimit="10" width="0.4" height="22.7"/>
<rect x="121.5" y="168.7" fill="#010101" stroke="#010101" stroke-miterlimit="10" width="0.4" height="22.7"/>
<rect x="124.5" y="168.7" fill="#010101" stroke="#010101" stroke-miterlimit="10" width="0.4" height="22.7"/>
<rect x="118.3" y="168.7" fill="#010101" stroke="#010101" stroke-miterlimit="10" width="0.4" height="22.7"/>
<rect x="127.8" y="168.7" fill="#010101" stroke="#010101" stroke-miterlimit="10" width="0.4" height="22.7"/>
<rect x="136" y="169.6" fill="#010101" stroke="#010101" stroke-miterlimit="10" width="0.4" height="22.7"/>
<rect x="139" y="169.6" fill="#010101" stroke="#010101" stroke-miterlimit="10" width="0.4" height="22.7"/>
<rect x="132.8" y="169.6" fill="#010101" stroke="#010101" stroke-miterlimit="10" width="0.4" height="22.7"/>
<rect x="142.2" y="169.6" fill="#010101" stroke="#010101" stroke-miterlimit="10" width="0.4" height="22.7"/>
<rect x="151.8" y="168.7" fill="#010101" stroke="#010101" stroke-miterlimit="10" width="0.4" height="22.7"/>
<rect x="154.8" y="168.7" fill="#010101" stroke="#010101" stroke-miterlimit="10" width="0.4" height="22.7"/>
<rect x="148.6" y="168.7" fill="#010101" stroke="#010101" stroke-miterlimit="10" width="0.4" height="22.7"/>
<rect x="158.1" y="168.7" fill="#010101" stroke="#010101" stroke-miterlimit="10" width="0.4" height="22.7"/>
<rect x="168.5" y="169.6" fill="#010101" stroke="#010101" stroke-miterlimit="10" width="0.4" height="22.7"/>
<rect x="171.4" y="169.6" fill="#010101" stroke="#010101" stroke-miterlimit="10" width="0.4" height="22.7"/>
<rect x="165.2" y="169.6" fill="#010101" stroke="#010101" stroke-miterlimit="10" width="0.4" height="22.7"/>
<rect x="174.7" y="169.6" fill="#010101" stroke="#010101" stroke-miterlimit="10" width="0.4" height="22.7"/>
<rect x="210.9" y="169.6" fill="#010101" stroke="#010101" stroke-miterlimit="10" width="0.4" height="22.7"/>
<rect x="213.9" y="169.6" fill="#010101" stroke="#010101" stroke-miterlimit="10" width="0.4" height="22.7"/>
<rect x="207.7" y="169.6" fill="#010101" stroke="#010101" stroke-miterlimit="10" width="0.4" height="22.7"/>
<rect x="217.1" y="169.6" fill="#010101" stroke="#010101" stroke-miterlimit="10" width="0.4" height="22.7"/>
<rect x="227.5" y="168.7" fill="#010101" stroke="#010101" stroke-miterlimit="10" width="0.4" height="22.7"/>
<rect x="230.5" y="168.7" fill="#010101" stroke="#010101" stroke-miterlimit="10" width="0.4" height="22.7"/>
<rect x="224.3" y="168.7" fill="#010101" stroke="#010101" stroke-miterlimit="10" width="0.4" height="22.7"/>
<rect x="233.8" y="168.7" fill="#010101" stroke="#010101" stroke-miterlimit="10" width="0.4" height="22.7"/>
<rect x="243.4" y="169.6" fill="#010101" stroke="#010101" stroke-miterlimit="10" width="0.4" height="22.7"/>
<rect x="246.3" y="169.6" fill="#010101" stroke="#010101" stroke-miterlimit="10" width="0.4" height="22.7"/>
<rect x="240.1" y="169.6" fill="#010101" stroke="#010101" stroke-miterlimit="10" width="0.4" height="22.7"/>
<rect x="249.6" y="169.6" fill="#010101" stroke="#010101" stroke-miterlimit="10" width="0.4" height="22.7"/>
<rect x="257.8" y="168.7" fill="#010101" stroke="#010101" stroke-miterlimit="10" width="0.4" height="22.7"/>
<rect x="260.8" y="168.7" fill="#010101" stroke="#010101" stroke-miterlimit="10" width="0.4" height="22.7"/>
<rect x="254.6" y="168.7" fill="#010101" stroke="#010101" stroke-miterlimit="10" width="0.4" height="22.7"/>
<rect x="264.1" y="168.7" fill="#010101" stroke="#010101" stroke-miterlimit="10" width="0.4" height="22.7"/>
<rect x="272.9" y="168.7" fill="#010101" stroke="#010101" stroke-miterlimit="10" width="0.4" height="22.7"/>
<rect x="275.9" y="168.7" fill="#010101" stroke="#010101" stroke-miterlimit="10" width="0.4" height="22.7"/>
<rect x="269.7" y="168.7" fill="#010101" stroke="#010101" stroke-miterlimit="10" width="0.4" height="22.7"/>
<rect x="279.2" y="168.7" fill="#010101" stroke="#010101" stroke-miterlimit="10" width="0.4" height="22.7"/>
<rect x="289.1" y="168.7" fill="#010101" stroke="#010101" stroke-miterlimit="10" width="0.4" height="22.7"/>
<rect x="292.1" y="168.7" fill="#010101" stroke="#010101" stroke-miterlimit="10" width="0.4" height="22.7"/>
<rect x="285.9" y="168.7" fill="#010101" stroke="#010101" stroke-miterlimit="10" width="0.4" height="22.7"/>
<rect x="295.3" y="168.7" fill="#010101" stroke="#010101" stroke-miterlimit="10" width="0.4" height="22.7"/>
<rect x="307.1" y="169.6" fill="#010101" stroke="#010101" stroke-miterlimit="10" width="0.4" height="22.7"/>
<rect x="310" y="169.6" fill="#010101" stroke="#010101" stroke-miterlimit="10" width="0.4" height="22.7"/>
<rect x="303.9" y="169.6" fill="#010101" stroke="#010101" stroke-miterlimit="10" width="0.4" height="22.7"/>
<rect x="313.3" y="169.6" fill="#010101" stroke="#010101" stroke-miterlimit="10" width="0.4" height="22.7"/>
<rect x="78.3" y="169.4" fill="#010101" stroke="#010101" stroke-miterlimit="10" width="7.5" height="13.3"/>
<rect x="98.4" y="168" fill="#010101" stroke="#010101" stroke-miterlimit="10" width="4.2" height="26"/>
<rect x="127.6" y="168.1" fill="#010101" stroke="#010101" stroke-miterlimit="10" width="4.9" height="12.3"/>
<rect x="141.5" y="168.1" fill="#010101" stroke="#010101" stroke-miterlimit="10" width="6.1" height="20"/>
<rect x="159.5" y="167.9" fill="#010101" stroke="#010101" stroke-miterlimit="10" width="5.2" height="13.3"/>
<rect x="218.5" y="167.9" fill="#010101" stroke="#010101" stroke-miterlimit="10" width="5.2" height="13.3"/>
<rect x="235.2" y="167.6" fill="#010101" stroke="#010101" stroke-miterlimit="10" width="5.2" height="13.3"/>
<rect x="250.1" y="167.9" fill="#010101" stroke="#010101" stroke-miterlimit="10" width="5.2" height="13.3"/>
<rect x="264.2" y="167.4" fill="#010101" stroke="#010101" stroke-miterlimit="10" width="5.2" height="13.3"/>
<rect x="279.8" y="167.4" fill="#010101" stroke="#010101" stroke-miterlimit="10" width="5.2" height="13.3"/>
<rect x="296.1" y="167.9" fill="#010101" stroke="#010101" stroke-miterlimit="10" width="5.2" height="13.3"/>
<rect x="202.1" y="167.9" fill="#010101" stroke="#010101" stroke-miterlimit="10" width="5.2" height="13.3"/>
<rect x="113.4" y="169.5" fill="#010101" stroke="#010101" stroke-miterlimit="10" width="5.2" height="13.3"/>
<rect x="366.9" y="186.4" fill="#010101" stroke="#010101" stroke-miterlimit="10" width="6.3" height="29.9"/>
<path fill="#010101" stroke="#010101" stroke-miterlimit="10" d="M426.2,269.7l-30-0.2c-5.2,0-19.5-3.5-19.4-7.2l11.4-131.4
	c0-3.7,4.3-6.7,9.6-6.7l30,0.2c5.2,0,9.5,3.1,9.4,6.8l10.6,131.9C447.8,266.8,431.5,269.7,426.2,269.7z"/>
<path fill="#010101" stroke="#010101" stroke-miterlimit="10" d="M536.5,143.6v118c0,0.6-0.7,1.1-1.5,1.1h-82.4
	c-0.8,0-1.5-0.5-1.5-1.1v-118c0-0.6,0.7-1.1,1.5-1.1h13.7c0.8,0,1.5-0.5,1.5-1.1l0,0v-2.8c0-1.2,1.4-2.2,3.1-2.2h45.9
	c1.7,0,3.1,1,3.1,2.2v2.8l0,0c0,0.6,0.7,1.1,1.5,1.1H535C535.8,142.5,536.5,143,536.5,143.6z"/>
<path fill="#010101" stroke="#010101" stroke-miterlimit="10" d="M436.3,139.6h-2.9c-0.8,0-1.4-0.5-1.4-1l2.4-24.4
	c0-0.6-1.8-5.4-1-5.4h2.9c0.8,0,1.4,0.5,1.4,1v28.8C437.8,139.2,437.1,139.6,436.3,139.6z"/>
<g id="XMLID_1_">
	<g>
		<polygon fill="#010101" points="630.2,132.9 607.5,140.8 562.3,140.8 539.6,132.9 562.3,124.9 607.5,124.9 		"/>
	</g>
	<g>
		<polygon fill="none" stroke="#010101" stroke-miterlimit="10" points="630.2,132.9 607.5,140.8 562.3,140.8 539.6,132.9 
			562.3,124.9 607.5,124.9 		"/>
		<line fill="none" stroke="#010101" stroke-miterlimit="10" x1="539.6" y1="132.9" x2="539.6" y2="263.6"/>
		<line fill="none" stroke="#010101" stroke-miterlimit="10" x1="630.2" y1="132.9" x2="630.2" y2="263.4"/>
	</g>
</g>
<line fill="none" stroke="#010101" stroke-miterlimit="10" x1="528.6" y1="261.9" x2="619.2" y2="261.7"/>
<rect x="539.6" y="132.9" fill="#010101" width="90.5" height="130.5"/>
<rect x="641.5" y="120.8" fill="#010101" width="11.9" height="141.8"/>
<path fill="#010101" d="M666.6,120.7H628c-3,0-5.4-2.4-5.4-5.4v0c0-3,2.4-5.4,5.4-5.4h38.6c3,0,5.4,2.4,5.4,5.4v0
	C672,118.2,669.5,120.7,666.6,120.7z"/>
<path fill="#010101" d="M663.6,124h-31.9c-1.7,0-3.1-1.4-3.1-3.1v0c0-1.7,1.4-3.1,3.1-3.1h31.9c1.7,0,3.1,1.4,3.1,3.1v0
	C666.7,122.6,665.3,124,663.6,124z"/>
<path fill="#010101" d="M666.6,107.1H628c-3,0-5.4-2.4-5.4-5.4v0c0-3,2.4-5.4,5.4-5.4h38.6c3,0,5.4,2.4,5.4,5.4v0
	C672,104.7,669.5,107.1,666.6,107.1z"/>
<path fill="#010101" d="M666.9,93.4h-38.6c-3,0-5.4-2.4-5.4-5.4v0c0-3,2.4-5.4,5.4-5.4h38.6c3,0,5.4,2.4,5.4,5.4v0
	C672.3,90.9,669.9,93.4,666.9,93.4z"/>
<path fill="#010101" d="M666.6,79.4H628c-3,0-5.4-2.4-5.4-5.4v0c0-3,2.4-5.4,5.4-5.4h38.6c3,0,5.4,2.4,5.4,5.4v0
	C672,77,669.5,79.4,666.6,79.4z"/>
<path fill="#010101" d="M654.6,68.6h-13.9c-3,0-5.4-2.4-5.4-5.4v0c0-3,2.4-5.4,5.4-5.4h13.9c3,0,5.4,2.4,5.4,5.4v0
	C660,66.2,657.6,68.6,654.6,68.6z"/>
<rect x="644.9" y="36.9" fill="#010101" width="5.5" height="26.3"/>
<polygon fill="#010101" points="716.2,265.3 677.5,265.3 677.5,85.5 729.5,89.4 "/>
<rect x="726.5" y="203.1" fill="#010101" width="211" height="59.6"/>
<ellipse fill="#010101" cx="832" cy="226.1" rx="45.9" ry="30.7"/>
<path fill="#010101" d="M892.9,226.7H882c-6,0-10.9-2.8-10.9-6.2l-2.3-50c0-3.4,7.2-6.5,13.2-6.5h10.9c6,0,14.8,2.5,14.8,6
	l-3.9,50.5C903.8,223.9,898.9,226.7,892.9,226.7z"/>
<path fill="#010101" d="M782.9,226.7H772c-6,0-10.9-2.8-10.9-6.2l-2.5-49.7c0-3.4,7.4-6.7,13.4-6.7h10.9c6,0,15,3.2,15,6.6
	l-4.1,49.9C793.8,223.9,788.9,226.7,782.9,226.7z"/>
<polygon fill="#010101" points="784.3,187.7 770.6,187.7 768.3,150.2 787,150.2 "/>
<polygon fill="#010101" points="894.3,187.3 880.7,187.3 877.9,150.2 897.7,150.2 "/>
<ellipse fill="#010101" cx="777.6" cy="151.4" rx="9.2" ry="4.6"/>
<ellipse fill="#010101" cx="888.1" cy="150.8" rx="9.2" ry="4.6"/>
<line fill="none" stroke="#010101" stroke-width="2" stroke-miterlimit="10" x1="887.8" y1="139.8" x2="887.8" y2="152.4"/>
<line fill="none" stroke="#010101" stroke-width="2" stroke-miterlimit="10" x1="891.5" y1="142.4" x2="884.2" y2="142.4"/>
<line fill="none" stroke="#010101" stroke-width="2" stroke-miterlimit="10" x1="777.7" y1="140.8" x2="777.7" y2="153.4"/>
<line fill="none" stroke="#010101" stroke-width="2" stroke-miterlimit="10" x1="781.3" y1="143.4" x2="774" y2="143.4"/>
<path fill="none" stroke="#010101" stroke-width="8" stroke-miterlimit="10" d="M814.3,196.7c4.2-1.8,0.3,2.2,6.3,0.3
	c-2.4,3.3,2.2,2.6-0.2,3c-0.9-0.7-0.7,1.4-0.9,0.4c0.1,1,11.6-2,14.4-1.8c-2,0.8,15-15.6-13.6,1.4c0.5-1.4-1.9,7.2-0.3,6.2
	c-0.8,0.9,0.3-5.5-0.5-4.6"/>
<path fill="#010101" stroke="#010101" stroke-miterlimit="10" d="M996.5,143.8v118c0,0.6-0.4,1.1-1,1.1h-52.7c-0.5,0-1-0.5-1-1.1
	v-118c0-0.6,0.4-1.1,1-1.1h8.8c0.5,0,1-0.5,1-1.1l0,0v-2.8c0-1.2,0.9-2.2,2-2.2h29.3c1.1,0,2,1,2,2.2v2.8l0,0c0,0.6,0.4,1.1,1,1.1
	h8.8C996.1,142.7,996.5,143.2,996.5,143.8z"/>
<path fill="#010101" stroke="#010101" stroke-miterlimit="10" d="M1070.8,264.7h-57.6c-4.2,0-7.7-2.3-7.7-5V133.3
	c0-2.8,32.3-13.7,36.5-13.7l28.8,8.7c4.2,0,7.7,2.3,7.7,5v126.4C1078.5,262.4,1075,264.7,1070.8,264.7z"/>
<rect x="1176.5" y="146.1" fill="#010101" stroke="#010101" stroke-miterlimit="10" width="50" height="114.1"/>
<rect x="1226.5" y="171.9" fill="#010101" stroke="#010101" stroke-miterlimit="10" width="23" height="88.3"/>
<rect x="1245.5" y="114.5" fill="#010101" stroke="#010101" stroke-miterlimit="10" width="27" height="145.6"/>
<rect x="1272.5" y="156.9" fill="#010101" stroke="#010101" stroke-miterlimit="10" width="27" height="103.4"/>
<rect x="1145.5" y="171.9" fill="#010101" stroke="#010101" stroke-miterlimit="10" width="37" height="88.5"/>
<path fill="#010101" stroke="#010101" stroke-miterlimit="10" d="M1170,256.3h-12c-6.9,0-12.5-5.6-12.5-12.5V119.2
	c0-6.9,5.6-12.5,12.5-12.5h12c6.9,0,12.5,5.6,12.5,12.5v124.6C1182.5,250.7,1176.9,256.3,1170,256.3z"/>
<path fill="#010101" stroke="#010101" stroke-miterlimit="10" d="M1138.1,113.9c0,28.3-22.6,51.2-50.5,51.2V62.7
	C1115.5,62.7,1138.1,85.6,1138.1,113.9z"/>
<rect x="1087.6" y="112" fill="#010101" stroke="#010101" stroke-miterlimit="10" width="50.5" height="149.1"/>
<g>
	<path fill="none" d="M1571.2,168.5c0,0.1,0,0.1,0,0.2c0,0.7-0.3,1.4-0.7,1.9h11.6c-0.4-0.5-0.7-1.1-0.7-1.9c0-0.1,0-0.1,0-0.2
		H1571.2z"/>
	<path fill="none" d="M1404.1,170.9h11.6c-0.4-0.5-0.7-1.1-0.7-1.9c0-0.1,0-0.1,0-0.2h-10.2c0,0.1,0,0.1,0,0.2
		C1404.8,169.7,1404.5,170.4,1404.1,170.9z"/>
	<path fill="none" d="M1556.3,168.5c0,0.1,0,0.1,0,0.2c0,0.7-0.3,1.4-0.7,1.9h11.2c-0.4-0.5-0.7-1.1-0.7-1.9c0-0.1,0-0.1,0-0.2
		H1556.3z"/>
	<path fill="none" d="M1542.3,168.5c0,0.1,0,0.1,0,0.2c0,0.7-0.3,1.4-0.7,1.9h10.4c-0.4-0.5-0.7-1.1-0.7-1.9c0-0.1,0-0.1,0-0.2
		H1542.3z"/>
	<path fill="none" d="M1508.4,170.6h11.9c-0.4-0.5-0.7-1.1-0.7-1.9c0-0.1,0-0.1,0-0.2h-11.4c0.1,0.3,0.2,0.7,0.2,1.1
		C1508.5,170,1508.5,170.3,1508.4,170.6z"/>
	<path fill="none" d="M1466.5,168.8c0,0.1,0,0.1,0,0.2c0,0.7-0.3,1.4-0.7,1.9h11.9c-0.1-0.3-0.2-0.6-0.2-1s0.1-0.8,0.2-1.1
		L1466.5,168.8L1466.5,168.8z"/>
	<path fill="none" d="M1606.4,168.5c0,0.1,0,0.1,0,0.2c0,0.7-0.3,1.4-0.7,1.9h9.5v-2.1L1606.4,168.5L1606.4,168.5z"/>
	<path fill="none" d="M1434.9,168.8c0,0.1,0,0.1,0,0.2c0,0.7-0.3,1.4-0.7,1.9h10.4c-0.4-0.5-0.7-1.1-0.7-1.9c0-0.1,0-0.1,0-0.2
		H1434.9z"/>
	<path fill="none" d="M1420,168.8c0,0.1,0,0.1,0,0.2c0,0.7-0.3,1.4-0.7,1.9h11.2c-0.4-0.5-0.7-1.1-0.7-1.9c0-0.1,0-0.1,0-0.2H1420z"
		/>
	<path fill="none" d="M1448.9,168.8c0,0.1,0,0.1,0,0.2c0,0.7-0.3,1.4-0.7,1.9h14c-0.4-0.5-0.7-1.1-0.7-1.9c0-0.1,0-0.1,0-0.2H1448.9
		z"/>
	<rect x="1315.1" y="204" fill="none" width="356.6" height="4.7"/>
	<path fill="none" d="M1379.8,169c0-0.1,0-0.1,0-0.2h-8.8v2.1h9.5C1380,170.4,1379.8,169.7,1379.8,169z"/>
	<path fill="none" d="M1524,170.6h13.9c-0.4-0.5-0.7-1.1-0.7-1.9c0-0.1,0-0.1,0-0.2h-12.7c0,0.1,0,0.1,0,0.2
		C1524.7,169.5,1524.4,170.1,1524,170.6z"/>
	<path fill="none" d="M1387,170.9h13.4c-0.4-0.5-0.7-1.1-0.7-1.9c0-0.1,0-0.1,0-0.2h-12.1c0,0.1,0,0.1,0,0.2
		C1387.6,169.7,1387.4,170.4,1387,170.9z"/>
	<path fill="none" d="M1586.4,168.5c0,0.1,0,0.1,0,0.2c0,0.7-0.3,1.4-0.7,1.9h13.5c-0.4-0.5-0.7-1.1-0.7-1.9c0-0.1,0-0.1,0-0.2
		H1586.4z"/>
	<path fill="#010101" d="M1367.6,165.8h3.1c0.2,0,0.4-0.4,0.2-0.6l-1.5-2.1l-0.3-4.8c0.1,0,0.3,0,0.4-0.1c0.3-0.2,0.4-0.6,0.3-1.1
		l-0.1-0.3c-0.2-0.4-0.5-0.5-0.8-0.3c-0.3,0.2-0.6,0.7-0.4,1.1l0.1,0.3c0.1,0.2,0.3,0.4,0.5,0.4l-0.4,5.2l-1.2,1.7
		C1367.3,165.4,1367.4,165.8,1367.6,165.8z"/>
	<path fill="#010101" d="M1363.4,165.8h3.1c0.2,0,0.4-0.4,0.2-0.6l-1.4-1.9l-0.3-5c0.1,0,0.3,0,0.4-0.1c0.3-0.2,0.4-0.6,0.3-1.1
		l-0.1-0.3c-0.2-0.4-0.5-0.5-0.8-0.3c-0.3,0.2-0.6,0.7-0.4,1.1l0.1,0.3c0.1,0.2,0.3,0.4,0.5,0.4l-0.3,5l-1.4,1.9
		C1363,165.4,1363.2,165.8,1363.4,165.8z"/>
	<path fill="#010101" d="M1416,165.8h3.1c0.2,0,0.4-0.4,0.2-0.6l-1.5-2.1l-0.4-5.2l-0.4,5.6l-1.2,1.7
		C1415.6,165.4,1415.8,165.8,1416,165.8z"/>
	<path fill="#010101" d="M1400.6,165.8h3.1c0.2,0,0.4-0.4,0.2-0.6l-1.4-1.9l-0.3-5c0.1,0,0.3,0,0.4-0.1c0.3-0.2,0.4-0.6,0.3-1.1
		l-0.1-0.3c-0.2-0.4-0.5-0.5-0.8-0.3s-0.6,0.7-0.4,1.1l0.1,0.3c0.1,0.2,0.3,0.4,0.5,0.4l-0.3,5l-1.4,1.9
		C1400.3,165.4,1400.4,165.8,1400.6,165.8z"/>
	<path fill="#010101" d="M1384.6,165.7h3.1c0.2,0,0.4-0.4,0.2-0.6l-1.5-2.1l-0.3-4.9c0.1,0,0.3,0,0.4-0.1c0.3-0.2,0.4-0.6,0.3-1.1
		l-0.1-0.3c-0.2-0.4-0.5-0.5-0.8-0.3c-0.3,0.2-0.6,0.7-0.4,1.1l0.1,0.3c0.1,0.2,0.3,0.4,0.5,0.4l-0.4,5.3l-1.2,1.7
		C1384.3,165.3,1384.4,165.7,1384.6,165.7z"/>
	<path fill="#010101" d="M1380.4,165.7h3.1c0.2,0,0.4-0.4,0.2-0.6l-1.4-1.9l-0.3-5.1c0.1,0,0.3,0,0.4-0.1c0.3-0.2,0.4-0.6,0.3-1.1
		l-0.1-0.3c-0.2-0.4-0.5-0.5-0.8-0.3c-0.3,0.2-0.6,0.7-0.4,1.1l0.1,0.3c0.1,0.2,0.3,0.4,0.5,0.4l-0.3,5.1l-1.4,1.9
		C1380,165.3,1380.2,165.7,1380.4,165.7z"/>
	<path fill="#010101" d="M1444.9,165.8h3.1c0.2,0,0.4-0.4,0.2-0.6l-1.5-2.1l-0.4-5.2l-0.4,5.6l-1.2,1.7
		C1444.5,165.4,1444.7,165.8,1444.9,165.8z"/>
	<path fill="#010101" d="M1482.5,165.8h3.1c0.2,0,0.4-0.4,0.2-0.6l-1.5-2.2l-0.3-4.6c0.2,0.1,0.3,0,0.5-0.1c0.3-0.2,0.4-0.7,0.3-1.1
		l-0.1-0.3c-0.2-0.4-0.5-0.5-0.8-0.3c-0.3,0.2-0.6,0.7-0.4,1.1l0.1,0.3c0.1,0.2,0.2,0.3,0.4,0.4l-0.3,5l-1.2,1.8
		C1482.2,165.4,1482.3,165.8,1482.5,165.8z"/>
	<path fill="#010101" d="M1478.3,165.8h3.1c0.2,0,0.4-0.4,0.2-0.6l-1.4-1.9l-0.3-4.8c0.2,0,0.3,0,0.5-0.1c0.3-0.2,0.4-0.7,0.3-1.1
		l-0.1-0.3c-0.2-0.4-0.5-0.5-0.8-0.3c-0.3,0.2-0.6,0.7-0.4,1.1l0.1,0.3c0.1,0.2,0.2,0.3,0.4,0.4l-0.3,4.8l-1.4,1.9
		C1477.9,165.4,1478,165.8,1478.3,165.8z"/>
	<path fill="#010101" d="M1615.5,165.5h3.1c0.2,0,0.4-0.4,0.2-0.6l-1.2-1.7l-0.4-5.6l-0.4,5.2l-1.5,2.1
		C1615.2,165.1,1615.3,165.5,1615.5,165.5z"/>
	<path fill="#010101" d="M1619.8,165.5h3.1c0.2,0,0.4-0.4,0.2-0.6l-1.4-1.9l-0.4-5.4l-0.4,5.4l-1.4,1.9
		C1619.4,165.1,1619.5,165.5,1619.8,165.5z"/>
	<path fill="#010101" d="M1567.2,165.5h3.1c0.2,0,0.4-0.4,0.2-0.6l-1.2-1.7l-0.4-5.6l-0.4,5.2l-1.5,2.1
		C1566.8,165.1,1566.9,165.5,1567.2,165.5z"/>
	<path fill="#010101" d="M1582.5,165.5h3.1c0.2,0,0.4-0.4,0.2-0.6l-1.4-1.9l-0.4-5.4l-0.4,5.4l-1.4,1.9
		C1582.2,165.1,1582.3,165.5,1582.5,165.5z"/>
	<path fill="#010101" d="M1598.5,165.4h3.1c0.2,0,0.4-0.4,0.2-0.6l-1.2-1.7l-0.4-5.6l-0.4,5.2l-1.5,2.1
		C1598.2,165,1598.3,165.4,1598.5,165.4z"/>
	<path fill="#010101" d="M1602.8,165.4h3.1c0.2,0,0.4-0.4,0.2-0.6l-1.4-1.9l-0.4-5.4l-0.4,5.4l-1.4,1.9
		C1602.4,165,1602.5,165.4,1602.8,165.4z"/>
	<path fill="#010101" d="M1538.3,165.5h3.1c0.2,0,0.4-0.4,0.2-0.6l-1.2-1.7l-0.4-5.6l-0.4,5.2l-1.5,2.1
		C1537.9,165.1,1538,165.5,1538.3,165.5z"/>
	<path fill="#010101" d="M1506.4,157.5l-0.4,5.4l-1.4,1.9c-0.2,0.2,0,0.6,0.2,0.6h3.1c0.2,0,0.4-0.4,0.2-0.6l-1.4-1.9L1506.4,157.5z
		"/>
	<path fill="#010101" d="M1502.3,157.5l-0.4,5.2l-1.5,2.1c-0.2,0.2,0,0.6,0.2,0.6h3.1c0.2,0,0.4-0.4,0.2-0.6l-1.2-1.7L1502.3,157.5z
		"/>
	<path fill="#010101" d="M1338.6,184.6h3.1c0.2,0,0.4-0.4,0.2-0.6l-1.4-1.9l-0.4-5.3c0.1,0,0.3,0,0.4-0.1c0.3-0.2,0.4-0.6,0.3-1.1
		l-0.1-0.3c-0.2-0.4-0.5-0.5-0.8-0.3c-0.3,0.2-0.6,0.7-0.4,1.1l0.1,0.3c0.1,0.2,0.3,0.4,0.5,0.4l-0.4,5.3l-1.4,1.9
		C1338.2,184.2,1338.4,184.6,1338.6,184.6z"/>
	<path fill="#010101" d="M1673.8,208.7l0.2-4.7h3l-2.6-8.1l0.5-9.4h-3.1v1l-0.5-1.7h-0.9l0.3-0.2h0.8c0.2,0,0.4-0.4,0.2-0.6
		l-0.1-0.1l0.1-0.1h-0.2l-1.2-1.8l-0.4-5.4l-0.4,5.4l-1.2,1.8h-20.1l-1.1-1.5l-0.4-5.4l-0.4,5.4l-1.1,1.5h-16v-7.5h-130v-1.4h130
		v-2.4h0.3l1.5-1.9h-1.8h-5.9l-0.3-1l0.2-3.6l0,0l1.1-1.5h-68.9c0.2-0.1,0.3-0.4,0.1-0.6l-1.2-1.7l-0.4-5.6l-0.4,5.2l-1.3,2.1
		c-0.1,0.2-0.1,0.5,0.1,0.6h-28.5c0.2-0.1,0.3-0.4,0.1-0.6l-1.2-1.7l-0.4-5.6l-0.4,5.2l-1.5,2.1c-0.1,0.2-0.1,0.5,0.1,0.6h-21.7v0.1
		H1486v0.2h-20.4c0.2-0.1,0.3-0.4,0.1-0.6l-1.5-2.1l-0.3-4.8c0.1,0,0.3,0,0.4-0.1c0.3-0.2,0.4-0.6,0.3-1.1l-0.1-0.3
		c-0.2-0.4-0.5-0.5-0.8-0.3c-0.3,0.2-0.6,0.7-0.4,1.1l0.1,0.3c0.1,0.2,0.3,0.4,0.5,0.4l-0.4,5.2l-1.2,1.7c-0.1,0.2-0.1,0.5,0.1,0.6
		h-28.5c0.2-0.1,0.3-0.4,0.1-0.6l-1.5-2.1l-0.4-5.2l-0.4,5.6l-1.2,1.7c-0.1,0.2-0.1,0.5,0.1,0.6h-68.8l1.1,1.5l0,0l0.2,3.6l-0.2,0.7
		h-5.2h-1.8l1.5,1.9h0.3v2.4H1486v1.4h-128.3v7.5h-39c0.1-0.1,0.2-0.4,0-0.5l-1.4-1.9l-0.4-5.4l-0.4,5.4l-1.3,1.8
		c-0.1,0.2-0.1,0.4,0,0.5l0,0l1.6,1h-1.8l-0.2,0.8h-2.9v10l-2.1,7.5h2.1v4.7h-2.7l1.9,50.2h364.3l2.3-50.2H1673.8z M1387.6,168.8
		h12.2c0,0.1,0,0.1,0,0.2c0,0.7,0.3,1.4,0.7,1.9H1387c0.4-0.5,0.7-1.1,0.7-1.9C1387.6,168.9,1387.6,168.8,1387.6,168.8z
		 M1599.2,170.6h-13.4c0.4-0.5,0.7-1.1,0.7-1.9c0-0.1,0-0.1,0-0.2h12.2c0,0.1,0,0.1,0,0.2C1598.6,169.5,1598.8,170.1,1599.2,170.6z
		 M1524.6,168.5h12.7c0,0.1,0,0.1,0,0.2c0,0.7,0.3,1.4,0.7,1.9h-13.9c0.4-0.5,0.7-1.1,0.7-1.9
		C1524.7,168.7,1524.7,168.6,1524.6,168.5z M1582.1,170.6h-11.6c0.4-0.5,0.7-1.1,0.7-1.9c0-0.1,0-0.1,0-0.2h10.3c0,0.1,0,0.1,0,0.2
		C1581.5,169.5,1581.7,170.1,1582.1,170.6z M1566.9,170.6h-11.2c0.4-0.5,0.7-1.1,0.7-1.9c0-0.1,0-0.1,0-0.2h9.9c0,0.1,0,0.1,0,0.2
		C1566.2,169.5,1566.5,170.1,1566.9,170.6z M1552,170.6h-10.4c0.4-0.5,0.7-1.1,0.7-1.9c0-0.1,0-0.1,0-0.2h9.1c0,0.1,0,0.1,0,0.2
		C1551.3,169.5,1551.6,170.1,1552,170.6z M1519.7,168.5c0,0.1,0,0.1,0,0.2c0,0.7,0.3,1.4,0.7,1.9h-11.9c0.1-0.3,0.2-0.6,0.2-1
		s-0.1-0.8-0.2-1.1L1519.7,168.5L1519.7,168.5z M1404.8,168.8h10.3c0,0.1,0,0.1,0,0.2c0,0.7,0.3,1.4,0.7,1.9h-11.7
		c0.4-0.5,0.7-1.1,0.7-1.9C1404.8,168.9,1404.8,168.8,1404.8,168.8z M1462.2,170.9h-13.9c0.4-0.5,0.7-1.1,0.7-1.9c0-0.1,0-0.1,0-0.2
		h12.7c0,0.1,0,0.1,0,0.2C1461.6,169.7,1461.8,170.4,1462.2,170.9z M1444.6,170.9h-10.4c0.4-0.5,0.7-1.1,0.7-1.9c0-0.1,0-0.1,0-0.2
		h9.1c0,0.1,0,0.1,0,0.2C1443.9,169.7,1444.2,170.4,1444.6,170.9z M1430.6,170.9h-11.2c0.4-0.5,0.7-1.1,0.7-1.9c0-0.1,0-0.1,0-0.2
		h9.9c0,0.1,0,0.1,0,0.2C1429.9,169.7,1430.1,170.4,1430.6,170.9z M1477.8,170.9h-11.9c0.4-0.5,0.7-1.1,0.7-1.9c0-0.1,0-0.1,0-0.2
		h11.4c-0.1,0.3-0.2,0.7-0.2,1.1C1477.7,170.2,1477.7,170.6,1477.8,170.9z M1605.8,170.6c0.4-0.5,0.7-1.1,0.7-1.9c0-0.1,0-0.1,0-0.2
		h8.8v2.1L1605.8,170.6L1605.8,170.6z M1371,168.8h8.8c0,0.1,0,0.1,0,0.2c0,0.7,0.3,1.4,0.7,1.9h-9.5
		C1371,170.9,1371,168.8,1371,168.8z M1664.9,192.5l-1.7,0.1l-0.1-2.7l1.7-0.1L1664.9,192.5z M1661.6,192.5l-1.7,0.1l-0.1-2.7
		l1.7-0.1L1661.6,192.5z M1658.6,192.6l-1.7,0.1l-0.1-2.7l1.7-0.1L1658.6,192.6z M1655.5,192.5h-1.2l-0.1-2.7h1.3V192.5
		L1655.5,192.5z M1656,192v0.5l0,0V192z M1653,192.5l-1.7,0.1l-0.1-2.7l1.7-0.1L1653,192.5z M1645.5,189.8v2.7l-1.7,0.1l-0.1-2.7
		l2.5-0.1l0,0H1645.5z M1648.6,189.9L1648.6,189.9L1648.6,189.9l0.5-0.1l0,0h1.1l0.1,2.7l-1.7,0.1l0,0h-0.1v-2L1648.6,189.9z
		 M1642.3,189.9v2.7h-1.7v-2.7H1642.3z M1639.1,189.9v2.7h-1.7v-2.7H1639.1z M1636.2,192.6h-1.5v-2.7h1.5V192.6z M1632.7,192.6h-1.4
		v-2.7h1.4V192.6z M1356.8,191.3l-1.7,0.1l-0.1-2.7l1.7-0.1L1356.8,191.3z M1353.5,191.3l-1.7,0.1l-0.1-2.7l1.7-0.1L1353.5,191.3z
		 M1345.2,188.7l1.4-0.1l0.1,2.7l-1.5,0.1V188.7z M1344,191.3l-1.7,0.1l-0.1-2.7l1.7-0.1L1344,191.3z M1338.3,191.3l-1.7,0.1
		l-0.1-2.7l1.7-0.1L1338.3,191.3z M1333.9,191.4l-0.1-2.7l1.7-0.1l0.1,2.7L1333.9,191.4z M1332.4,188.7v2.7h-1.7v-2.7H1332.4z
		 M1328.9,188.7v2.7h-1.7v-2.7H1328.9z M1325.4,191.4h-1.5v-2.7h1.5V191.4z M1321.8,191.4h-1.4v-2.7h1.4V191.4z M1350,188.7v2.7
		l-1.4,0.1l-0.1-2.7L1350,188.7z M1315.1,204h356.6v4.7h-356.6V204z"/>
	<rect x="1320.5" y="188.7" fill="#FFFFFF" width="1.4" height="2.7"/>
	<rect x="1323.9" y="188.7" fill="#FFFFFF" width="1.5" height="2.7"/>
	<rect x="1327.2" y="188.7" fill="#FFFFFF" width="1.7" height="2.7"/>
	<rect x="1330.7" y="188.7" fill="#FFFFFF" width="1.7" height="2.7"/>
	<polygon fill="#FFFFFF" points="1333.8,188.7 1333.9,191.4 1335.6,191.3 1335.5,188.6 	"/>
	<polygon fill="#FFFFFF" points="1336.6,191.4 1338.3,191.3 1338.3,188.6 1336.6,188.7 	"/>
	<polygon fill="#FFFFFF" points="1342.3,191.4 1344,191.3 1343.9,188.6 1342.2,188.7 	"/>
	<polygon fill="#FFFFFF" points="1346.6,188.6 1345.2,188.7 1345.2,191.4 1346.7,191.3 	"/>
	<polygon fill="#FFFFFF" points="1350,191.4 1350,188.7 1348.4,188.7 1348.5,191.4 	"/>
	<polygon fill="#FFFFFF" points="1351.8,191.4 1353.5,191.3 1353.4,188.6 1351.8,188.7 	"/>
	<polygon fill="#FFFFFF" points="1355.1,191.4 1356.8,191.3 1356.7,188.6 1355,188.7 	"/>
	<rect x="1631.3" y="189.9" fill="#FFFFFF" width="1.4" height="2.7"/>
	<rect x="1634.8" y="189.9" fill="#FFFFFF" width="1.5" height="2.7"/>
	<rect x="1637.4" y="189.9" fill="#FFFFFF" width="1.7" height="2.7"/>
	<rect x="1640.6" y="189.9" fill="#FFFFFF" width="1.7" height="2.7"/>
	<polygon fill="#FFFFFF" points="1643.8,189.9 1643.8,192.6 1645.5,192.5 1645.5,189.8 1646.2,189.8 1646.2,189.8 	"/>
	<polygon fill="#FFFFFF" points="1648.6,192.5 1648.6,192.6 1650.3,192.5 1650.2,189.8 1649.1,189.9 1649.1,189.8 1648.6,189.9 
		1648.6,189.9 1648.6,189.9 1648.6,190.5 	"/>
	<polygon fill="#FFFFFF" points="1651.3,192.6 1653,192.5 1652.9,189.8 1651.3,189.9 	"/>
	<polygon fill="#FFFFFF" points="1656,192 1656,192.5 1656,192.5 	"/>
	<polygon fill="#FFFFFF" points="1654.3,192.6 1655.5,192.5 1655.5,189.9 1654.3,189.9 	"/>
	<polygon fill="#FFFFFF" points="1656.9,192.6 1658.6,192.6 1658.6,189.9 1656.9,189.9 	"/>
	<polygon fill="#FFFFFF" points="1660,192.6 1661.6,192.5 1661.6,189.8 1659.9,189.9 	"/>
	<polygon fill="#FFFFFF" points="1663.2,192.6 1664.9,192.5 1664.8,189.8 1663.1,189.9 	"/>
	<path fill="none" d="M1504.3,150.6c-0.7,0-1.1,0-1.1,0"/>
	<path fill="#010101" d="M1493.3,151.3c1.1-0.4,3.5-2.4,4.3-2.4c1.1,0,0.3,2.5,1.4,2.5l4.3-1.2c0.8,0,1.6,0,2.4,0
		c0,0,0.3,0.2,0.7,0.4c-0.9,0-1.6,0-2.1,0c0.5,0,1.3,0,2.1,0c1.1,0.7,3,1.9,3.1,1.9l3.3-1.9c0.8,0,1.5,0,1.9,0
		c0.1,0,0.2-0.2,0.2-0.4v-9.7c-0.7-1.3-1.2-2-1.9-3.3l-4.8,1.9c-1.1,0-1.2-2.3-2.3-2.3h-2.8l-3.2,1.2c0,0-1.3-1.9-1.7-2.4
		c-0.1-0.1-0.1-0.1-0.2-0.1c-0.7,0.3-4.1,2-4.9,2.4c-0.1,0.1-0.2,0.2-0.2,0.4v12.6C1493,151.2,1493.1,151.4,1493.3,151.3z"/>
	<path fill="#010101" d="M1316.4,176.4c0.2,0.4,0.6,0.5,0.9,0.3c0.3-0.2,0.4-0.6,0.3-1.1l-0.1-0.3c-0.2-0.4-0.5-0.5-0.8-0.3
		c-0.3,0.2-0.6,0.7-0.4,1.1L1316.4,176.4z"/>
	<path fill="#010101" d="M1416.9,157.1c0.2,0.4,0.6,0.5,0.9,0.3c0.3-0.2,0.4-0.6,0.3-1.1l-0.1-0.3c-0.2-0.4-0.5-0.5-0.8-0.3
		c-0.3,0.2-0.6,0.7-0.4,1.1L1416.9,157.1z"/>
	<path fill="#010101" d="M1431.7,157.1c0.2,0.4,0.6,0.5,0.9,0.3c0.3-0.2,0.4-0.6,0.3-1.1l-0.1-0.3c-0.2-0.4-0.5-0.5-0.8-0.3
		s-0.6,0.7-0.4,1.1L1431.7,157.1z"/>
	<path fill="#010101" d="M1445.8,156.9c0.2,0.4,0.6,0.5,0.9,0.3c0.3-0.2,0.4-0.6,0.3-1.1l-0.1-0.3c-0.2-0.4-0.5-0.5-0.8-0.3
		s-0.6,0.7-0.4,1.1L1445.8,156.9z"/>
</g>
<path fill="#010101" stroke="#010101" stroke-miterlimit="10" d="M1500.2,121.2"/>
<rect x="1315.3" y="184.8" fill="#010101" stroke="#010101" stroke-miterlimit="10" width="47.4" height="2"/>
<rect x="1309.8" y="204" fill="#010101" stroke="#010101" stroke-miterlimit="10" width="367.3" height="17"/>
<rect x="1357.7" y="175.6" fill="#010101" stroke="#010101" stroke-miterlimit="10" width="271.5" height="27"/>
<path fill="#010101" stroke="#010101" stroke-miterlimit="10" d="M1502,158.4c-0.1-0.2,0-0.6,0.3-0.7c0.1,0,0.3,0.2,0.3,0.4
	s-0.1,0.6-0.3,0.6C1502.3,158.7,1502.1,158.6,1502,158.4z"/>
<path fill="#010101" stroke="#010101" stroke-miterlimit="10" d="M1506.1,158.4c-0.1-0.2,0-0.6,0.3-0.7c0.1,0,0.3,0.2,0.3,0.4
	s-0.1,0.6-0.3,0.6C1506.3,158.7,1506.2,158.6,1506.1,158.4z"/>
<path fill="#010101" stroke="#010101" stroke-miterlimit="10" d="M1522.2,158.4c-0.1-0.2,0-0.6,0.3-0.7c0.1,0,0.3,0.2,0.3,0.4
	s-0.1,0.6-0.3,0.6C1522.4,158.7,1522.2,158.6,1522.2,158.4z"/>
<path fill="#010101" stroke="#010101" stroke-miterlimit="10" d="M1539.5,158.2c-0.1-0.2,0-0.6,0.3-0.7c0.1,0,0.3,0.2,0.3,0.4
	c0.1,0.2-0.1,0.6-0.3,0.6C1539.7,158.6,1539.6,158.4,1539.5,158.2z"/>
<path fill="#010101" stroke="#010101" stroke-miterlimit="10" d="M1553.7,157.8c-0.1-0.2,0-0.6,0.3-0.7c0.1,0,0.3,0.2,0.3,0.4
	s-0.1,0.6-0.3,0.6C1554,158.1,1553.8,158,1553.7,157.8z"/>
<path fill="#010101" stroke="#010101" stroke-miterlimit="10" d="M1621,157.8c-0.1-0.2,0-0.6,0.3-0.7c0.1,0,0.3,0.2,0.3,0.4
	c0.1,0.2-0.1,0.6-0.3,0.6C1621.2,158.2,1621.1,158,1621,157.8z"/>
<path fill="#010101" stroke="#010101" stroke-miterlimit="10" d="M1616.9,157.7c-0.1-0.2,0-0.6,0.3-0.7c0.1,0,0.3,0.2,0.3,0.4
	c0.1,0.2-0.1,0.6-0.3,0.6C1617.1,158.1,1616.9,157.9,1616.9,157.7z"/>
<path fill="#010101" stroke="#010101" stroke-miterlimit="10" d="M1604,157.6c-0.1-0.2,0-0.6,0.3-0.7c0.1,0,0.3,0.2,0.3,0.4
	c0.1,0.2-0.1,0.6-0.3,0.6C1604.2,158,1604.1,157.8,1604,157.6z"/>
<path fill="#010101" stroke="#010101" stroke-miterlimit="10" d="M1599.7,157.7c-0.1-0.2,0-0.6,0.3-0.7c0.1,0,0.3,0.2,0.3,0.4
	c0.1,0.2-0.1,0.6-0.3,0.6C1600,158.1,1599.8,157.9,1599.7,157.7z"/>
<path fill="#010101" stroke="#010101" stroke-miterlimit="10" d="M1583.8,157.7c-0.1-0.2,0-0.6,0.3-0.7c0.1,0,0.3,0.2,0.3,0.4
	c0.1,0.2-0.1,0.6-0.3,0.6C1584,158.1,1583.8,157.9,1583.8,157.7z"/>
<path fill="#010101" stroke="#010101" stroke-miterlimit="10" d="M1568.5,157.7c-0.1-0.2,0-0.6,0.3-0.7c0.1,0,0.3,0.2,0.3,0.4
	c0.1,0.2-0.1,0.6-0.3,0.6C1568.7,158.1,1568.6,157.9,1568.5,157.7z"/>
<path fill="#010101" stroke="#010101" stroke-miterlimit="10" d="M1669.6,177.8c-0.1-0.2,0-0.6,0.3-0.7c0.1,0,0.3,0.2,0.3,0.4
	c0.1,0.2-0.1,0.6-0.3,0.6C1669.8,178.1,1669.7,178,1669.6,177.8z"/>
<path fill="#010101" stroke="#010101" stroke-miterlimit="10" d="M1646.6,177.3c-0.1-0.2,0-0.6,0.3-0.7c0.1,0,0.3,0.2,0.3,0.4
	c0.1,0.2-0.1,0.6-0.3,0.6C1646.8,177.6,1646.7,177.5,1646.6,177.3z"/>
<rect x="1357.7" y="172.8" fill="#010101" stroke="#010101" stroke-miterlimit="10" width="6" height="8"/>
<rect x="1627.1" y="173.4" fill="#010101" stroke="#010101" stroke-miterlimit="10" width="2.1" height="14.8"/>
<rect x="1493.3" y="149.6" fill="#010101" stroke="#010101" stroke-miterlimit="10" width="0.4" height="22.7"/>
<rect x="1374" y="168.4" fill="#010101" stroke="#010101" stroke-miterlimit="10" width="0.4" height="22.7"/>
<rect x="1377" y="168.4" fill="#010101" stroke="#010101" stroke-miterlimit="10" width="0.4" height="22.7"/>
<rect x="1370.8" y="168.4" fill="#010101" stroke="#010101" stroke-miterlimit="10" width="0.4" height="22.7"/>
<rect x="1380.2" y="168.4" fill="#010101" stroke="#010101" stroke-miterlimit="10" width="0.4" height="22.7"/>
<rect x="1392" y="166.8" fill="#010101" stroke="#010101" stroke-miterlimit="10" width="0.4" height="22.7"/>
<rect x="1394.9" y="166.8" fill="#010101" stroke="#010101" stroke-miterlimit="10" width="0.4" height="22.7"/>
<rect x="1388.7" y="166.8" fill="#010101" stroke="#010101" stroke-miterlimit="10" width="0.4" height="22.7"/>
<rect x="1398.2" y="166.8" fill="#010101" stroke="#010101" stroke-miterlimit="10" width="0.4" height="22.7"/>
<rect x="1408.2" y="168.4" fill="#010101" stroke="#010101" stroke-miterlimit="10" width="0.4" height="22.7"/>
<rect x="1411.1" y="168.4" fill="#010101" stroke="#010101" stroke-miterlimit="10" width="0.4" height="22.7"/>
<rect x="1404.9" y="168.4" fill="#010101" stroke="#010101" stroke-miterlimit="10" width="0.4" height="22.7"/>
<rect x="1414.4" y="168.4" fill="#010101" stroke="#010101" stroke-miterlimit="10" width="0.4" height="22.7"/>
<rect x="1423.2" y="167.5" fill="#010101" stroke="#010101" stroke-miterlimit="10" width="0.4" height="22.7"/>
<rect x="1426.2" y="167.5" fill="#010101" stroke="#010101" stroke-miterlimit="10" width="0.4" height="22.7"/>
<rect x="1420" y="167.5" fill="#010101" stroke="#010101" stroke-miterlimit="10" width="0.4" height="22.7"/>
<rect x="1429.5" y="167.5" fill="#010101" stroke="#010101" stroke-miterlimit="10" width="0.4" height="22.7"/>
<rect x="1437.7" y="168.4" fill="#010101" stroke="#010101" stroke-miterlimit="10" width="0.4" height="22.7"/>
<rect x="1440.7" y="168.4" fill="#010101" stroke="#010101" stroke-miterlimit="10" width="0.4" height="22.7"/>
<rect x="1434.5" y="168.4" fill="#010101" stroke="#010101" stroke-miterlimit="10" width="0.4" height="22.7"/>
<rect x="1443.9" y="168.4" fill="#010101" stroke="#010101" stroke-miterlimit="10" width="0.4" height="22.7"/>
<rect x="1453.5" y="167.5" fill="#010101" stroke="#010101" stroke-miterlimit="10" width="0.4" height="22.7"/>
<rect x="1456.5" y="167.5" fill="#010101" stroke="#010101" stroke-miterlimit="10" width="0.4" height="22.7"/>
<rect x="1450.3" y="167.5" fill="#010101" stroke="#010101" stroke-miterlimit="10" width="0.4" height="22.7"/>
<rect x="1459.8" y="167.5" fill="#010101" stroke="#010101" stroke-miterlimit="10" width="0.4" height="22.7"/>
<rect x="1470.2" y="168.4" fill="#010101" stroke="#010101" stroke-miterlimit="10" width="0.4" height="22.7"/>
<rect x="1473.1" y="168.4" fill="#010101" stroke="#010101" stroke-miterlimit="10" width="0.4" height="22.7"/>
<rect x="1466.9" y="168.4" fill="#010101" stroke="#010101" stroke-miterlimit="10" width="0.4" height="22.7"/>
<rect x="1476.4" y="168.4" fill="#010101" stroke="#010101" stroke-miterlimit="10" width="0.4" height="22.7"/>
<rect x="1512.6" y="168.4" fill="#010101" stroke="#010101" stroke-miterlimit="10" width="0.4" height="22.7"/>
<rect x="1515.6" y="168.4" fill="#010101" stroke="#010101" stroke-miterlimit="10" width="0.4" height="22.7"/>
<rect x="1509.4" y="168.4" fill="#010101" stroke="#010101" stroke-miterlimit="10" width="0.4" height="22.7"/>
<rect x="1518.8" y="168.4" fill="#010101" stroke="#010101" stroke-miterlimit="10" width="0.4" height="22.7"/>
<rect x="1529.2" y="167.5" fill="#010101" stroke="#010101" stroke-miterlimit="10" width="0.4" height="22.7"/>
<rect x="1532.2" y="167.5" fill="#010101" stroke="#010101" stroke-miterlimit="10" width="0.4" height="22.7"/>
<rect x="1526" y="167.5" fill="#010101" stroke="#010101" stroke-miterlimit="10" width="0.4" height="22.7"/>
<rect x="1535.5" y="167.5" fill="#010101" stroke="#010101" stroke-miterlimit="10" width="0.4" height="22.7"/>
<rect x="1545.1" y="168.4" fill="#010101" stroke="#010101" stroke-miterlimit="10" width="0.4" height="22.7"/>
<rect x="1548" y="168.4" fill="#010101" stroke="#010101" stroke-miterlimit="10" width="0.4" height="22.7"/>
<rect x="1541.8" y="168.4" fill="#010101" stroke="#010101" stroke-miterlimit="10" width="0.4" height="22.7"/>
<rect x="1551.3" y="168.4" fill="#010101" stroke="#010101" stroke-miterlimit="10" width="0.4" height="22.7"/>
<rect x="1559.5" y="167.5" fill="#010101" stroke="#010101" stroke-miterlimit="10" width="0.4" height="22.7"/>
<rect x="1562.5" y="167.5" fill="#010101" stroke="#010101" stroke-miterlimit="10" width="0.4" height="22.7"/>
<rect x="1556.3" y="167.5" fill="#010101" stroke="#010101" stroke-miterlimit="10" width="0.4" height="22.7"/>
<rect x="1565.8" y="167.5" fill="#010101" stroke="#010101" stroke-miterlimit="10" width="0.4" height="22.7"/>
<rect x="1574.6" y="167.5" fill="#010101" stroke="#010101" stroke-miterlimit="10" width="0.4" height="22.7"/>
<rect x="1577.6" y="167.5" fill="#010101" stroke="#010101" stroke-miterlimit="10" width="0.4" height="22.7"/>
<rect x="1571.4" y="167.5" fill="#010101" stroke="#010101" stroke-miterlimit="10" width="0.4" height="22.7"/>
<rect x="1580.9" y="167.5" fill="#010101" stroke="#010101" stroke-miterlimit="10" width="0.4" height="22.7"/>
<rect x="1590.8" y="167.5" fill="#010101" stroke="#010101" stroke-miterlimit="10" width="0.4" height="22.7"/>
<rect x="1593.8" y="167.5" fill="#010101" stroke="#010101" stroke-miterlimit="10" width="0.4" height="22.7"/>
<rect x="1587.6" y="167.5" fill="#010101" stroke="#010101" stroke-miterlimit="10" width="0.4" height="22.7"/>
<rect x="1597" y="167.5" fill="#010101" stroke="#010101" stroke-miterlimit="10" width="0.4" height="22.7"/>
<rect x="1608.8" y="168.4" fill="#010101" stroke="#010101" stroke-miterlimit="10" width="0.4" height="22.7"/>
<rect x="1611.7" y="168.4" fill="#010101" stroke="#010101" stroke-miterlimit="10" width="0.4" height="22.7"/>
<rect x="1605.6" y="168.4" fill="#010101" stroke="#010101" stroke-miterlimit="10" width="0.4" height="22.7"/>
<rect x="1615" y="168.4" fill="#010101" stroke="#010101" stroke-miterlimit="10" width="0.4" height="22.7"/>
<rect x="1380" y="168.2" fill="#010101" stroke="#010101" stroke-miterlimit="10" width="7.5" height="13.3"/>
<rect x="1400.1" y="166.8" fill="#010101" stroke="#010101" stroke-miterlimit="10" width="4.2" height="26"/>
<rect x="1429.3" y="166.9" fill="#010101" stroke="#010101" stroke-miterlimit="10" width="4.9" height="12.3"/>
<rect x="1443.2" y="166.9" fill="#010101" stroke="#010101" stroke-miterlimit="10" width="6.1" height="20"/>
<rect x="1461.2" y="166.7" fill="#010101" stroke="#010101" stroke-miterlimit="10" width="5.2" height="13.3"/>
<rect x="1520.2" y="166.7" fill="#010101" stroke="#010101" stroke-miterlimit="10" width="5.2" height="13.3"/>
<rect x="1536.9" y="166.4" fill="#010101" stroke="#010101" stroke-miterlimit="10" width="5.2" height="13.3"/>
<rect x="1551.8" y="166.7" fill="#010101" stroke="#010101" stroke-miterlimit="10" width="5.2" height="13.3"/>
<rect x="1565.9" y="166.2" fill="#010101" stroke="#010101" stroke-miterlimit="10" width="5.2" height="13.3"/>
<rect x="1581.5" y="166.2" fill="#010101" stroke="#010101" stroke-miterlimit="10" width="5.2" height="13.3"/>
<rect x="1597.8" y="166.7" fill="#010101" stroke="#010101" stroke-miterlimit="10" width="5.2" height="13.3"/>
<rect x="1503.8" y="166.7" fill="#010101" stroke="#010101" stroke-miterlimit="10" width="5.2" height="13.3"/>
<rect x="1415.1" y="168.3" fill="#010101" stroke="#010101" stroke-miterlimit="10" width="5.2" height="13.3"/>
<rect x="1668.6" y="185.2" fill="#010101" stroke="#010101" stroke-miterlimit="10" width="6.3" height="29.9"/>
<path fill="#010101" stroke="#010101" stroke-miterlimit="10" d="M1727.9,268.5l-30-0.2c-5.2,0-19.5-3.5-19.4-7.2l11.4-131.4
	c0-3.7,4.3-6.7,9.6-6.7l30,0.2c5.2,0,9.5,3.1,9.4,6.8l10.6,131.9C1749.5,265.6,1733.2,268.5,1727.9,268.5z"/>
<path fill="#010101" stroke="#010101" stroke-miterlimit="10" d="M1838.2,142.4v118c0,0.6-0.7,1.1-1.5,1.1h-82.4
	c-0.8,0-1.5-0.5-1.5-1.1v-118c0-0.6,0.7-1.1,1.5-1.1h13.7c0.8,0,1.5-0.5,1.5-1.1l0,0v-2.8c0-1.2,1.4-2.2,3.1-2.2h45.9
	c1.7,0,3.1,1,3.1,2.2v2.8l0,0c0,0.6,0.7,1.1,1.5,1.1h13.7C1837.5,141.3,1838.2,141.8,1838.2,142.4z"/>
<path fill="#010101" stroke="#010101" stroke-miterlimit="10" d="M1738,138.4h-2.9c-0.8,0-1.4-0.5-1.4-1l2.4-24.4
	c0-0.6-1.8-5.4-1-5.4h2.9c0.8,0,1.4,0.5,1.4,1v28.8C1739.5,138,1738.8,138.4,1738,138.4z"/>
<g id="XMLID_2_">
	<g>
		<polygon fill="#010101" points="1931.9,131.7 1909.2,139.6 1864,139.6 1841.3,131.7 1864,123.7 1909.2,123.7 		"/>
	</g>
	<g>
		<polygon fill="none" stroke="#010101" stroke-miterlimit="10" points="1931.9,131.7 1909.2,139.6 1864,139.6 1841.3,131.7 
			1864,123.7 1909.2,123.7 		"/>
		<line fill="none" stroke="#010101" stroke-miterlimit="10" x1="1841.3" y1="131.7" x2="1841.3" y2="262.4"/>
		<line fill="none" stroke="#010101" stroke-miterlimit="10" x1="1931.9" y1="131.7" x2="1931.9" y2="262.2"/>
	</g>
</g>
<line fill="none" stroke="#010101" stroke-miterlimit="10" x1="1830.3" y1="260.7" x2="1920.9" y2="260.4"/>
<rect x="1841.3" y="131.7" fill="#010101" width="90.5" height="130.5"/>
<rect x="1943.2" y="119.6" fill="#010101" width="11.9" height="141.8"/>
<path fill="#010101" d="M1968.3,119.5h-38.6c-3,0-5.4-2.4-5.4-5.4v0c0-3,2.4-5.4,5.4-5.4h38.6c3,0,5.4,2.4,5.4,5.4v0
	C1973.7,117,1971.3,119.5,1968.3,119.5z"/>
<path fill="#010101" d="M1965.3,122.8h-31.9c-1.7,0-3.1-1.4-3.1-3.1v0c0-1.7,1.4-3.1,3.1-3.1h31.9c1.7,0,3.1,1.4,3.1,3.1v0
	C1968.4,121.4,1967,122.8,1965.3,122.8z"/>
<path fill="#010101" d="M1968.3,105.9h-38.6c-3,0-5.4-2.4-5.4-5.4v0c0-3,2.4-5.4,5.4-5.4h38.6c3,0,5.4,2.4,5.4,5.4v0
	C1973.7,103.5,1971.3,105.9,1968.3,105.9z"/>
<path fill="#010101" d="M1968.6,92.2h-38.6c-3,0-5.4-2.4-5.4-5.4v0c0-3,2.4-5.4,5.4-5.4h38.6c3,0,5.4,2.4,5.4,5.4v0
	C1974.1,89.7,1971.6,92.2,1968.6,92.2z"/>
<path fill="#010101" d="M1968.3,78.2h-38.6c-3,0-5.4-2.4-5.4-5.4v0c0-3,2.4-5.4,5.4-5.4h38.6c3,0,5.4,2.4,5.4,5.4v0
	C1973.7,75.8,1971.3,78.2,1968.3,78.2z"/>
<polygon fill="#010101" points="2017.9,264.1 1979.2,264.1 1979.2,84.3 2031.2,88.1 "/>
<rect x="2028.2" y="201.8" fill="#010101" width="211" height="59.6"/>
<ellipse fill="#010101" cx="2133.7" cy="224.8" rx="45.9" ry="30.7"/>
<path fill="#010101" d="M2194.6,225.5h-10.9c-6,0-10.9-2.8-10.9-6.2l-2.3-50c0-3.4,7.2-6.5,13.2-6.5h10.9c6,0,14.8,2.5,14.8,6
	l-3.9,50.5C2205.6,222.7,2200.6,225.5,2194.6,225.5z"/>
<path fill="#010101" d="M2084.6,225.5h-10.9c-6,0-10.9-2.8-10.9-6.2l-2.5-49.7c0-3.4,7.4-6.7,13.4-6.7h10.9c6,0,15,3.2,15,6.6
	l-4.1,49.9C2095.5,222.7,2090.6,225.5,2084.6,225.5z"/>
<polygon fill="#010101" points="2086,186.5 2072.3,186.5 2070,149 2088.7,149 "/>
<polygon fill="#010101" points="2196,186.1 2182.4,186.1 2179.6,149 2199.4,149 "/>
<ellipse fill="#010101" cx="2079.3" cy="150.1" rx="9.2" ry="4.6"/>
<ellipse fill="#010101" cx="2189.8" cy="149.5" rx="9.2" ry="4.6"/>
<line fill="none" stroke="#010101" stroke-width="2" stroke-miterlimit="10" x1="2189.5" y1="138.6" x2="2189.5" y2="151.2"/>
<line fill="none" stroke="#010101" stroke-width="2" stroke-miterlimit="10" x1="2193.2" y1="141.2" x2="2185.9" y2="141.2"/>
<line fill="none" stroke="#010101" stroke-width="2" stroke-miterlimit="10" x1="2079.4" y1="139.6" x2="2079.4" y2="152.2"/>
<line fill="none" stroke="#010101" stroke-width="2" stroke-miterlimit="10" x1="2083" y1="142.2" x2="2075.7" y2="142.2"/>
<path fill="none" stroke="#010101" stroke-width="8" stroke-miterlimit="10" d="M2116,195.5c4.2-1.8,0.3,2.2,6.3,0.3
	c-2.4,3.3,2.2,2.6-0.2,3c-0.9-0.7-0.7,1.4-0.9,0.4c0.1,1,11.6-2,14.4-1.8c-2,0.8,15-15.6-13.6,1.4c0.5-1.4-1.9,7.2-0.3,6.2
	c-0.8,0.9,0.3-5.5-0.5-4.6"/>
<path fill="#010101" stroke="#010101" stroke-miterlimit="10" d="M2298.2,142.6v118c0,0.6-0.4,1.1-1,1.1h-52.7c-0.5,0-1-0.5-1-1.1
	v-118c0-0.6,0.4-1.1,1-1.1h8.8c0.5,0,1-0.5,1-1.1v0v-2.8c0-1.2,0.9-2.2,2-2.2h29.3c1.1,0,2,1,2,2.2v2.8v0c0,0.6,0.4,1.1,1,1.1h8.8
	C2297.8,141.5,2298.2,142,2298.2,142.6z"/>
<path fill="#010101" stroke="#010101" stroke-miterlimit="10" d="M2372.5,263.5h-57.6c-4.2,0-7.7-2.3-7.7-5V132
	c0-2.8,32.3-13.7,36.5-13.7l28.8,8.7c4.2,0,7.7,2.3,7.7,5v126.4C2380.2,261.2,2376.8,263.5,2372.5,263.5z"/>
<rect x="2478.2" y="144.9" fill="#010101" stroke="#010101" stroke-miterlimit="10" width="50" height="114.1"/>
<rect x="2528.2" y="170.7" fill="#010101" stroke="#010101" stroke-miterlimit="10" width="23" height="88.3"/>
<rect x="2547.2" y="113.3" fill="#010101" stroke="#010101" stroke-miterlimit="10" width="27" height="145.6"/>
<rect x="2574.2" y="155.7" fill="#010101" stroke="#010101" stroke-miterlimit="10" width="27" height="103.4"/>
<rect x="2447.2" y="170.7" fill="#010101" stroke="#010101" stroke-miterlimit="10" width="37" height="88.5"/>
<path fill="#010101" stroke="#010101" stroke-miterlimit="10" d="M2471.7,255.1h-12c-6.9,0-12.5-5.6-12.5-12.5V117.9
	c0-6.9,5.6-12.5,12.5-12.5h12c6.9,0,12.5,5.6,12.5,12.5v124.6C2484.2,249.5,2478.6,255.1,2471.7,255.1z"/>
<path fill="#010101" stroke="#010101" stroke-miterlimit="10" d="M2439.8,112.7c0,28.3-22.6,51.2-50.5,51.2V61.5
	C2417.2,61.5,2439.8,84.4,2439.8,112.7z"/>
<rect x="2389.3" y="110.8" fill="#010101" stroke="#010101" stroke-miterlimit="10" width="50.5" height="149.1"/>
<g>
	<path fill="none" d="M2870.5,171.9c0,0.1,0,0.1,0,0.2c0,0.7-0.3,1.4-0.7,1.9h11.6c-0.4-0.5-0.7-1.1-0.7-1.9c0-0.1,0-0.1,0-0.2
		H2870.5z"/>
	<path fill="none" d="M2703.4,174.3h11.6c-0.4-0.5-0.7-1.1-0.7-1.9c0-0.1,0-0.1,0-0.2h-10.2c0,0.1,0,0.1,0,0.2
		C2704.1,173.1,2703.8,173.8,2703.4,174.3z"/>
	<path fill="none" d="M2855.6,171.9c0,0.1,0,0.1,0,0.2c0,0.7-0.3,1.4-0.7,1.9h11.2c-0.4-0.5-0.7-1.1-0.7-1.9c0-0.1,0-0.1,0-0.2
		H2855.6z"/>
	<path fill="none" d="M2841.6,171.9c0,0.1,0,0.1,0,0.2c0,0.7-0.3,1.4-0.7,1.9h10.4c-0.4-0.5-0.7-1.1-0.7-1.9c0-0.1,0-0.1,0-0.2
		H2841.6z"/>
	<path fill="none" d="M2807.7,174h11.9c-0.4-0.5-0.7-1.1-0.7-1.9c0-0.1,0-0.1,0-0.2h-11.4c0.1,0.3,0.2,0.7,0.2,1.1
		C2807.8,173.4,2807.8,173.7,2807.7,174z"/>
	<path fill="none" d="M2765.8,172.2c0,0.1,0,0.1,0,0.2c0,0.7-0.3,1.4-0.7,1.9h11.9c-0.1-0.3-0.2-0.6-0.2-1s0.1-0.8,0.2-1.1
		L2765.8,172.2L2765.8,172.2z"/>
	<path fill="none" d="M2905.7,171.9c0,0.1,0,0.1,0,0.2c0,0.7-0.3,1.4-0.7,1.9h9.5v-2.1L2905.7,171.9L2905.7,171.9z"/>
	<path fill="none" d="M2734.2,172.2c0,0.1,0,0.1,0,0.2c0,0.7-0.3,1.4-0.7,1.9h10.4c-0.4-0.5-0.7-1.1-0.7-1.9c0-0.1,0-0.1,0-0.2
		H2734.2z"/>
	<path fill="none" d="M2719.3,172.2c0,0.1,0,0.1,0,0.2c0,0.7-0.3,1.4-0.7,1.9h11.2c-0.4-0.5-0.7-1.1-0.7-1.9c0-0.1,0-0.1,0-0.2
		H2719.3z"/>
	<path fill="none" d="M2748.2,172.2c0,0.1,0,0.1,0,0.2c0,0.7-0.3,1.4-0.7,1.9h14c-0.4-0.5-0.7-1.1-0.7-1.9c0-0.1,0-0.1,0-0.2H2748.2
		z"/>
	<rect x="2614.4" y="207.4" fill="none" width="356.6" height="4.7"/>
	<path fill="none" d="M2679.1,172.4c0-0.1,0-0.1,0-0.2h-8.8v2.1h9.5C2679.3,173.8,2679.1,173.1,2679.1,172.4z"/>
	<path fill="none" d="M2823.3,174h13.9c-0.4-0.5-0.7-1.1-0.7-1.9c0-0.1,0-0.1,0-0.2h-12.7c0,0.1,0,0.1,0,0.2
		C2824,172.9,2823.7,173.5,2823.3,174z"/>
	<path fill="none" d="M2686.3,174.3h13.4c-0.4-0.5-0.7-1.1-0.7-1.9c0-0.1,0-0.1,0-0.2h-12.1c0,0.1,0,0.1,0,0.2
		C2686.9,173.1,2686.7,173.8,2686.3,174.3z"/>
	<path fill="none" d="M2885.7,171.9c0,0.1,0,0.1,0,0.2c0,0.7-0.3,1.4-0.7,1.9h13.5c-0.4-0.5-0.7-1.1-0.7-1.9c0-0.1,0-0.1,0-0.2
		H2885.7z"/>
	<path fill="#010101" d="M2666.9,169.2h3.1c0.2,0,0.4-0.4,0.2-0.6l-1.5-2.1l-0.3-4.8c0.1,0,0.3,0,0.4-0.1c0.3-0.2,0.4-0.6,0.3-1.1
		l-0.1-0.3c-0.2-0.4-0.5-0.5-0.8-0.3s-0.6,0.7-0.4,1.1l0.1,0.3c0.1,0.2,0.3,0.4,0.5,0.4l-0.4,5.2l-1.2,1.7
		C2666.6,168.8,2666.7,169.2,2666.9,169.2z"/>
	<path fill="#010101" d="M2662.7,169.2h3.1c0.2,0,0.4-0.4,0.2-0.6l-1.4-1.9l-0.3-5c0.1,0,0.3,0,0.4-0.1c0.3-0.2,0.4-0.6,0.3-1.1
		l-0.1-0.3c-0.2-0.4-0.5-0.5-0.8-0.3c-0.3,0.2-0.6,0.7-0.4,1.1l0.1,0.3c0.1,0.2,0.3,0.4,0.5,0.4l-0.3,5l-1.4,1.9
		C2662.3,168.8,2662.5,169.2,2662.7,169.2z"/>
	<path fill="#010101" d="M2715.3,169.2h3.1c0.2,0,0.4-0.4,0.2-0.6l-1.5-2.1l-0.4-5.2l-0.4,5.6l-1.2,1.7
		C2714.9,168.8,2715.1,169.2,2715.3,169.2z"/>
	<path fill="#010101" d="M2699.9,169.2h3.1c0.2,0,0.4-0.4,0.2-0.6l-1.4-1.9l-0.3-5c0.1,0,0.3,0,0.4-0.1c0.3-0.2,0.4-0.6,0.3-1.1
		l-0.1-0.3c-0.2-0.4-0.5-0.5-0.8-0.3s-0.6,0.7-0.4,1.1l0.1,0.3c0.1,0.2,0.3,0.4,0.5,0.4l-0.3,5l-1.4,1.9
		C2699.6,168.8,2699.7,169.2,2699.9,169.2z"/>
	<path fill="#010101" d="M2683.9,169.1h3.1c0.2,0,0.4-0.4,0.2-0.6l-1.5-2.1l-0.3-4.9c0.1,0,0.3,0,0.4-0.1c0.3-0.2,0.4-0.6,0.3-1.1
		l-0.1-0.3c-0.2-0.4-0.5-0.5-0.8-0.3s-0.6,0.7-0.4,1.1l0.1,0.3c0.1,0.2,0.3,0.4,0.5,0.4l-0.4,5.3l-1.2,1.7
		C2683.6,168.7,2683.7,169.1,2683.9,169.1z"/>
	<path fill="#010101" d="M2679.7,169.1h3.1c0.2,0,0.4-0.4,0.2-0.6l-1.4-1.9l-0.3-5.1c0.1,0,0.3,0,0.4-0.1c0.3-0.2,0.4-0.6,0.3-1.1
		l-0.1-0.3c-0.2-0.4-0.5-0.5-0.8-0.3c-0.3,0.2-0.6,0.7-0.4,1.1l0.1,0.3c0.1,0.2,0.3,0.4,0.5,0.4l-0.3,5.1l-1.4,1.9
		C2679.3,168.7,2679.5,169.1,2679.7,169.1z"/>
	<path fill="#010101" d="M2744.2,169.2h3.1c0.2,0,0.4-0.4,0.2-0.6l-1.5-2.1l-0.4-5.2l-0.4,5.6l-1.2,1.7
		C2743.8,168.8,2744,169.2,2744.2,169.2z"/>
	<path fill="#010101" d="M2781.8,169.2h3.1c0.2,0,0.4-0.4,0.2-0.6l-1.5-2.2l-0.3-4.6c0.2,0.1,0.3,0,0.5-0.1c0.3-0.2,0.4-0.7,0.3-1.1
		l-0.1-0.3c-0.2-0.4-0.5-0.5-0.8-0.3s-0.6,0.7-0.4,1.1l0.1,0.3c0.1,0.2,0.2,0.3,0.4,0.4l-0.3,5l-1.2,1.8
		C2781.5,168.8,2781.6,169.2,2781.8,169.2z"/>
	<path fill="#010101" d="M2777.6,169.2h3.1c0.2,0,0.4-0.4,0.2-0.6l-1.4-1.9l-0.3-4.8c0.2,0,0.3,0,0.5-0.1c0.3-0.2,0.4-0.7,0.3-1.1
		l-0.1-0.3c-0.2-0.4-0.5-0.5-0.8-0.3c-0.3,0.2-0.6,0.7-0.4,1.1l0.1,0.3c0.1,0.2,0.2,0.3,0.4,0.4l-0.3,4.8l-1.4,1.9
		C2777.2,168.8,2777.3,169.2,2777.6,169.2z"/>
	<path fill="#010101" d="M2914.8,168.9h3.1c0.2,0,0.4-0.4,0.2-0.6l-1.2-1.7l-0.4-5.6l-0.4,5.2l-1.5,2.1
		C2914.5,168.5,2914.6,168.9,2914.8,168.9z"/>
	<path fill="#010101" d="M2919.1,168.9h3.1c0.2,0,0.4-0.4,0.2-0.6l-1.4-1.9l-0.4-5.4l-0.4,5.4l-1.4,1.9
		C2918.7,168.5,2918.8,168.9,2919.1,168.9z"/>
	<path fill="#010101" d="M2866.5,168.9h3.1c0.2,0,0.4-0.4,0.2-0.6l-1.2-1.7l-0.4-5.6l-0.4,5.2l-1.5,2.1
		C2866.1,168.5,2866.2,168.9,2866.5,168.9z"/>
	<path fill="#010101" d="M2881.8,168.9h3.1c0.2,0,0.4-0.4,0.2-0.6l-1.4-1.9l-0.4-5.4l-0.4,5.4l-1.4,1.9
		C2881.5,168.5,2881.6,168.9,2881.8,168.9z"/>
	<path fill="#010101" d="M2897.8,168.8h3.1c0.2,0,0.4-0.4,0.2-0.6l-1.2-1.7l-0.4-5.6l-0.4,5.2l-1.5,2.1
		C2897.5,168.4,2897.6,168.8,2897.8,168.8z"/>
	<path fill="#010101" d="M2902.1,168.8h3.1c0.2,0,0.4-0.4,0.2-0.6l-1.4-1.9l-0.4-5.4l-0.4,5.4l-1.4,1.9
		C2901.7,168.4,2901.8,168.8,2902.1,168.8z"/>
	<path fill="#010101" d="M2837.6,168.9h3.1c0.2,0,0.4-0.4,0.2-0.6l-1.2-1.7l-0.4-5.6l-0.4,5.2l-1.5,2.1
		C2837.2,168.5,2837.3,168.9,2837.6,168.9z"/>
	<path fill="#010101" d="M2805.7,160.9l-0.4,5.4l-1.4,1.9c-0.2,0.2,0,0.6,0.2,0.6h3.1c0.2,0,0.4-0.4,0.2-0.6l-1.4-1.9L2805.7,160.9z
		"/>
	<path fill="#010101" d="M2801.6,160.9l-0.4,5.2l-1.5,2.1c-0.2,0.2,0,0.6,0.2,0.6h3.1c0.2,0,0.4-0.4,0.2-0.6l-1.2-1.7L2801.6,160.9z
		"/>
	<path fill="#010101" d="M2637.9,188h3.1c0.2,0,0.4-0.4,0.2-0.6l-1.4-1.9l-0.4-5.3c0.1,0,0.3,0,0.4-0.1c0.3-0.2,0.4-0.6,0.3-1.1
		l-0.1-0.3c-0.2-0.4-0.5-0.5-0.8-0.3s-0.6,0.7-0.4,1.1l0.1,0.3c0.1,0.2,0.3,0.4,0.5,0.4l-0.4,5.3l-1.4,1.9
		C2637.5,187.6,2637.7,188,2637.9,188z"/>
	<path fill="#010101" d="M2973.1,212.1l0.2-4.7h3l-2.6-8.1l0.5-9.4h-3.1v1l-0.5-1.7h-0.9l0.3-0.2h0.8c0.2,0,0.4-0.4,0.2-0.6
		l-0.1-0.1l0.1-0.1h-0.2l-1.2-1.8l-0.4-5.4l-0.4,5.4l-1.2,1.8h-20.1l-1.1-1.5l-0.4-5.4l-0.4,5.4l-1.1,1.5h-16v-7.5h-130v-1.4h130
		v-2.4h0.3l1.5-1.9h-1.8h-5.9l-0.3-1l0.2-3.6l0,0l1.1-1.5h-68.9c0.2-0.1,0.3-0.4,0.1-0.6l-1.2-1.7l-0.4-5.6l-0.4,5.2l-1.3,2.1
		c-0.1,0.2-0.1,0.5,0.1,0.6h-28.5c0.2-0.1,0.3-0.4,0.1-0.6l-1.2-1.7l-0.4-5.6l-0.4,5.2l-1.5,2.1c-0.1,0.2-0.1,0.5,0.1,0.6h-21.7v0.1
		h-12.8v0.2h-20.4c0.2-0.1,0.3-0.4,0.1-0.6l-1.5-2.1l-0.3-4.8c0.1,0,0.3,0,0.4-0.1c0.3-0.2,0.4-0.6,0.3-1.1l-0.1-0.3
		c-0.2-0.4-0.5-0.5-0.8-0.3s-0.6,0.7-0.4,1.1l0.1,0.3c0.1,0.2,0.3,0.4,0.5,0.4l-0.4,5.2l-1.2,1.7c-0.1,0.2-0.1,0.5,0.1,0.6h-28.5
		c0.2-0.1,0.3-0.4,0.1-0.6l-1.5-2.1l-0.4-5.2l-0.4,5.6l-1.2,1.7c-0.1,0.2-0.1,0.5,0.1,0.6h-68.8l1.1,1.5l0,0l0.2,3.6l-0.2,0.7h-5.2
		h-1.8l1.5,1.9h0.3v2.4h128.3v1.4H2657v7.5h-39c0.1-0.1,0.2-0.4,0-0.5l-1.4-1.9l-0.4-5.4l-0.4,5.4l-1.3,1.8c-0.1,0.2-0.1,0.4,0,0.5
		l0,0l1.6,1h-1.8l-0.2,0.8h-2.9v10l-2.1,7.5h2.1v4.7h-2.7l1.9,50.2h364.3l2.3-50.2H2973.1z M2686.9,172.2h12.2c0,0.1,0,0.1,0,0.2
		c0,0.7,0.3,1.4,0.7,1.9h-13.5c0.4-0.5,0.7-1.1,0.7-1.9C2686.9,172.3,2686.9,172.2,2686.9,172.2z M2898.5,174h-13.4
		c0.4-0.5,0.7-1.1,0.7-1.9c0-0.1,0-0.1,0-0.2h12.2c0,0.1,0,0.1,0,0.2C2897.9,172.9,2898.1,173.5,2898.5,174z M2823.9,171.9h12.7
		c0,0.1,0,0.1,0,0.2c0,0.7,0.3,1.4,0.7,1.9h-13.9c0.4-0.5,0.7-1.1,0.7-1.9C2824,172.1,2824,172,2823.9,171.9z M2881.4,174h-11.6
		c0.4-0.5,0.7-1.1,0.7-1.9c0-0.1,0-0.1,0-0.2h10.3c0,0.1,0,0.1,0,0.2C2880.8,172.9,2881,173.5,2881.4,174z M2866.2,174H2855
		c0.4-0.5,0.7-1.1,0.7-1.9c0-0.1,0-0.1,0-0.2h9.9c0,0.1,0,0.1,0,0.2C2865.5,172.9,2865.8,173.5,2866.2,174z M2851.3,174h-10.4
		c0.4-0.5,0.7-1.1,0.7-1.9c0-0.1,0-0.1,0-0.2h9.1c0,0.1,0,0.1,0,0.2C2850.6,172.9,2850.9,173.5,2851.3,174z M2819,171.9
		c0,0.1,0,0.1,0,0.2c0,0.7,0.3,1.4,0.7,1.9h-11.9c0.1-0.3,0.2-0.6,0.2-1s-0.1-0.8-0.2-1.1L2819,171.9L2819,171.9z M2704.1,172.2
		h10.3c0,0.1,0,0.1,0,0.2c0,0.7,0.3,1.4,0.7,1.9h-11.7c0.4-0.5,0.7-1.1,0.7-1.9C2704.1,172.3,2704.1,172.2,2704.1,172.2z
		 M2761.5,174.3h-13.9c0.4-0.5,0.7-1.1,0.7-1.9c0-0.1,0-0.1,0-0.2h12.7c0,0.1,0,0.1,0,0.2C2760.9,173.1,2761.1,173.8,2761.5,174.3z
		 M2743.9,174.3h-10.4c0.4-0.5,0.7-1.1,0.7-1.9c0-0.1,0-0.1,0-0.2h9.1c0,0.1,0,0.1,0,0.2C2743.2,173.1,2743.5,173.8,2743.9,174.3z
		 M2729.9,174.3h-11.2c0.4-0.5,0.7-1.1,0.7-1.9c0-0.1,0-0.1,0-0.2h9.9c0,0.1,0,0.1,0,0.2C2729.2,173.1,2729.4,173.8,2729.9,174.3z
		 M2777.1,174.3h-11.9c0.4-0.5,0.7-1.1,0.7-1.9c0-0.1,0-0.1,0-0.2h11.4c-0.1,0.3-0.2,0.7-0.2,1.1C2777,173.6,2777,174,2777.1,174.3z
		 M2905.1,174c0.4-0.5,0.7-1.1,0.7-1.9c0-0.1,0-0.1,0-0.2h8.8v2.1L2905.1,174L2905.1,174z M2670.3,172.2h8.8c0,0.1,0,0.1,0,0.2
		c0,0.7,0.3,1.4,0.7,1.9h-9.5C2670.3,174.3,2670.3,172.2,2670.3,172.2z M2964.2,195.9l-1.7,0.1l-0.1-2.7l1.7-0.1L2964.2,195.9z
		 M2960.9,195.9l-1.7,0.1l-0.1-2.7l1.7-0.1L2960.9,195.9z M2957.9,196l-1.7,0.1l-0.1-2.7l1.7-0.1L2957.9,196z M2954.8,195.9h-1.2
		l-0.1-2.7h1.3V195.9L2954.8,195.9z M2955.3,195.4v0.5l0,0V195.4z M2952.3,195.9l-1.7,0.1l-0.1-2.7l1.7-0.1L2952.3,195.9z
		 M2944.8,193.2v2.7l-1.7,0.1l-0.1-2.7l2.5-0.1l0,0H2944.8z M2947.9,193.3L2947.9,193.3L2947.9,193.3l0.5-0.1l0,0h1.1l0.1,2.7
		l-1.7,0.1l0,0h-0.1v-2L2947.9,193.3z M2941.6,193.3v2.7h-1.7v-2.7H2941.6z M2938.4,193.3v2.7h-1.7v-2.7H2938.4z M2935.5,196h-1.5
		v-2.7h1.5V196z M2932,196h-1.4v-2.7h1.4V196z M2656.1,194.7l-1.7,0.1l-0.1-2.7l1.7-0.1L2656.1,194.7z M2652.8,194.7l-1.7,0.1
		l-0.1-2.7l1.7-0.1L2652.8,194.7z M2644.5,192.1l1.4-0.1l0.1,2.7l-1.5,0.1V192.1z M2643.3,194.7l-1.7,0.1l-0.1-2.7l1.7-0.1
		L2643.3,194.7z M2637.6,194.7l-1.7,0.1l-0.1-2.7l1.7-0.1L2637.6,194.7z M2633.2,194.8l-0.1-2.7l1.7-0.1l0.1,2.7L2633.2,194.8z
		 M2631.7,192.1v2.7h-1.7v-2.7H2631.7z M2628.2,192.1v2.7h-1.7v-2.7H2628.2z M2624.7,194.8h-1.5v-2.7h1.5V194.8z M2621.1,194.8h-1.4
		v-2.7h1.4V194.8z M2649.3,192.1v2.7l-1.4,0.1l-0.1-2.7L2649.3,192.1z M2614.4,207.4H2971v4.7h-356.6V207.4z"/>
	<rect x="2619.8" y="192.1" fill="#FFFFFF" width="1.4" height="2.7"/>
	<rect x="2623.2" y="192.1" fill="#FFFFFF" width="1.5" height="2.7"/>
	<rect x="2626.5" y="192.1" fill="#FFFFFF" width="1.7" height="2.7"/>
	<rect x="2630" y="192.1" fill="#FFFFFF" width="1.7" height="2.7"/>
	<polygon fill="#FFFFFF" points="2633.1,192.1 2633.2,194.8 2634.9,194.7 2634.8,192 	"/>
	<polygon fill="#FFFFFF" points="2635.9,194.8 2637.6,194.7 2637.6,192 2635.9,192.1 	"/>
	<polygon fill="#FFFFFF" points="2641.6,194.8 2643.3,194.7 2643.2,192 2641.5,192.1 	"/>
	<polygon fill="#FFFFFF" points="2645.9,192 2644.5,192.1 2644.5,194.8 2646,194.7 	"/>
	<polygon fill="#FFFFFF" points="2649.3,194.8 2649.3,192.1 2647.7,192.1 2647.8,194.8 	"/>
	<polygon fill="#FFFFFF" points="2651.1,194.8 2652.8,194.7 2652.7,192 2651.1,192.1 	"/>
	<polygon fill="#FFFFFF" points="2654.4,194.8 2656.1,194.7 2656,192 2654.3,192.1 	"/>
	<rect x="2930.6" y="193.3" fill="#FFFFFF" width="1.4" height="2.7"/>
	<rect x="2934.1" y="193.3" fill="#FFFFFF" width="1.5" height="2.7"/>
	<rect x="2936.7" y="193.3" fill="#FFFFFF" width="1.7" height="2.7"/>
	<rect x="2939.9" y="193.3" fill="#FFFFFF" width="1.7" height="2.7"/>
	<polygon fill="#FFFFFF" points="2943.1,193.3 2943.1,196 2944.8,195.9 2944.8,193.2 2945.5,193.2 2945.5,193.2 	"/>
	<polygon fill="#FFFFFF" points="2947.9,195.9 2947.9,196 2949.6,195.9 2949.5,193.2 2948.4,193.3 2948.4,193.2 2947.9,193.3 
		2947.9,193.3 2947.9,193.3 2947.9,193.9 	"/>
	<polygon fill="#FFFFFF" points="2950.6,196 2952.3,195.9 2952.2,193.2 2950.6,193.3 	"/>
	<polygon fill="#FFFFFF" points="2955.3,195.4 2955.3,195.9 2955.3,195.9 	"/>
	<polygon fill="#FFFFFF" points="2953.6,196 2954.8,195.9 2954.8,193.3 2953.6,193.3 	"/>
	<polygon fill="#FFFFFF" points="2956.2,196 2957.9,196 2957.9,193.3 2956.2,193.3 	"/>
	<polygon fill="#FFFFFF" points="2959.3,196 2960.9,195.9 2960.9,193.2 2959.2,193.3 	"/>
	<polygon fill="#FFFFFF" points="2962.5,196 2964.2,195.9 2964.1,193.2 2962.4,193.3 	"/>
	<path fill="none" d="M2803.6,154c-0.7,0-1.1,0-1.1,0"/>
	<path fill="#010101" d="M2792.6,154.7c1.1-0.4,3.5-2.4,4.3-2.4c1.1,0,0.3,2.5,1.4,2.5l4.3-1.2c0.8,0,1.6,0,2.4,0
		c0,0,0.3,0.2,0.7,0.4c-0.9,0-1.6,0-2.1,0c0.5,0,1.3,0,2.1,0c1.1,0.7,3,1.9,3.1,1.9l3.3-1.9c0.8,0,1.5,0,1.9,0
		c0.1,0,0.2-0.2,0.2-0.4v-9.7c-0.7-1.3-1.2-2-1.9-3.3l-4.8,1.9c-1.1,0-1.2-2.3-2.3-2.3h-2.8l-3.2,1.2c0,0-1.3-1.9-1.7-2.4
		c-0.1-0.1-0.1-0.1-0.2-0.1c-0.7,0.3-4.1,2-4.9,2.4c-0.1,0.1-0.2,0.2-0.2,0.4v12.6C2792.3,154.6,2792.4,154.8,2792.6,154.7z"/>
	<path fill="#010101" d="M2615.7,179.8c0.2,0.4,0.6,0.5,0.9,0.3c0.3-0.2,0.4-0.6,0.3-1.1l-0.1-0.3c-0.2-0.4-0.5-0.5-0.8-0.3
		s-0.6,0.7-0.4,1.1L2615.7,179.8z"/>
	<path fill="#010101" d="M2716.2,160.5c0.2,0.4,0.6,0.5,0.9,0.3c0.3-0.2,0.4-0.6,0.3-1.1l-0.1-0.3c-0.2-0.4-0.5-0.5-0.8-0.3
		s-0.6,0.7-0.4,1.1L2716.2,160.5z"/>
	<path fill="#010101" d="M2731,160.5c0.2,0.4,0.6,0.5,0.9,0.3c0.3-0.2,0.4-0.6,0.3-1.1l-0.1-0.3c-0.2-0.4-0.5-0.5-0.8-0.3
		s-0.6,0.7-0.4,1.1L2731,160.5z"/>
	<path fill="#010101" d="M2745.1,160.3c0.2,0.4,0.6,0.5,0.9,0.3s0.4-0.6,0.3-1.1l-0.1-0.3c-0.2-0.4-0.5-0.5-0.8-0.3
		c-0.3,0.2-0.6,0.7-0.4,1.1L2745.1,160.3z"/>
</g>
<path fill="#010101" stroke="#010101" stroke-miterlimit="10" d="M2799.5,124.6"/>
<rect x="2614.6" y="188.2" fill="#010101" stroke="#010101" stroke-miterlimit="10" width="47.4" height="2"/>
<rect x="2609.1" y="207.4" fill="#010101" stroke="#010101" stroke-miterlimit="10" width="367.3" height="17"/>
<rect x="2657" y="179" fill="#010101" stroke="#010101" stroke-miterlimit="10" width="271.5" height="27"/>
<path fill="#010101" stroke="#010101" stroke-miterlimit="10" d="M2801.3,161.8c-0.1-0.2,0-0.6,0.3-0.7c0.1,0,0.3,0.2,0.3,0.4
	s-0.1,0.6-0.3,0.6C2801.6,162.1,2801.4,162,2801.3,161.8z"/>
<path fill="#010101" stroke="#010101" stroke-miterlimit="10" d="M2805.4,161.8c-0.1-0.2,0-0.6,0.3-0.7c0.1,0,0.3,0.2,0.3,0.4
	s-0.1,0.6-0.3,0.6C2805.6,162.1,2805.5,162,2805.4,161.8z"/>
<path fill="#010101" stroke="#010101" stroke-miterlimit="10" d="M2821.5,161.8c-0.1-0.2,0-0.6,0.3-0.7c0.1,0,0.3,0.2,0.3,0.4
	s-0.1,0.6-0.3,0.6C2821.7,162.1,2821.5,162,2821.5,161.8z"/>
<path fill="#010101" stroke="#010101" stroke-miterlimit="10" d="M2838.8,161.6c-0.1-0.2,0-0.6,0.3-0.7c0.1,0,0.3,0.2,0.3,0.4
	c0.1,0.2-0.1,0.6-0.3,0.6C2839,162,2838.9,161.8,2838.8,161.6z"/>
<path fill="#010101" stroke="#010101" stroke-miterlimit="10" d="M2853,161.2c-0.1-0.2,0-0.6,0.3-0.7c0.1,0,0.3,0.2,0.3,0.4
	s-0.1,0.6-0.3,0.6C2853.3,161.5,2853.1,161.4,2853,161.2z"/>
<path fill="#010101" stroke="#010101" stroke-miterlimit="10" d="M2920.3,161.2c-0.1-0.2,0-0.6,0.3-0.7c0.1,0,0.3,0.2,0.3,0.4
	c0.1,0.2-0.1,0.6-0.3,0.6C2920.5,161.6,2920.4,161.4,2920.3,161.2z"/>
<path fill="#010101" stroke="#010101" stroke-miterlimit="10" d="M2916.2,161.1c-0.1-0.2,0-0.6,0.3-0.7c0.1,0,0.3,0.2,0.3,0.4
	c0.1,0.2-0.1,0.6-0.3,0.6C2916.4,161.5,2916.2,161.3,2916.2,161.1z"/>
<path fill="#010101" stroke="#010101" stroke-miterlimit="10" d="M2903.3,161c-0.1-0.2,0-0.6,0.3-0.7c0.1,0,0.3,0.2,0.3,0.4
	c0.1,0.2-0.1,0.6-0.3,0.6C2903.5,161.4,2903.4,161.2,2903.3,161z"/>
<path fill="#010101" stroke="#010101" stroke-miterlimit="10" d="M2899,161.1c-0.1-0.2,0-0.6,0.3-0.7c0.1,0,0.3,0.2,0.3,0.4
	c0.1,0.2-0.1,0.6-0.3,0.6C2899.3,161.5,2899.1,161.3,2899,161.1z"/>
<path fill="#010101" stroke="#010101" stroke-miterlimit="10" d="M2883.1,161.1c-0.1-0.2,0-0.6,0.3-0.7c0.1,0,0.3,0.2,0.3,0.4
	c0.1,0.2-0.1,0.6-0.3,0.6C2883.3,161.5,2883.1,161.3,2883.1,161.1z"/>
<path fill="#010101" stroke="#010101" stroke-miterlimit="10" d="M2867.8,161.1c-0.1-0.2,0-0.6,0.3-0.7c0.1,0,0.3,0.2,0.3,0.4
	c0.1,0.2-0.1,0.6-0.3,0.6C2868,161.5,2867.9,161.3,2867.8,161.1z"/>
<path fill="#010101" stroke="#010101" stroke-miterlimit="10" d="M2968.9,181.2c-0.1-0.2,0-0.6,0.3-0.7c0.1,0,0.3,0.2,0.3,0.4
	c0.1,0.2-0.1,0.6-0.3,0.6C2969.1,181.5,2969,181.4,2968.9,181.2z"/>
<path fill="#010101" stroke="#010101" stroke-miterlimit="10" d="M2945.9,180.7c-0.1-0.2,0-0.6,0.3-0.7c0.1,0,0.3,0.2,0.3,0.4
	c0.1,0.2-0.1,0.6-0.3,0.6C2946.1,181,2946,180.9,2945.9,180.7z"/>
<rect x="2657" y="176.2" fill="#010101" stroke="#010101" stroke-miterlimit="10" width="6" height="8"/>
<rect x="2926.4" y="176.8" fill="#010101" stroke="#010101" stroke-miterlimit="10" width="2.1" height="14.8"/>
<rect x="2792.6" y="153" fill="#010101" stroke="#010101" stroke-miterlimit="10" width="0.4" height="22.7"/>
<rect x="2673.3" y="171.8" fill="#010101" stroke="#010101" stroke-miterlimit="10" width="0.4" height="22.7"/>
<rect x="2676.3" y="171.8" fill="#010101" stroke="#010101" stroke-miterlimit="10" width="0.4" height="22.7"/>
<rect x="2670.1" y="171.8" fill="#010101" stroke="#010101" stroke-miterlimit="10" width="0.4" height="22.7"/>
<rect x="2679.5" y="171.8" fill="#010101" stroke="#010101" stroke-miterlimit="10" width="0.4" height="22.7"/>
<rect x="2691.3" y="170.2" fill="#010101" stroke="#010101" stroke-miterlimit="10" width="0.4" height="22.7"/>
<rect x="2694.2" y="170.2" fill="#010101" stroke="#010101" stroke-miterlimit="10" width="0.4" height="22.7"/>
<rect x="2688" y="170.2" fill="#010101" stroke="#010101" stroke-miterlimit="10" width="0.4" height="22.7"/>
<rect x="2697.5" y="170.2" fill="#010101" stroke="#010101" stroke-miterlimit="10" width="0.4" height="22.7"/>
<rect x="2707.5" y="171.8" fill="#010101" stroke="#010101" stroke-miterlimit="10" width="0.4" height="22.7"/>
<rect x="2710.4" y="171.8" fill="#010101" stroke="#010101" stroke-miterlimit="10" width="0.4" height="22.7"/>
<rect x="2704.2" y="171.8" fill="#010101" stroke="#010101" stroke-miterlimit="10" width="0.4" height="22.7"/>
<rect x="2713.7" y="171.8" fill="#010101" stroke="#010101" stroke-miterlimit="10" width="0.4" height="22.7"/>
<rect x="2722.5" y="170.9" fill="#010101" stroke="#010101" stroke-miterlimit="10" width="0.4" height="22.7"/>
<rect x="2725.5" y="170.9" fill="#010101" stroke="#010101" stroke-miterlimit="10" width="0.4" height="22.7"/>
<rect x="2719.3" y="170.9" fill="#010101" stroke="#010101" stroke-miterlimit="10" width="0.4" height="22.7"/>
<rect x="2728.8" y="170.9" fill="#010101" stroke="#010101" stroke-miterlimit="10" width="0.4" height="22.7"/>
<rect x="2737" y="171.8" fill="#010101" stroke="#010101" stroke-miterlimit="10" width="0.4" height="22.7"/>
<rect x="2740" y="171.8" fill="#010101" stroke="#010101" stroke-miterlimit="10" width="0.4" height="22.7"/>
<rect x="2733.8" y="171.8" fill="#010101" stroke="#010101" stroke-miterlimit="10" width="0.4" height="22.7"/>
<rect x="2743.2" y="171.8" fill="#010101" stroke="#010101" stroke-miterlimit="10" width="0.4" height="22.7"/>
<rect x="2752.8" y="170.9" fill="#010101" stroke="#010101" stroke-miterlimit="10" width="0.4" height="22.7"/>
<rect x="2755.8" y="170.9" fill="#010101" stroke="#010101" stroke-miterlimit="10" width="0.4" height="22.7"/>
<rect x="2749.6" y="170.9" fill="#010101" stroke="#010101" stroke-miterlimit="10" width="0.4" height="22.7"/>
<rect x="2759.1" y="170.9" fill="#010101" stroke="#010101" stroke-miterlimit="10" width="0.4" height="22.7"/>
<rect x="2769.5" y="171.8" fill="#010101" stroke="#010101" stroke-miterlimit="10" width="0.4" height="22.7"/>
<rect x="2772.4" y="171.8" fill="#010101" stroke="#010101" stroke-miterlimit="10" width="0.4" height="22.7"/>
<rect x="2766.2" y="171.8" fill="#010101" stroke="#010101" stroke-miterlimit="10" width="0.4" height="22.7"/>
<rect x="2775.7" y="171.8" fill="#010101" stroke="#010101" stroke-miterlimit="10" width="0.4" height="22.7"/>
<rect x="2811.9" y="171.8" fill="#010101" stroke="#010101" stroke-miterlimit="10" width="0.4" height="22.7"/>
<rect x="2814.9" y="171.8" fill="#010101" stroke="#010101" stroke-miterlimit="10" width="0.4" height="22.7"/>
<rect x="2808.7" y="171.8" fill="#010101" stroke="#010101" stroke-miterlimit="10" width="0.4" height="22.7"/>
<rect x="2818.1" y="171.8" fill="#010101" stroke="#010101" stroke-miterlimit="10" width="0.4" height="22.7"/>
<rect x="2828.5" y="170.9" fill="#010101" stroke="#010101" stroke-miterlimit="10" width="0.4" height="22.7"/>
<rect x="2831.5" y="170.9" fill="#010101" stroke="#010101" stroke-miterlimit="10" width="0.4" height="22.7"/>
<rect x="2825.3" y="170.9" fill="#010101" stroke="#010101" stroke-miterlimit="10" width="0.4" height="22.7"/>
<rect x="2834.8" y="170.9" fill="#010101" stroke="#010101" stroke-miterlimit="10" width="0.4" height="22.7"/>
<rect x="2844.4" y="171.8" fill="#010101" stroke="#010101" stroke-miterlimit="10" width="0.4" height="22.7"/>
<rect x="2847.3" y="171.8" fill="#010101" stroke="#010101" stroke-miterlimit="10" width="0.4" height="22.7"/>
<rect x="2841.1" y="171.8" fill="#010101" stroke="#010101" stroke-miterlimit="10" width="0.4" height="22.7"/>
<rect x="2850.6" y="171.8" fill="#010101" stroke="#010101" stroke-miterlimit="10" width="0.4" height="22.7"/>
<rect x="2858.8" y="170.9" fill="#010101" stroke="#010101" stroke-miterlimit="10" width="0.4" height="22.7"/>
<rect x="2861.8" y="170.9" fill="#010101" stroke="#010101" stroke-miterlimit="10" width="0.4" height="22.7"/>
<rect x="2855.6" y="170.9" fill="#010101" stroke="#010101" stroke-miterlimit="10" width="0.4" height="22.7"/>
<rect x="2865.1" y="170.9" fill="#010101" stroke="#010101" stroke-miterlimit="10" width="0.4" height="22.7"/>
<rect x="2873.9" y="170.9" fill="#010101" stroke="#010101" stroke-miterlimit="10" width="0.4" height="22.7"/>
<rect x="2876.9" y="170.9" fill="#010101" stroke="#010101" stroke-miterlimit="10" width="0.4" height="22.7"/>
<rect x="2870.7" y="170.9" fill="#010101" stroke="#010101" stroke-miterlimit="10" width="0.4" height="22.7"/>
<rect x="2880.2" y="170.9" fill="#010101" stroke="#010101" stroke-miterlimit="10" width="0.4" height="22.7"/>
<rect x="2890.1" y="170.9" fill="#010101" stroke="#010101" stroke-miterlimit="10" width="0.4" height="22.7"/>
<rect x="2893.1" y="170.9" fill="#010101" stroke="#010101" stroke-miterlimit="10" width="0.4" height="22.7"/>
<rect x="2886.9" y="170.9" fill="#010101" stroke="#010101" stroke-miterlimit="10" width="0.4" height="22.7"/>
<rect x="2896.3" y="170.9" fill="#010101" stroke="#010101" stroke-miterlimit="10" width="0.4" height="22.7"/>
<rect x="2908.1" y="171.8" fill="#010101" stroke="#010101" stroke-miterlimit="10" width="0.4" height="22.7"/>
<rect x="2911" y="171.8" fill="#010101" stroke="#010101" stroke-miterlimit="10" width="0.4" height="22.7"/>
<rect x="2904.9" y="171.8" fill="#010101" stroke="#010101" stroke-miterlimit="10" width="0.4" height="22.7"/>
<rect x="2914.3" y="171.8" fill="#010101" stroke="#010101" stroke-miterlimit="10" width="0.4" height="22.7"/>
<rect x="2679.3" y="171.6" fill="#010101" stroke="#010101" stroke-miterlimit="10" width="7.5" height="13.3"/>
<rect x="2699.4" y="170.2" fill="#010101" stroke="#010101" stroke-miterlimit="10" width="4.2" height="26"/>
<rect x="2728.6" y="170.3" fill="#010101" stroke="#010101" stroke-miterlimit="10" width="4.9" height="12.3"/>
<rect x="2742.5" y="170.3" fill="#010101" stroke="#010101" stroke-miterlimit="10" width="6.1" height="20"/>
<rect x="2760.5" y="170.1" fill="#010101" stroke="#010101" stroke-miterlimit="10" width="5.2" height="13.3"/>
<rect x="2819.5" y="170.1" fill="#010101" stroke="#010101" stroke-miterlimit="10" width="5.2" height="13.3"/>
<rect x="2836.2" y="169.8" fill="#010101" stroke="#010101" stroke-miterlimit="10" width="5.2" height="13.3"/>
<rect x="2851.1" y="170.1" fill="#010101" stroke="#010101" stroke-miterlimit="10" width="5.2" height="13.3"/>
<rect x="2865.2" y="169.6" fill="#010101" stroke="#010101" stroke-miterlimit="10" width="5.2" height="13.3"/>
<rect x="2880.8" y="169.6" fill="#010101" stroke="#010101" stroke-miterlimit="10" width="5.2" height="13.3"/>
<rect x="2897.1" y="170.1" fill="#010101" stroke="#010101" stroke-miterlimit="10" width="5.2" height="13.3"/>
<rect x="2803.1" y="170.1" fill="#010101" stroke="#010101" stroke-miterlimit="10" width="5.2" height="13.3"/>
<rect x="2714.4" y="171.7" fill="#010101" stroke="#010101" stroke-miterlimit="10" width="5.2" height="13.3"/>
<rect x="2967.9" y="188.6" fill="#010101" stroke="#010101" stroke-miterlimit="10" width="6.3" height="29.9"/>
<path fill="#010101" stroke="#010101" stroke-miterlimit="10" d="M3027.2,271.9l-30-0.2c-5.2,0-19.5-3.5-19.4-7.2l11.4-131.4
	c0-3.7,4.3-6.7,9.6-6.7l30,0.2c5.2,0,9.5,3.1,9.4,6.8l10.6,131.9C3048.8,269,3032.5,271.9,3027.2,271.9z"/>
<path fill="#010101" stroke="#010101" stroke-miterlimit="10" d="M3137.5,145.8v118c0,0.6-0.7,1.1-1.5,1.1h-82.4
	c-0.8,0-1.5-0.5-1.5-1.1v-118c0-0.6,0.7-1.1,1.5-1.1h13.7c0.8,0,1.5-0.5,1.5-1.1l0,0v-2.8c0-1.2,1.4-2.2,3.1-2.2h45.9
	c1.7,0,3.1,1,3.1,2.2v2.8l0,0c0,0.6,0.7,1.1,1.5,1.1h13.7C3136.8,144.7,3137.5,145.2,3137.5,145.8z"/>
<path fill="#010101" stroke="#010101" stroke-miterlimit="10" d="M3037.3,141.8h-2.9c-0.8,0-1.4-0.5-1.4-1l2.4-24.4
	c0-0.6-1.8-5.4-1-5.4h2.9c0.8,0,1.4,0.5,1.4,1v28.8C3038.8,141.4,3038.1,141.8,3037.3,141.8z"/>
<g id="XMLID_3_">
	<g>
		<polygon fill="#010101" points="3231.2,135.1 3208.5,143 3163.3,143 3140.6,135.1 3163.3,127.1 3208.5,127.1 		"/>
	</g>
	<g>
		<polygon fill="none" stroke="#010101" stroke-miterlimit="10" points="3231.2,135.1 3208.5,143 3163.3,143 3140.6,135.1 
			3163.3,127.1 3208.5,127.1 		"/>
		<line fill="none" stroke="#010101" stroke-miterlimit="10" x1="3140.6" y1="135.1" x2="3140.6" y2="265.8"/>
		<line fill="none" stroke="#010101" stroke-miterlimit="10" x1="3231.2" y1="135.1" x2="3231.2" y2="265.6"/>
	</g>
</g>
<line fill="none" stroke="#010101" stroke-miterlimit="10" x1="3129.6" y1="264.1" x2="3220.2" y2="263.8"/>
<rect x="3140.6" y="135.1" fill="#010101" width="90.5" height="130.5"/>
<rect x="3242.5" y="123" fill="#010101" width="11.9" height="141.8"/>
<path fill="#010101" d="M3267.6,122.8H3229c-3,0-5.4-2.4-5.4-5.4v0c0-3,2.4-5.4,5.4-5.4h38.6c3,0,5.4,2.4,5.4,5.4v0
	C3273,120.4,3270.5,122.8,3267.6,122.8z"/>
<path fill="#010101" d="M3264.6,126.2h-31.9c-1.7,0-3.1-1.4-3.1-3.1v0c0-1.7,1.4-3.1,3.1-3.1h31.9c1.7,0,3.1,1.4,3.1,3.1v0
	C3267.7,124.8,3266.3,126.2,3264.6,126.2z"/>
<path fill="#010101" d="M3267.6,109.3H3229c-3,0-5.4-2.4-5.4-5.4v0c0-3,2.4-5.4,5.4-5.4h38.6c3,0,5.4,2.4,5.4,5.4v0
	C3273,106.9,3270.5,109.3,3267.6,109.3z"/>
<path fill="#010101" d="M3267.9,95.6h-38.6c-3,0-5.4-2.4-5.4-5.4v0c0-3,2.4-5.4,5.4-5.4h38.6c3,0,5.4,2.4,5.4,5.4v0
	C3273.3,93.1,3270.9,95.6,3267.9,95.6z"/>
<path fill="#010101" d="M3267.6,81.6H3229c-3,0-5.4-2.4-5.4-5.4v0c0-3,2.4-5.4,5.4-5.4h38.6c3,0,5.4,2.4,5.4,5.4v0
	C3273,79.2,3270.5,81.6,3267.6,81.6z"/>
<polygon fill="#010101" points="3317.2,267.5 3278.5,267.5 3278.5,87.7 3330.5,91.5 "/>
<rect x="3327.5" y="205.2" fill="#010101" width="211" height="59.6"/>
<ellipse fill="#010101" cx="3433" cy="228.2" rx="45.9" ry="30.7"/>
<path fill="#010101" d="M3493.9,228.9H3483c-6,0-10.9-2.8-10.9-6.2l-2.3-50c0-3.4,7.2-6.5,13.2-6.5h10.9c6,0,14.8,2.5,14.8,6
	l-3.9,50.5C3504.8,226.1,3499.9,228.9,3493.9,228.9z"/>
<path fill="#010101" d="M3383.9,228.9H3373c-6,0-10.9-2.8-10.9-6.2l-2.5-49.7c0-3.4,7.4-6.7,13.4-6.7h10.9c6,0,15,3.2,15,6.6
	l-4.1,49.9C3394.8,226.1,3389.9,228.9,3383.9,228.9z"/>
<polygon fill="#010101" points="3385.3,189.9 3371.6,189.9 3369.3,152.4 3388,152.4 "/>
<polygon fill="#010101" points="3495.3,189.5 3481.7,189.5 3478.9,152.4 3498.7,152.4 "/>
<ellipse fill="#010101" cx="3378.6" cy="153.5" rx="9.2" ry="4.6"/>
<ellipse fill="#010101" cx="3489.1" cy="152.9" rx="9.2" ry="4.6"/>
<line fill="none" stroke="#010101" stroke-width="2" stroke-miterlimit="10" x1="3488.8" y1="142" x2="3488.8" y2="154.6"/>
<line fill="none" stroke="#010101" stroke-width="2" stroke-miterlimit="10" x1="3492.5" y1="144.6" x2="3485.2" y2="144.6"/>
<line fill="none" stroke="#010101" stroke-width="2" stroke-miterlimit="10" x1="3378.7" y1="143" x2="3378.7" y2="155.6"/>
<line fill="none" stroke="#010101" stroke-width="2" stroke-miterlimit="10" x1="3382.3" y1="145.6" x2="3375" y2="145.6"/>
<path fill="none" stroke="#010101" stroke-width="8" stroke-miterlimit="10" d="M3415.3,198.9c4.2-1.8,0.3,2.2,6.3,0.3
	c-2.4,3.3,2.2,2.6-0.2,3c-0.9-0.7-0.7,1.4-0.9,0.4c0.1,1,11.6-2,14.4-1.8c-2,0.8,15-15.6-13.6,1.4c0.5-1.4-1.9,7.2-0.3,6.2
	c-0.8,0.9,0.3-5.5-0.5-4.6"/>
<path fill="#010101" stroke="#010101" stroke-miterlimit="10" d="M3597.5,146v118c0,0.6-0.4,1.1-1,1.1h-52.7c-0.5,0-1-0.5-1-1.1V146
	c0-0.6,0.4-1.1,1-1.1h8.8c0.5,0,1-0.5,1-1.1l0,0v-2.8c0-1.2,0.9-2.2,2-2.2h29.3c1.1,0,2,1,2,2.2v2.8l0,0c0,0.6,0.4,1.1,1,1.1h8.8
	C3597.1,144.9,3597.5,145.4,3597.5,146z"/>
<path fill="#010101" stroke="#010101" stroke-miterlimit="10" d="M3671.8,266.9h-57.6c-4.2,0-7.7-2.3-7.7-5V135.4
	c0-2.8,32.3-13.7,36.5-13.7l28.8,8.7c4.2,0,7.7,2.3,7.7,5v126.4C3679.5,264.6,3676,266.9,3671.8,266.9z"/>
<rect x="3777.5" y="148.3" fill="#010101" stroke="#010101" stroke-miterlimit="10" width="50" height="114.1"/>
<rect x="3827.5" y="174.1" fill="#010101" stroke="#010101" stroke-miterlimit="10" width="23" height="88.3"/>
<rect x="3846.5" y="116.7" fill="#010101" stroke="#010101" stroke-miterlimit="10" width="27" height="145.6"/>
<rect x="3873.5" y="159.1" fill="#010101" stroke="#010101" stroke-miterlimit="10" width="27" height="103.4"/>
<rect x="3746.5" y="174.1" fill="#010101" stroke="#010101" stroke-miterlimit="10" width="37" height="88.5"/>
<path fill="#010101" stroke="#010101" stroke-miterlimit="10" d="M3771,258.5h-12c-6.9,0-12.5-5.6-12.5-12.5V121.3
	c0-6.9,5.6-12.5,12.5-12.5h12c6.9,0,12.5,5.6,12.5,12.5V246C3783.5,252.9,3777.9,258.5,3771,258.5z"/>
<path fill="#010101" stroke="#010101" stroke-miterlimit="10" d="M3739.1,116.1c0,28.3-22.6,51.2-50.5,51.2V64.9
	C3716.5,64.9,3739.1,87.8,3739.1,116.1z"/>
<rect x="3688.6" y="114.2" fill="#010101" stroke="#010101" stroke-miterlimit="10" width="50.5" height="149.1"/>
</svg>
